STARTFONT 2.3
FONT -FontForge-Monoton-Book-R-Normal--32-320-72-72-P-216-ISO10646-1
SIZE 32 72 72  2
FONTBOUNDINGBOX 60 50 -5 -13
COMMENT "Generated by fontforge, http://fontforge.sourceforge.net"
COMMENT "Copyright (c) 2011 by vernon adams. All rights reserved."
STARTPROPERTIES 41
FOUNDRY "FontForge"
FAMILY_NAME "Monoton"
WEIGHT_NAME "Book"
SLANT "R"
SETWIDTH_NAME "Normal"
ADD_STYLE_NAME ""
PIXEL_SIZE 32
POINT_SIZE 320
RESOLUTION_X 72
RESOLUTION_Y 72
SPACING "P"
AVERAGE_WIDTH 216
CHARSET_REGISTRY "ISO10646"
CHARSET_ENCODING "1"
FONTNAME_REGISTRY ""
CHARSET_COLLECTIONS "ISO8859-2 ISO8859-9 ISO8859-4 ISO10646-1"
BITS_PER_PIXEL 2
FONT_NAME "Monoton-Regular"
FACE_NAME "Monoton"
COPYRIGHT "Copyright (c) 2011 by vernon adams. All rights reserved."
FONT_VERSION "1.000"
FONT_ASCENT 26
FONT_DESCENT 6
UNDERLINE_POSITION -2
UNDERLINE_THICKNESS 1
X_HEIGHT 22
CAP_HEIGHT 25
DEFAULT_CHAR 1
RAW_ASCENT 799
RAW_DESCENT 200
NORM_SPACE 3
RELATIVE_WEIGHT 40
RELATIVE_SETWIDTH 50
SUPERSCRIPT_X 0
SUPERSCRIPT_Y 11
SUPERSCRIPT_SIZE 19
SUBSCRIPT_X 0
SUBSCRIPT_Y 2
SUBSCRIPT_SIZE 19
AVG_LOWERCASE_WIDTH 232
AVG_UPPERCASE_WIDTH 253
ENDPROPERTIES
CHARS 372
STARTCHAR glyph1.dup1
ENCODING 0
SWIDTH 108 0
DWIDTH 3 0
BBX 1 1 0 0
BITMAP
00
ENDCHAR
STARTCHAR uni0002
ENCODING 2
SWIDTH 108 0
DWIDTH 3 0
BBX 1 1 0 0
BITMAP
00
ENDCHAR
STARTCHAR uni0009
ENCODING 9
SWIDTH 108 0
DWIDTH 3 0
BBX 1 1 0 0
BITMAP
00
ENDCHAR
STARTCHAR uni000A
ENCODING 10
SWIDTH 108 0
DWIDTH 3 0
BBX 1 1 0 0
BITMAP
00
ENDCHAR
STARTCHAR uni000D
ENCODING 13
SWIDTH 108 0
DWIDTH 3 0
BBX 1 1 0 0
BITMAP
00
ENDCHAR
STARTCHAR space
ENCODING 32
SWIDTH 108 0
DWIDTH 3 0
BBX 1 1 0 0
BITMAP
00
ENDCHAR
STARTCHAR exclam
ENCODING 33
SWIDTH 336 0
DWIDTH 11 0
BBX 9 27 1 -1
BITMAP
663240
A73240
A73240
A73240
A73240
A73240
A73240
A73240
A73240
A73240
A73240
A73240
A73240
A73240
A73240
A73240
A73240
A73240
A73240
011100
000000
6AAA40
6AAA40
155500
7FFF40
000000
BFFF40
ENDCHAR
STARTCHAR quotedbl
ENCODING 34
SWIDTH 538 0
DWIDTH 17 0
BBX 15 11 1 15
BITMAP
96202598
9670259C
9670259C
9670259C
9670259C
9670259C
9670259C
9670259C
9670259C
9670259C
41101044
ENDCHAR
STARTCHAR numbersign
ENCODING 35
SWIDTH 1014 0
DWIDTH 32 0
BBX 31 29 1 -2
BITMAP
00000DA30018C900
00000C9600258C00
000018D900369C00
000029CD00736800
0000368C00632400
00BF725AFE9637F8
0000632400DA7000
01AAA736A9CDAAA0
0055DA31558C9550
0155C9655658D550
02A98C9AA769DA90
00029CD007368000
000369C006324000
0003258009630000
000632400DA70000
000A73401CDA0000
000DA70018C90000
000C9600258C0000
1558C955369C5400
3FA9CDFF736AFD00
00369C0063240000
BF725AFE9637F800
00632400DA700000
AAA736A9CDAAA000
55DA71558C955000
00C9600258C00000
018C900369C00000
029CD00736800000
0258C00632400000
ENDCHAR
STARTCHAR dollar
ENCODING 36
SWIDTH 686 0
DWIDTH 22 0
BBX 20 36 1 -5
BITMAP
0001410000
0001830000
0001830000
0001420000
0006FFA500
00B9515B90
0781AA9078
0E2E95AE4B
28A05541E0
728BAAB910
A728150640
9631FFF400
D963401000
D963000000
9A72FFA400
A728156E40
728BAA52D0
35D15AB874
1D7E550B28
0746AAE28D
01F50028DA
001BFF4C96
000001C9A7
000000C967
002FAB8DA6
01915428DA
04BEAAE28D
1E45A94B28
92F955B874
791ABA92D0
07E4006E40
006BFFE400
0000010000
0001830000
0001830000
0001420000
ENDCHAR
STARTCHAR percent
ENCODING 37
SWIDTH 1504 0
DWIDTH 48 0
BBX 47 30 1 -3
BITMAP
0006FE400000000000000000
00B945B40001889000000000
0381A91E000258C000000000
0E2E5AD74003258000000000
28A05475D007368000000000
728BAF5CA00A734000000000
A32C11CA3009630000000000
DA71FCA3240C960000000000
C9634A33681CDA0000000000
C9A606326829CD001BFE4000
C9A30A3368358C01B906E400
DA72ECA32432580786A92D00
A72851D63063241D2E5B8740
728BAB5D60A73434E154B2C0
28E1A475D0DA70628BAE2890
0D2E56D380C960D628028D60
0786BA1E018C90C962F8D630
00B901B4029CD18C970D6334
001BFE800369C18CDA0A6324
000000000325818C96096334
00000000063241CDA2F89630
000000000A7340D63852C960
000000000DA700A34FAF1C90
000000001CDA0035D1A475C0
0000000018C9001D7956D740
00000000258C000746B91D00
00000000369C0001E401B400
00000000736800001BFE4000
000000006324000000000000
000000000110000000000000
ENDCHAR
STARTCHAR ampersand
ENCODING 38
SWIDTH 1029 0
DWIDTH 33 0
BBX 31 26 1 0
BITMAP
0006BFFFC2598C00
0079555542698C00
02D1AAAA82698C00
0A1EAAAA42698C00
2CB4555542698C00
35C7EAAA82698C00
635D000002698C00
9635FFFFC2698C00
DA63400002698C00
D963000002698C00
9672AAAAA6698DA8
A3286AAAA6698DA8
368E555556698D54
358BEAAAAA698DA8
6329000002698C54
9672FFFFFA698DFC
D963000002698C00
DA6300000259CD00
9632FFFFF258CBF0
A3281555518CA050
728BAAAAA0CA2EA0
28A05AAAA0A385A0
0E2E55555034B950
0781AAAAA01E1AA0
00B940000002E400
001AFFFFF0006FF0
ENDCHAR
STARTCHAR quotesingle
ENCODING 39
SWIDTH 257 0
DWIDTH 8 0
BBX 6 11 1 15
BITMAP
9620
9670
9670
9670
9670
9670
9670
9670
9670
9670
4110
ENDCHAR
STARTCHAR parenleft
ENCODING 40
SWIDTH 410 0
DWIDTH 13 0
BBX 11 30 1 -3
BITMAP
0006FC
007940
02D1A8
0B1E94
1C7458
25D7A8
725D14
A725FC
963280
9A7300
9A6300
9A6300
9A6300
9A6300
9A6300
9A6300
9A6300
9A6300
9A6300
9A6300
967340
A735E8
735C18
35CB94
1CA1A8
0A2E40
0286FC
00B900
001BFC
000014
ENDCHAR
STARTCHAR parenright
ENCODING 41
SWIDTH 408 0
DWIDTH 13 0
BBX 11 30 1 -3
BITMAP
FE4000
05B400
A91E00
56D280
5478D0
AB4D70
51D734
BD7368
073698
03259C
03659C
03659C
03659C
03659C
03659C
03659C
03659C
03659C
03659C
03259C
07269C
AD3258
54A724
5B8A70
A928A0
06E2C0
FE4B00
01B800
FF9000
500000
ENDCHAR
STARTCHAR asterisk
ENCODING 42
SWIDTH 664 0
DWIDTH 21 0
BBX 19 20 1 3
BITMAP
0001114000
0007364000
0007364000
0A07364280
02E7365E00
282F36F4B0
0B86364790
A1B4346D2C
2E1E76D1E4
06D2FE1B40
02E1FD1E40
1E1B76D2E0
A4B834792C
0786364B84
292F36E4B0
01E736AE00
0B473642C0
0007364000
0007364000
0002214000
ENDCHAR
STARTCHAR plus
ENCODING 43
SWIDTH 601 0
DWIDTH 19 0
BBX 17 16 1 5
BITMAP
0011104000
0033658000
0033658000
0033658000
0033658000
AAB365EA80
5573659540
6AB365EA80
6AB365EA80
5573659540
BFF365FFC0
0033658000
0033658000
0033658000
0033658000
0011144000
ENDCHAR
STARTCHAR comma
ENCODING 44
SWIDTH 252 0
DWIDTH 8 0
BBX 6 11 1 -5
BITMAP
5560
9A70
9A70
9A70
9A70
0A70
0D60
B8A0
01C0
AF40
5400
ENDCHAR
STARTCHAR hyphen
ENCODING 45
SWIDTH 473 0
DWIDTH 15 0
BBX 13 6 1 10
BITMAP
6AAAAA80
55555540
6AAAAA40
6AAAAA40
15555540
BFFFFF80
ENDCHAR
STARTCHAR period
ENCODING 46
SWIDTH 255 0
DWIDTH 8 0
BBX 6 6 1 0
BITMAP
6AA0
6A90
5550
AAA0
0000
BFF0
ENDCHAR
STARTCHAR slash
ENCODING 47
SWIDTH 447 0
DWIDTH 14 0
BBX 14 29 0 -3
BITMAP
00018990
00029C90
000258C0
00032980
00073680
000A7340
00096300
000C9600
001CDA00
0029CD00
00258C00
00325800
00736800
00A73400
00963000
00C96000
01CDA000
029CD000
0258C000
03258000
07368000
0A734000
09630000
0C960000
1CDA0000
29CD0000
258C0000
32580000
73680000
ENDCHAR
STARTCHAR zero
ENCODING 48
SWIDTH 843 0
DWIDTH 27 0
BBX 25 28 1 -1
BITMAP
00006BFE400000
0007E516F40000
002D1AA91E0000
00E1F95BD2D000
038B455478B000
0A287EAF4A2800
1CA2D041E28D00
29CA1FFD28DA00
329C74074DA300
6329C000DA3240
A7328000A32680
9A734000736980
D96300003259C0
D96700003658C0
D96700003658C0
D96300003659C0
9A7300003369C0
A6324000632580
6325C000D63240
325CB4078D6300
29CA1FBE28D600
1CA29151A28D00
0A38BAAB8B2800
034E46A46C7000
01E2E556E2D000
00791AE91B4000
000B9405B80000
00006FFE400000
ENDCHAR
STARTCHAR one
ENCODING 49
SWIDTH 426 0
DWIDTH 14 0
BBX 12 26 1 0
BITMAP
FFFFFD
555554
AAAAA8
AAAAA8
555554
ABFEED
0258CD
0258CD
0258CD
0258CD
0258CD
0258CD
0258CD
0258CD
0258CD
0258CD
0258CD
0258CD
0258CD
0258CD
0258CD
0258CD
0258CD
0258CD
0258CD
0258CD
ENDCHAR
STARTCHAR two
ENCODING 50
SWIDTH 583 0
DWIDTH 19 0
BBX 17 27 1 0
BITMAP
5AFFE40000
E9515B8000
16AA90B400
BA95AE1D00
015542C700
3FAAF4A340
10551E3680
2FFFD32580
1400736580
0000732580
0000963240
00018DA300
000725CA00
000D635C00
0029CA3400
00635CA000
01CA35C000
035CA34000
0A768A0000
18D7280000
2189600000
6AAAAAA900
6AAAAAA900
5555555500
AAAAAAA900
0000000000
BFFFFFFD00
ENDCHAR
STARTCHAR three
ENCODING 51
SWIDTH 612 0
DWIDTH 20 0
BBX 18 28 1 -1
BITMAP
5ABFE90000
E9545B9000
05AAA47400
BE956E5D00
015551D740
6FAAB97580
10050B68C0
1BFFE28C90
140028CD90
000018C9A0
00AAA98D90
00555B98D0
00AA50B5C0
00AAAE1E40
005542D740
00AAF87680
00000B58C0
00FFE28C90
000028CDA0
100028CDA0
2FEAF58C90
1055475CD0
7EAABD35C0
015A91D340
BA556F4E00
16ABA47800
E5401BD000
6BFFF90000
ENDCHAR
STARTCHAR four
ENCODING 52
SWIDTH 622 0
DWIDTH 20 0
BBX 18 26 1 0
BITMAP
000328C600
000A368D00
000DA35C00
0028D72400
0035CD7000
00735CA000
00D725C000
01C9728000
025CA34000
0729CA0000
0A728D0000
1CA35C3240
28DA343240
328D703240
A35CA03240
5514501140
FFFFFFFFF0
0000000000
FFFFFFFFF0
5555555550
AAAAAAAAA0
6AAAAAAAA0
0000003240
0000003240
0000003240
0000003240
ENDCHAR
STARTCHAR five
ENCODING 53
SWIDTH 691 0
DWIDTH 22 0
BBX 21 27 1 -1
BITMAP
7FFFFFFFE000
155555555000
2AAAAAAAA000
2AAAAAAA9000
155555555000
7BBEAAAAA000
732400000000
732400000000
732404000000
7327FFE40000
7324001B4000
7326FF91E000
7325416D3800
7326AA475C00
732555B5CA00
7325A91CA700
221656CA7300
000000963340
000000D63340
002FAF896300
018154689600
04BAAAE28900
1E45A90B2C00
D2E955B87400
791ABA46D000
0BA4016E0000
006FFF900000
ENDCHAR
STARTCHAR six
ENCODING 54
SWIDTH 781 0
DWIDTH 25 0
BBX 23 28 1 -1
BITMAP
0001AFFA4000
001F9456F800
00B45AA91B40
0387E55BE1D0
0A2D15546D00
18A1FAAF8500
358B4140A000
635C7FFE0000
A735D0010000
967340000000
9A632FFF9000
DA6314007D00
DA631BFE4740
DA632505B5D0
DA631AA91D70
DA633956D724
DA6306A47258
DA633A5B258C
9A73400259CC
9632800369CC
6328BEBE358C
328A4551A358
28E2EAAF8A34
0D3916A468A0
074BA55AD2C0
01E46AA91B00
002E5005B800
0001BFFE4000
ENDCHAR
STARTCHAR seven
ENCODING 55
SWIDTH 631 0
DWIDTH 20 0
BBX 19 26 1 0
BITMAP
FFFFD96324
55554DA734
AAAA9CDA70
AAAA58C960
5555658C90
AAAA769CD0
00007369C0
0000632580
0000963240
0000DA7340
0000CDA700
00018C9600
000258C900
000369CD00
0003369C00
0006325800
000A732400
000DA73400
000C967000
0018C96000
0029CC9000
00369CD000
003259C000
0063258000
00A7368000
00DA734000
ENDCHAR
STARTCHAR eight
ENCODING 56
SWIDTH 808 0
DWIDTH 26 0
BBX 24 28 1 -1
BITMAP
0006FFFF9000
00B94005BD00
0291AAAA4780
0A2E9556F4A0
28A45A951E34
728BEAABD35C
A72D155075C9
9631FFFF5C96
DA634001CDA6
DA634000C9A7
9631FFFE9896
A3291555BD8A
328BAAA9478D
28A45AAAF4A4
1E2E95551E28
7791AAABD35C
A2B9400075C9
9626FFFF5C96
DA630001CDA6
DA634001C9A6
9631EAAB4C96
A729155428CA
728BAAAAE28D
28A06AA90A28
0E2E5555B8B0
0381AFFA42C0
00B940006E00
000AFFFFE400
ENDCHAR
STARTCHAR nine
ENCODING 57
SWIDTH 782 0
DWIDTH 25 0
BBX 23 28 1 -1
BITMAP
0006BFE90000
007E505BD000
02D16A946900
0A1F956F4B40
28B45551A1C0
7287EABD2CA0
A72D05068A30
DA71FFF4A324
C9A7401A3258
CDA700072698
C9639577259C
96346A93659C
635E5167659C
34D1BF93659C
1D294053659C
0786FFE3659C
01B40013659C
001BEBF3259C
000015073698
0000001E7258
0002FAF4A324
002815468A30
005BAABE2CA0
01E06A51B1C0
1D2E956B8740
0781ABA46D00
00B94016E000
0006FFF90000
ENDCHAR
STARTCHAR colon
ENCODING 58
SWIDTH 262 0
DWIDTH 8 0
BBX 6 15 1 4
BITMAP
BFF0
0000
BFF0
1550
6AA0
6AA0
0000
0000
0000
BFF0
0000
BFF0
1550
6AA0
6AA0
ENDCHAR
STARTCHAR semicolon
ENCODING 59
SWIDTH 261 0
DWIDTH 8 0
BBX 6 19 1 0
BITMAP
BFF0
0000
BFF0
1550
6AA0
6AA0
0000
0000
0000
A630
A630
A630
A630
5630
0630
6D70
64A0
16C0
B900
ENDCHAR
STARTCHAR less
ENCODING 60
SWIDTH 670 0
DWIDTH 21 0
BBX 20 24 1 1
BITMAP
0000000005
00000001B8
0000001F90
000006E46D
00007E06E4
001B91B919
01F81F91B8
6E46E46E44
A07E06E46D
1B91B91B90
B81F91B900
46E46E4000
7E06E54000
91B942F400
1F91B91B90
F4791B90BC
7E06E46E44
06E46E46F4
001F91B919
0001B91B90
000006E46D
0000006E44
00000001B8
0000000019
ENDCHAR
STARTCHAR equal
ENCODING 61
SWIDTH 473 0
DWIDTH 15 0
BBX 13 15 1 4
BITMAP
BFFFFF80
00000000
BFFFFF80
15555540
6AAAAA80
55555540
00000000
00000000
00000000
BFFFFF80
00000000
BFFFFF80
15555540
6AAAAA80
55555540
ENDCHAR
STARTCHAR greater
ENCODING 62
SWIDTH 670 0
DWIDTH 21 0
BBX 20 24 1 1
BITMAP
5000000000
7D00000000
06E4000000
A42F400000
1B91B90000
90BD0BD000
6E46E46E40
46E42F42F8
B91B91B82D
1B91BD06E4
006E457E45
00065B91B9
0001F81B90
006E46E46D
07E07E46E4
B91B91B909
41F81B91B8
6E46E46E40
A06E46E400
1B91B90000
B81B900000
46E4000000
7E40000000
9000000000
ENDCHAR
STARTCHAR question
ENCODING 63
SWIDTH 693 0
DWIDTH 22 0
BBX 21 27 1 0
BITMAP
006BFE900000
07E545BD0000
7916AA468000
D1FA56F4B000
1E45551A2800
04BEABD28D00
01905068D600
002FFF4D6300
000001D67340
000000963340
001115DA7300
0A736A4DA700
0A7301B4DA00
0A737F924D00
0A73006D2800
0A737FE4A000
0A73100B8000
0A736AF90000
0A7315400000
0A7300000000
001100000000
0AAA40000000
055540000000
055540000000
0AAA80000000
000000000000
0FFF80000000
ENDCHAR
STARTCHAR at
ENCODING 64
SWIDTH 1076 0
DWIDTH 34 0
BBX 33 31 1 -3
BITMAP
000001BFFE90000000
00006E5005BD000000
0002E06BE946D00000
001E1BE556F4780000
0074B816A41B4A0000
01D386EAABD1E28000
034E2E00006D28A000
0A38A00140078A3400
1CA2807FFE40D35800
25CA03D006E035CD00
729C0E1BF9281CD600
A36828B55B890D6300
97347286A4D7067340
D670A72E6D73063240
CA6096340633473640
CA609A700633473640
C67096340633473640
D630A31EA633473640
932432D15633473640
625C187AA735ED7240
358D0B45536854A300
28D741F9528B9B8A00
1D71D016A0E1A92C00
0B2C7800002D45B400
028B4BA55506FE4000
00E1E06AAA00000000
003D2E541500000000
000B81BFFE00000000
0001B9000000000000
00001BFFFF40000000
000000055000000000
ENDCHAR
STARTCHAR A
ENCODING 65
SWIDTH 936 0
DWIDTH 30 0
BBX 30 26 0 0
BITMAP
0000072589000000
00000B9CD6000000
00001DCD63000000
000028D632800000
000035A329C00000
000073725CD00000
00009725CD600000
0001C95CD6300000
00028C9DA3280000
000368CA329C0000
0007368725CD0000
000973665CD60000
000C9735CDA30000
0028CA70DA328000
00368CA0A325C000
007358C0325CD000
0097358025CDA000
00C9736A98DA3000
028CA7154DA32400
0358CA555A725C00
07358DAAA725CD00
0A7358555258DA00
0CA737FFFD8DA300
18CA700000DA3240
358CA00000A725C0
7358D000007258D0
ENDCHAR
STARTCHAR B
ENCODING 66
SWIDTH 862 0
DWIDTH 28 0
BBX 26 26 1 0
BITMAP
7FFFFFFFE90000
A55555555B9000
A6AAAAAA94B400
A7AAAAAAAE1D00
A615555552D700
A63AAAAAB87280
A63000000B28C0
A632FFFFE28C90
A632400029CD90
A632400018CD90
A6326AAAB58C90
A6326AAA9358C0
A63255556E3680
A6326AAABD7240
A63240000769C0
A6327FFFF58CD0
A632400029CD90
A632400029CD90
A6327FFFF58C90
A63255554768C0
A6326AAABD7680
A6326AAA51D740
A63255556B4E00
A6326AAAA47800
A632400016D000
A6327FFFF90000
ENDCHAR
STARTCHAR C
ENCODING 67
SWIDTH 852 0
DWIDTH 27 0
BBX 26 28 1 -1
BITMAP
00001AFFA40000
0001F9416E4000
001B45AA51E000
00787E96B92D00
01D2D155078740
075E1FAAE4B1C0
0D74B4141E2C50
1CE386FF928900
35CA2D0078A000
735CA0000A0000
A735C000010000
DA734000000000
C9670000000000
CDA60000000000
CDA60000000000
C9A70000000000
DA734000000000
97358000010000
6368A0000A0000
368A290078A000
18D387EBD2C900
0D74A4551E1C40
075D2FAAF4B5D0
01D791A9478740
0074BE55BD1D00
001E46BE91B400
0001E5006F4000
00001BFFE40000
ENDCHAR
STARTCHAR D
ENCODING 68
SWIDTH 886 0
DWIDTH 28 0
BBX 27 26 1 0
BITMAP
7FFFFFFEA40000
A55555556E4000
A6AAAAAA42D000
A7AAAAAAB87800
A61555550B5D00
A63AAAABE1D700
A63000002D7280
A632FFFF8B28D0
A6324000A28CA0
A632400029C970
A63240001CD630
A63240000DA734
A6324000096334
A6324000096334
A63240000DA734
A63240001C9630
A632400028CA70
A6324000B28DA0
A632FFFF8728D0
A63155541D7680
A63AAAAAE5D740
A62AAAA5474D00
A7555555BD3800
A6AAAAAA91E000
A00000016E4000
BFFFFFFFE40000
ENDCHAR
STARTCHAR E
ENCODING 69
SWIDTH 706 0
DWIDTH 23 0
BBX 21 26 1 0
BITMAP
6632FFFFFF40
A63255555500
A632AAAAAA40
A632AAAAAA00
A63295555500
A632EAAAAA40
A63240000000
A63240000000
A63240000000
A63240000000
A632EAA40000
A63295540000
A632AAA40000
A632AAA40000
A63255500000
A632FFF40000
A63240000000
A63240000000
A63240000000
A63240000000
A632AAAAAA40
A632AAAAAA00
A63295555500
A632EAAAAA40
A63240000000
A632FFFFFF40
ENDCHAR
STARTCHAR F
ENCODING 70
SWIDTH 683 0
DWIDTH 22 0
BBX 20 26 1 0
BITMAP
6632FFFFFE
A632555554
A632AAAAA9
A632AAAAA9
A632955555
A632EAAAA9
A632400000
A632400000
A632400000
A632400000
A632400000
A632AAAAA8
A632AAAAA8
A632955554
A632EAAAA8
A632400000
A632FFFFFC
A632400000
A632400000
A632400000
A632400000
A632400000
A632400000
A632400000
A632400000
A632400000
ENDCHAR
STARTCHAR G
ENCODING 71
SWIDTH 908 0
DWIDTH 29 0
BBX 27 28 1 -1
BITMAP
00001AFFA40000
0001F9416E4000
001B45AA51E000
00787E96B92D00
01D2D155078740
075E1FAAE4B1C0
0D74B4141E2C50
1CE386FF928900
35CA2D0078A000
735CA0000A0000
A735C000010000
DA734000000000
C9670000000000
CDA60000021154
CDA60000033698
C9670000033698
DA630000033698
96328000033698
6328D000033698
328D79001B3698
28D74BEBFB3698
0D75E055073698
071D2EAABF3698
02C781AA433698
00B4BA556F3698
001E46BE973698
0002E5005B3698
00001BFFE40000
ENDCHAR
STARTCHAR H
ENCODING 72
SWIDTH 901 0
DWIDTH 29 0
BBX 27 26 1 0
BITMAP
66324000066324
A63240000A6324
A63240000A6324
A63240000A6324
A63240000A6324
A63240000A6324
A63240000A6324
A63240000A6324
A63240000A6324
A63240000A6324
A632EAAAAE6324
A63295555A6324
A632AAAAAA6324
A632AAAAAA6324
A63295555A6324
A632FFFFFE6324
A63240000A6324
A63240000A6324
A63240000A6324
A63240000A6324
A63240000A6324
A63240000A6324
A63240000A6324
A63240000A6324
A63240000A6324
A63240000A6324
ENDCHAR
STARTCHAR I
ENCODING 73
SWIDTH 338 0
DWIDTH 11 0
BBX 9 26 1 0
BITMAP
663240
A63240
A63240
A63240
A63240
A63240
A63240
A63240
A63240
A63240
A63240
A63240
A63240
A63240
A63240
A63240
A63240
A63240
A63240
A63240
A63240
A63240
A63240
A63240
A63240
A63240
ENDCHAR
STARTCHAR J
ENCODING 74
SWIDTH 434 0
DWIDTH 14 0
BBX 13 27 0 -1
BITMAP
00632640
00633640
00633640
00633640
00633640
00633640
00633640
00633640
00633640
00633640
00633640
00633640
00633640
00633640
00633640
00633640
00633640
00673640
00D63240
6B8D6300
1528D600
2AE28D00
2A4B2C00
15B87400
7E92D000
006E0000
7FE40000
ENDCHAR
STARTCHAR K
ENCODING 75
SWIDTH 815 0
DWIDTH 26 0
BBX 24 26 1 0
BITMAP
663240028CA3
A632400328DA
A632400A368D
A632400CA368
A6324028CA34
A63240328CA0
A63240A328C0
A63241CA3280
A632428CA300
A6324728CA00
A6324A728C00
A6325CA72800
A63269CA7000
A63265CA7000
A6325C972800
A63249729C00
A6324729CA00
A632429CA700
A63241CA7280
A63240A729C0
A63240729CA0
A6324029CA30
A632401CA328
A632400A328C
A632400728CA
A63240028CA3
ENDCHAR
STARTCHAR L
ENCODING 76
SWIDTH 604 0
DWIDTH 19 0
BBX 18 26 1 0
BITMAP
6632400000
A632400000
A632400000
A632400000
A632400000
A632400000
A632400000
A632400000
A632400000
A632400000
A632400000
A632400000
A632400000
A632400000
A632400000
A632400000
A632400000
A632400000
A632400000
A632400000
A632AAAA90
A632AAAA80
A632955540
A632EAAA90
A632400000
A632FFFFD0
ENDCHAR
STARTCHAR M
ENCODING 77
SWIDTH 920 0
DWIDTH 29 0
BBX 27 26 1 0
BITMAP
625C000000A31C
B5CA000000CA3C
BCA70000028CBC
A97280000728DC
A728C0000A729C
A29CA0001CA31C
A5CA340025CA5C
A5A36800729D9C
A6328D00D7299C
A628DA01C9719C
A61DA3435C959C
A62A358635D59C
A63358D972659C
A6328D74D7259C
A630D6358D259C
A631635D5D659C
A63275CD37659C
A6325CD7A3659C
A6324D72D3659C
A632411043659C
A632400003659C
A632400003659C
A632400003659C
A632400003659C
A632400003659C
A632400003659C
ENDCHAR
STARTCHAR N
ENCODING 78
SWIDTH 877 0
DWIDTH 28 0
BBX 26 26 1 0
BITMAP
7289600018C960
B8D7280018C9A0
AD729D0018C9A0
A725DA0018C9A0
A35CA34018C9A0
A5CA35C018C9A0
A5A35CA018C9A0
A635CA3418C9A0
A61CA35818C9A0
A61A368D18C9A0
A63768D718C9A0
A6328D7298C9A0
A630D728D8C9A0
A632728D70C9A0
A63268D728C9A0
A6324D729DC9A0
A6324625CA49A0
A632435CA349A0
A63241CA35C9A0
A63240A35CA9A0
A6324035CA35A0
A632401CA368A0
A632400A768DA0
A632400728D7A0
A63240028D72E0
A6324000D728E0
ENDCHAR
STARTCHAR O
ENCODING 79
SWIDTH 933 0
DWIDTH 30 0
BBX 28 28 1 -1
BITMAP
00001AFFA40000
0001F9416E4000
001B45AA51E000
00787E96B92D00
01D2D155078740
075E1FAAE4B1C0
0D74B4141E2CA0
1CE386FF928A34
35CA2D0078A358
735CA0000A358D
A735C0000358DA
DA734000018C96
C967000000C9A7
CDA6000000D963
CDA6000000D963
C9A7000000C9A7
DA734000018D96
97358000035CDA
6368A0000A35CD
368A290078A35C
18D387EBD2CA34
0D74A4551E1CA0
075D2FAAF4B5D0
01D791A947D740
0074BE55BD1D00
001E46BE91F400
0001E5006F4000
00001BFFE40000
ENDCHAR
STARTCHAR P
ENCODING 80
SWIDTH 850 0
DWIDTH 27 0
BBX 26 26 1 0
BITMAP
7FFFFFFFA40000
A55555555B4000
A6AAAAAA91E000
A7AAAAAAAD2800
A6155555478A00
A63AAAAAF4A340
A63000001D3280
A632FFFFD769C0
A63240007698C0
A6324000259CD0
A6324000269CC0
A6325AAAB258C0
A6325AAA873580
A63255556D7240
A6326FFFA1D700
A63240001B5D00
A6326FFFF87800
A632400006D000
A6326AAABE0000
A6325555500000
A6324000000000
A6324000000000
A6324000000000
A6324000000000
A6324000000000
A6324000000000
ENDCHAR
STARTCHAR Q
ENCODING 81
SWIDTH 937 0
DWIDTH 30 0
BBX 28 31 1 -4
BITMAP
00001AFFA40000
0001F9416E4000
001B45AA51E000
00787E96B92D00
01D2D155078740
075E1FAAE4B1C0
0D74B4141E2CA0
1CE386FF928A34
35CA2D0078A358
735CA0000A358D
A735C0000358DA
DA734000018C96
C967000000C9A7
CDA6000000D963
CDA6000000D963
C9A7000034C9A7
DA734002598D96
97358025C75CDA
6368A0189A35CD
368A290878A35C
18D387EBD2CA34
0D74A4551E1CA0
075D2FAAF4B5D0
01D791A947D740
0074BE55BD1D00
001E46BE91F680
0001E5006F55C0
00001BFFE55CA0
0000000001CA00
0000000000A000
00000000001000
ENDCHAR
STARTCHAR R
ENCODING 82
SWIDTH 843 0
DWIDTH 27 0
BBX 25 26 1 0
BITMAP
7FFFFFFFA40000
A55555555B4000
A6AAAAAA91E000
A7AAAAAAAD2800
A6155555478A00
A63AAAAAF4E300
A63000001D3280
A632FFFFD729C0
A63240007258C0
A63240003698C0
A63240007259C0
A6327FFFD72580
A63240001D7280
A6327FFFF4D740
A6325555478E00
A6326AAABD2800
A6326AA951E000
A63255556F8000
A6326ABFE9C000
A63240299CD000
A632401CCDA000
A632400C9A7000
A6324009673400
A6324006336800
A6324003269C00
A632400258CD00
ENDCHAR
STARTCHAR S
ENCODING 83
SWIDTH 682 0
DWIDTH 22 0
BBX 20 28 1 -1
BITMAP
000AFFA400
00B9516B90
0781AA9078
1D2E95AE4A
38E05541E0
728BAAB910
A728150640
DA72FFF400
C9A3001000
C9A7000000
DA72FEA400
9634556E40
635FAA42D0
35D16AB870
1D7A550A28
0B46AAE28C
01E50028C9
001BFF5C9A
000001CD96
000001CDA6
002FAB4C96
01815428C9
04BAAAE28C
1E45A90A28
92F955B8B0
791ABA92D0
0BA4006E00
006FFFA400
ENDCHAR
STARTCHAR T
ENCODING 84
SWIDTH 591 0
DWIDTH 19 0
BBX 17 26 1 0
BITMAP
FFFFFFFF80
5555555540
AAAAAAAA80
AAAAAAAA40
5555555540
AAFBBBEA80
00A6324000
00A6324000
00A6324000
00A6324000
00A6324000
00A6324000
00A6324000
00A6324000
00A6324000
00A6324000
00A6324000
00A6324000
00A6324000
00A6324000
00A6324000
00A6324000
00A6324000
00A6324000
00A6324000
00A6324000
ENDCHAR
STARTCHAR U
ENCODING 85
SWIDTH 905 0
DWIDTH 29 0
BBX 27 27 1 -1
BITMAP
96630000063264
96734000063268
96734000063268
96734000063268
96734000063268
96734000063268
96734000063268
96734000063268
96734000063268
96734000063268
96734000063268
96734000063268
96734000063268
96734000063268
96734000063368
A6334000063364
A7368000096324
7368D0002C9634
368D7800B1C970
28D74BEF875C90
0D71E0542D75C0
0B2D6EAAE1D340
028781A90B4E00
00B1B955B87800
002E06BA42D000
0006E5016E0000
00006BFF900000
ENDCHAR
STARTCHAR V
ENCODING 86
SWIDTH 940 0
DWIDTH 30 0
BBX 30 26 0 0
BITMAP
6258900000325890
358DA000006329C0
18CA700000D63280
0CA7240001CD6340
0A735800029CD600
07358C000329C900
0358CA0006329C00
028CA7000D636800
00CA73401CD63400
0097358029C96000
007358C0329C9000
00368CA06369C000
0028CA70D6368000
000C9735C9634000
000973569C960000
0007368769C90000
000368C6369C0000
00028C9963680000
0000C95C96340000
00009729C9700000
000073369C900000
0000356368C00000
0000289636800000
00001DC973400000
00000B9C97000000
00000768C9000000
ENDCHAR
STARTCHAR W
ENCODING 87
SWIDTH 1161 0
DWIDTH 37 0
BBX 37 26 0 0
BITMAP
62658009632800963240
3698C00C963C00C96300
258C901CDA7D01CDA700
18C96029CDA9029CDA00
1CDA70258C960258CD00
0DA7343258E303258C00
0A63246325F346325800
063258A736B68A736800
03258CDA7365CDA73400
0369CDC96358DC963000
029CD58C978CB8C96000
018C9258CACD758C9000
00C96369CDDA369CD000
009677369CA77369C000
00A726325D63A3258000
007359632E32D6324000
00324D963735D9634000
00259CDA7369CDA70000
0028A9CDA29E9CDA0000
001C658C918F58C90000
000D3258C0CB258C0000
00097369C0D7369C0000
0006A73680AA73680000
0007DA73407DA7340000
0003C963003C96300000
00028C960028C9600000
ENDCHAR
STARTCHAR X
ENCODING 88
SWIDTH 876 0
DWIDTH 28 0
BBX 28 26 0 0
BITMAP
7289700028D628
28D72800728D70
0D728D00D728D0
0728D7028D7280
028D728728D700
00D629CA758900
00A35C5CA35800
0035CA35CA3400
001CA1A35CA000
000A35CA35C000
0003575CA34000
0001CA35CA0000
00009CA35C0000
000035CA360000
0000625DA34000
0000D729D5C000
00028D729CA000
000728D74A3400
000D728DA35C00
0028D72935CA00
00728D7358A740
00D728D2897680
028D7280D728D0
07689740728D70
0A35CA0028D728
1CA35C000D728D
ENDCHAR
STARTCHAR Y
ENCODING 89
SWIDTH 789 0
DWIDTH 25 0
BBX 25 26 0 0
BITMAP
62258000622640
269CC0009A6300
18C9A0018C9A00
0DA6300269CC00
06336807326800
03698C09673000
018CDA1CD96000
00D963259CD000
00673673658000
003258A6334000
0029CDCDA60000
000C9698C90000
000A7326980000
00032A73240000
00024C96700000
0000E9CC900000
0000B659C00000
00006326800000
00006326800000
00006326800000
00006326800000
00006326800000
00006326800000
00006326800000
00006326800000
00006326800000
ENDCHAR
STARTCHAR Z
ENCODING 90
SWIDTH 854 0
DWIDTH 27 0
BBX 25 26 1 0
BITMAP
BFFFFFFFFFFFC0
55555555555780
6AAAAAAAA92D00
6AAAAAAAA5A5C0
55555555074B40
AAAAAAA8697840
00000001E2D2C0
BFFFFE0A5A1E00
00000078B4B480
00000296878780
00001E1D2D2D00
0000B5A5E1E000
0007874B4B4000
002D2969780000
01E1E2D2D00000
0B4A5A5E000000
787874B4000000
92D69780000000
1E1E2D1BFFFFC0
B5A5E015555540
478B46AAAAAA80
2D681AAAAAAA80
A2D15555555540
1A0AAAAAAAAA80
78000000000000
BFFFFFFFFFFFC0
ENDCHAR
STARTCHAR bracketleft
ENCODING 91
SWIDTH 320 0
DWIDTH 10 0
BBX 9 30 1 -3
BITMAP
BFFF40
A00000
A6AA40
A75500
A72A40
A73A40
A73000
A73000
A73000
A73000
A73000
A73000
A73000
A73000
A73000
A73000
A73000
A73000
A73000
A73000
A73000
A73000
A73000
A73500
A72A40
A70000
A7FF40
A00000
BFFF40
155500
ENDCHAR
STARTCHAR backslash
ENCODING 92
SWIDTH 448 0
DWIDTH 14 0
BBX 14 29 0 -3
BITMAP
62580000
369C0000
258C0000
18C90000
1CDA0000
0DA70000
09630000
06324000
07368000
0369C000
0258C000
018C9000
01CDA000
00DA7000
00963000
00632400
00736800
00369C00
00258C00
0018C900
001CDA00
000DA700
00096300
00063240
00073680
000369C0
000258C0
00018C90
0001CDA0
ENDCHAR
STARTCHAR bracketright
ENCODING 93
SWIDTH 319 0
DWIDTH 10 0
BBX 8 30 1 -3
BITMAP
FFFE
0006
AA96
55A6
A8A6
ADA6
09A6
09A6
09A6
09A6
09A6
09A6
09A6
09A6
09A6
09A6
09A6
09A6
09A6
09A6
09A6
09A6
09A6
5DA6
A9A6
00A6
FFE6
0006
FFFE
5555
ENDCHAR
STARTCHAR asciicircum
ENCODING 94
SWIDTH 475 0
DWIDTH 15 0
BBX 13 13 1 10
BITMAP
00214000
00B58000
00E8D000
018DA000
024A7000
03272400
0A335800
0DA18D00
1CD0CA00
25C0A700
32407340
A3003580
960018C0
ENDCHAR
STARTCHAR underscore
ENCODING 95
SWIDTH 511 0
DWIDTH 16 0
BBX 14 6 1 -6
BITMAP
BFFFFFF0
00000000
6AAAAAA0
55555550
6AAAAA90
6AAAAAA0
ENDCHAR
STARTCHAR grave
ENCODING 96
SWIDTH 472 0
DWIDTH 15 0
BBX 13 7 1 23
BITMAP
0F400000
51F40000
7D1F4000
07D1B400
007D1B40
0007D140
00006800
ENDCHAR
STARTCHAR a
ENCODING 97
SWIDTH 832 0
DWIDTH 27 0
BBX 25 24 1 -1
BITMAP
0001BFFE400000
001F9005B40000
00B46BE91E0000
0287E55BD2C000
0A2D1A9478A000
1CB5FAAF4A2800
35C74551E39C00
735D7EBD35CA00
9735E0075C9600
DA734001C96300
C9A70000967300
CDA60000A63340
CDA70000A63240
C9630000A63240
9A328000A63240
A328E405A63240
328D2FF9A63240
28D79005A63240
0D747FFDA63240
074A4141A63240
01E1BAADA63240
002D0550A63240
0006E96AA63240
00001A94000000
ENDCHAR
STARTCHAR b
ENCODING 98
SWIDTH 720 0
DWIDTH 23 0
BBX 21 23 1 0
BITMAP
6AAAAA950000
BAAAAAABD000
A15555547800
A7FFFFFF4A00
A6000001E340
A63FFFFD3680
A63400076980
A630000259C0
A631555769C0
A637FFF93680
A6300001D340
A637FFFF8A00
A6300006D700
A636AAA87280
A631555B2580
A630000259C0
A630000369C0
A636AAAE2580
A6315554B240
A631556B8700
A636AAA91D00
A6315555F400
A633FFFA4000
ENDCHAR
STARTCHAR c
ENCODING 99
SWIDTH 736 0
DWIDTH 24 0
BBX 22 25 1 -1
BITMAP
000016A50000
0002FAABD000
002E45507900
00A0BEBE4740
038B9001E5D0
0A286FF92D50
1CA1E4078600
35CB4AE4B000
735C795E1000
A735D0024000
DA7340000000
C9A700000000
CDA600000000
C9A600000000
C96300000000
963280010000
6328E0074000
328D2EBD2000
28D78151E100
0D74BAAF4A00
071E069478A0
01D2E55BD280
00781AE91E00
000B9405F400
00006FFE4000
ENDCHAR
STARTCHAR d
ENCODING 100
SWIDTH 833 0
DWIDTH 27 0
BBX 25 23 1 0
BITMAP
6AAAAA95000000
BAAAAAABE40000
A15555502E0000
A7FFFFFF928000
A6000001B8B000
A63FFFFE5E2800
A6340006D38D00
A632AAA975DA00
A632955B5CA300
A6324001CA7240
A6324000973680
A6324000A73680
A6324000A73680
A6324000D63240
A63240028D7340
A632FFFE289700
A6315550B2C900
A63AAAAB875C00
A62AAA942D7400
A7555556E1D000
A6AAAAA94B4000
A0000005B80000
BFFFFFFE500000
ENDCHAR
STARTCHAR e
ENCODING 101
SWIDTH 666 0
DWIDTH 21 0
BBX 19 23 1 0
BITMAP
5121AAAAA8
A632AAAAA8
A632555554
A632FFFFFC
A632400000
A632FFFFFC
A632400000
A632400000
A632400000
A632FFFFF4
A632400000
A632EAAAA4
A632955550
A632AAAAA4
A632AAAAA4
A632400000
A632400000
A632AAAAA8
A632AAAAA8
A632955554
A632EAAAA8
A632400000
A632FFFFFC
ENDCHAR
STARTCHAR f
ENCODING 102
SWIDTH 625 0
DWIDTH 20 0
BBX 18 23 1 0
BITMAP
5121AAAA90
A632AAAAA0
A632555550
A632FFFFE0
A632400000
A632FFFFF0
A632400000
A632400000
A632400000
A632955540
A632AAAA80
A632555540
A632FFFFD0
A632400000
A632FFFFD0
A632555540
A632400000
A632400000
A632400000
A632400000
A632400000
A632400000
A632400000
ENDCHAR
STARTCHAR g
ENCODING 103
SWIDTH 827 0
DWIDTH 26 0
BBX 24 25 1 -1
BITMAP
000016A50000
0002FAABD000
002E45507900
00A0BEBE4740
038B9001E5D0
0A286FF92D50
1CA1E4078600
35CB4AE4B000
735C795E1000
A735D0024000
DA7340000000
C9A700000000
CDA600004511
C9A600009673
C96300009673
963280009673
6328E002D673
328D2EBE9673
28D78151D673
0D74BAABD673
071E06949673
01D2E55BD673
00781AE99673
000B9406D673
00006FFE4000
ENDCHAR
STARTCHAR h
ENCODING 104
SWIDTH 830 0
DWIDTH 27 0
BBX 24 23 1 0
BITMAP
512100005512
A63240009A73
A63240009A73
A63240009A73
A63240009A73
A63240009A73
A63240009A73
A63240009A73
A632AAAADA73
A632AAAADA73
A6329555DA73
A632EAAADA73
A63240009A73
A632FFFFDA73
A63240009A73
A63240009A73
A63240009A73
A63240009A73
A63240009A73
A63240009A73
A63240009A73
A63240009A73
A63240009A73
ENDCHAR
STARTCHAR i
ENCODING 105
SWIDTH 337 0
DWIDTH 11 0
BBX 9 23 1 0
BITMAP
512100
A63240
A63240
A63240
A63240
A63240
A63240
A63240
A63240
A63240
A63240
A63240
A63240
A63240
A63240
A63240
A63240
A63240
A63240
A63240
A63240
A63240
A63240
ENDCHAR
STARTCHAR j
ENCODING 106
SWIDTH 393 0
DWIDTH 13 0
BBX 12 27 0 -4
BITMAP
015444
0259CD
0259CD
0259CD
0259CD
0259CD
0259CD
0259CD
0259CD
0259CD
0259CD
0259CD
0259CD
0259CD
0259CD
0259CD
0259CC
07298C
2D369C
14E368
1B8A34
6928A0
06E280
7E4B00
01B800
7F9000
140000
ENDCHAR
STARTCHAR k
ENCODING 107
SWIDTH 801 0
DWIDTH 26 0
BBX 24 23 1 0
BITMAP
512100014451
A632400729CA
A6324009725C
A632401CD724
A6324035CD70
A632406358D0
A63240DA3580
A632428DA340
A6324328DA00
A6324A728C00
A6325CA72800
A63265CA7000
A63268DA3400
A6324DA36800
A6324A358D00
A6324358D700
A63241CD7340
A63240D725C0
A63240725CA0
A6324029CA70
A632401CA328
A632400A328D
A632400368DA
ENDCHAR
STARTCHAR l
ENCODING 108
SWIDTH 583 0
DWIDTH 19 0
BBX 17 23 1 0
BITMAP
5121000000
A632400000
A632400000
A632400000
A632400000
A632400000
A632400000
A632400000
A632400000
A632400000
A632400000
A632400000
A632400000
A632400000
A632400000
A632400000
A632400000
A632AAAA40
A632AAAA40
A632955540
A632EAAA40
A632400000
A632FFFF80
ENDCHAR
STARTCHAR m
ENCODING 109
SWIDTH 1167 0
DWIDTH 37 0
BBX 35 24 1 0
BITMAP
00006A900016A50000
001BAABE46FAABE000
00B41542EE05506D00
0786FAF97DBEBF8740
0E2D00078B9001B5D0
28E1BFE4A3AFFE1D70
328B506E35E406C734
63286A935CDAE87358
A6329575CCB95A369C
96734018CDA003658C
96730018C9A003698C
96730018C9A003698C
96730018C9A003698C
96730018C9A003698C
96730018C9A003698C
96730018C9A003698C
96730018C9A003698C
96730018C9A003698C
96730018C9A003698C
96730018C9A003698C
96730018C9A003698C
96730018C9A003698C
96730018C9A003698C
96730018C9A003698C
ENDCHAR
STARTCHAR n
ENCODING 110
SWIDTH 787 0
DWIDTH 25 0
BBX 23 23 1 0
BITMAP
514450001154
B5CA34003658
BCA35C003658
AA728D003658
A728D7003658
A28D72803658
A5D728D03658
A6635CA03658
A635CA343658
A61CA35C3658
A61A35C93658
A63728D73658
A6328D72A658
A630D728D258
A630729DA258
A63035CA3658
A6301CA35D58
A6300A35CA58
A6300358D718
A630028D7298
A63000D728E8
A63000728D78
A6300025CA38
ENDCHAR
STARTCHAR o
ENCODING 111
SWIDTH 833 0
DWIDTH 27 0
BBX 25 25 1 -1
BITMAP
00001694000000
0002FAAB900000
002E45507D0000
00A0BEBE474000
038B9001F5D000
0A286FF92D7400
1CA1E407875800
35CB4AE4B28D00
735C795E28D600
A735D0028D6300
DA734000D63240
C9A70000633640
CDA60000632680
C9A60000633680
C9630000A73640
96328001CA7340
6328E0075CA700
328D2EBD35CA00
28D78151E38C00
0D74BAAF4A2800
071E06A478A000
01D2E55BD2C000
00781AE91E0000
000B9406F40000
00006FFE400000
ENDCHAR
STARTCHAR p
ENCODING 112
SWIDTH 781 0
DWIDTH 25 0
BBX 23 23 1 0
BITMAP
6AAAAA950000
BAAAAAAAE400
A15555541E00
A7FFFFFF9780
A6000000B4D0
A63FFFFE5D70
A6340006D724
A632AAA97258
A632955B259C
A6324003259C
A6326FFE3698
A6325554A368
A6325AAB8A34
A6325AA52CB0
A6325556E1D0
A6326AAA4B40
A6324001BD00
A6326FFF9000
A63240000000
A63240000000
A63240000000
A63240000000
A63240000000
ENDCHAR
STARTCHAR q
ENCODING 113
SWIDTH 788 0
DWIDTH 25 0
BBX 23 27 1 -4
BITMAP
00005AAAAAA4
001BAAAAAAA8
00B415555518
0386FFFFFF58
0E2D00000258
28A1BFFFF658
728B50003658
A7286AAA3658
DA72D5573658
C9A300033658
CDA600033658
C9A700033658
D96340033658
9635FFF73658
635D15573658
35C7EAA73658
2C745AA73658
0A1F95573658
02D1AAA73658
007E50073658
0006FFF73658
000000033658
000000033658
000000033658
000000033658
000000033658
000000011144
ENDCHAR
STARTCHAR r
ENCODING 114
SWIDTH 831 0
DWIDTH 27 0
BBX 25 23 1 0
BITMAP
6AAAAAA9500000
BAAAAAAABE0000
A155555542D000
A7FFFFFFF87400
A60000001B5C00
A63FFFFFE1CA00
A63400006CA300
A632AAAA8A3240
A6329555A73680
A6324000A33680
A6327FFFD73240
A63240001D7340
A6326AAAF4D700
A6325555478D00
A6326AAAAD2800
A6326AAA91E000
A63255555B8000
A6327FFFF74000
A6324067368000
A632403269C000
A63240299CD000
A632401CC96000
A632400DA63000
ENDCHAR
STARTCHAR s
ENCODING 115
SWIDTH 683 0
DWIDTH 22 0
BBX 20 24 1 -1
BITMAP
001BFFE500
01E5005B90
0A46AA9478
287A556E4A
72916941E0
972EAABD10
D970000640
C9A0000000
DA75000000
971BFFE900
72D0001B80
286FEAA4B0
0B41556E28
01BAAA528D
0005AAB8DA
0000000DA6
0040000DA6
01E50168D6
1D1BFF9289
4794001A2C
B46FFFE4B4
1E40550790
01BEAAF900
0005654000
ENDCHAR
STARTCHAR t
ENCODING 116
SWIDTH 588 0
DWIDTH 19 0
BBX 17 23 1 0
BITMAP
AAAAAAAA40
AAAAAAAA80
5555555540
FFFFFFFF80
0000000000
FFFFFFFF80
0055114000
00A6324000
00A6324000
00A6324000
00A6324000
00A6324000
00A6324000
00A6324000
00A6324000
00A6324000
00A6324000
00A6324000
00A6324000
00A6324000
00A6324000
00A6324000
00A6324000
ENDCHAR
STARTCHAR u
ENCODING 117
SWIDTH 795 0
DWIDTH 25 0
BBX 23 24 1 -1
BITMAP
551100015448
9673000269CC
9673000269CC
9673000269CC
9673000269CC
9673000269CC
9673000269CC
9673000269CC
9673000269CC
9673000269CC
9673000269CC
9673000269CC
9673000269CC
96734003698C
A6328007258C
6328E01D7258
329D7EF4A724
29D745478A30
1D75FAAE28A0
0B1D1A91E2C0
0287E55B8B00
00B46BA46800
001F9016E000
0001BFF90000
ENDCHAR
STARTCHAR v
ENCODING 118
SWIDTH 855 0
DWIDTH 27 0
BBX 27 23 0 0
BITMAP
51144000051114
369C90000DA724
29C9600018DA30
1CD63400258DA0
0D636800725CD0
06329C00A725C0
0329C900DA3240
029C96018DA300
01CD634258DA00
00D6368725CD00
006329CA725C00
00329C8DA32400
0029CD5CDA3000
001CD625CDA000
000D63725CD000
000A31A325C000
000328DA328000
000299CDA30000
0001C65CD60000
0000D325CD0000
0000AA329C0000
00003DA3280000
00002CD6300000
ENDCHAR
STARTCHAR w
ENCODING 119
SWIDTH 1129 0
DWIDTH 36 0
BBX 34 24 1 -1
BITMAP
551100115440084550
9673003658C00CDA60
9673003658C00CDA60
9673003658C00CDA60
9673003658C00CDA60
9673003658C00CDA60
9673003658C00CDA60
9673003658C00CDA60
9673003658C00CDA60
9673003658C00CDA60
9673003658C00CDA60
9673003658C00CDA60
9673003658C00CDA60
9673003658C00CDA60
9673403259C01CDA60
A63295A369E568C960
63286E8736AB928C90
328E406D73901B28C0
28E1FFE1DBBFF87280
0D39001B5E4006D700
074BEAF87AFABE1D00
01E45546F91551B400
001FA6BE0BE9AF8000
00016A90005A940000
ENDCHAR
STARTCHAR x
ENCODING 120
SWIDTH 790 0
DWIDTH 25 0
BBX 24 23 1 0
BITMAP
451450085145
A35D7028D35C
35CA28728A34
1CA35CD75CA0
0A35C68A35C0
075CA75CA340
028A1E35CA00
00D76CA35D00
007175CA2800
0028A35D7000
0009CA38D000
00035CB28000
000A34D74000
001CA28DA000
0035D7293400
00A28D771C00
01C728D28E00
034D7298D740
0B28D74D7280
1D728A8728D0
28D71CA28D70
728D3435D728
D728A01CA28D
ENDCHAR
STARTCHAR y
ENCODING 121
SWIDTH 733 0
DWIDTH 23 0
BBX 23 23 0 0
BITMAP
511140011544
3258C0063368
19CDA009A630
0C963418C9A0
067358269CC0
0329CD732680
018C96967300
00DA71CD9600
00632659CD00
003697365800
0018CA633400
000D9CDA6000
0006298C9000
000372698000
0001E7324000
0000D9630000
0000D9670000
0000D9670000
0000D9670000
0000D9670000
0000D9670000
0000D9670000
0000D9670000
ENDCHAR
STARTCHAR z
ENCODING 122
SWIDTH 714 0
DWIDTH 23 0
BBX 21 23 1 0
BITMAP
555555514400
6AAAA9D72880
1555528D3580
BFFFE728A340
00000D75CA00
BFFFA8A35C00
000075CA3400
0000A35CA000
0001CA34C000
00035CA24000
000A34D70000
001CA28D0000
0035D7280000
00A28D700000
01D728D00000
028D72800000
0728D3400000
0D72CA6AAA40
28D35C6AAA40
728A35555540
D75CA2AAAA80
8A35C0000000
5CA39FFFFF80
ENDCHAR
STARTCHAR braceleft
ENCODING 123
SWIDTH 396 0
DWIDTH 13 0
BBX 11 34 1 -7
BITMAP
000AFC
007900
01D2A8
035E54
0A3464
0DA3A8
0CDA00
0CD900
1CD900
1CD900
1CD900
1CD900
1CD900
1CD900
54C900
BE4D00
01D400
F93400
075800
A5CC00
68C900
1CD900
1CD900
1CD900
1CD900
1CD900
0CD900
0C9600
0D62F8
063814
034BA8
01D164
007E54
0006A8
ENDCHAR
STARTCHAR bar
ENCODING 124
SWIDTH 266 0
DWIDTH 9 0
BBX 6 30 1 -4
BITMAP
6630
A730
A730
A730
A730
A730
A730
A730
A730
A730
A730
A730
A730
A730
A730
A730
A730
A730
A730
A730
A730
A730
A730
A730
A730
A730
A730
A730
A730
5110
ENDCHAR
STARTCHAR braceright
ENCODING 125
SWIDTH 396 0
DWIDTH 13 0
BBX 11 34 1 -7
BITMAP
FE4000
05B400
A91C00
56C600
A4A340
AE3680
036980
0259C0
0259C0
0259C0
0259C0
0259C0
0259C0
029CE4
018D24
00D794
0071A8
015E40
0286F8
025840
0259C0
0259C0
0259C0
0259C0
0259C0
0259C0
0269C0
072980
FD3680
50A340
AB8A00
942C00
56E000
AA0000
ENDCHAR
STARTCHAR asciitilde
ENCODING 126
SWIDTH 665 0
DWIDTH 21 0
BBX 19 6 1 18
BITMAP
01AAAA9088
1EAAAA91CC
345555574C
A2EAAAA928
97000001B0
9A1FFFFF80
ENDCHAR
STARTCHAR uni00A0
ENCODING 160
SWIDTH 108 0
DWIDTH 3 0
BBX 1 1 0 0
BITMAP
00
ENDCHAR
STARTCHAR exclamdown
ENCODING 161
SWIDTH 336 0
DWIDTH 11 0
BBX 9 27 1 -1
BITMAP
663240
A73240
A73240
A73240
A73240
A73240
A73240
A73240
A73240
A73240
A73240
A73240
A73240
A73240
A73240
A73240
A73240
A73240
A73240
011100
000000
6AAA40
6AAA40
155500
7FFF40
000000
BFFF40
ENDCHAR
STARTCHAR cent
ENCODING 162
SWIDTH 708 0
DWIDTH 23 0
BBX 21 32 1 -3
BITMAP
000024500000
000034A00000
000034A00000
000024600000
00006AA40000
000BE56F8000
00791551B400
02D2FABE1E00
071E4106D380
1D74BFF87440
29D7901B5800
729D2FE1D000
A728E46D4000
DA7280050000
C96300000000
C9A600000000
C9A700000000
DA7340000000
9635D01D0000
635CBAB89000
358A06428400
18A2E56E2C00
0A282A90B180
038B945B8740
00E0AFE42D00
002E4006E000
0002FFFE0000
000011000000
000034A00000
000034A00000
000034A00000
000024500000
ENDCHAR
STARTCHAR sterling
ENCODING 163
SWIDTH 689 0
DWIDTH 22 0
BBX 20 27 1 0
BITMAP
0006FFE500
00BA515BD0
0291AA946D
0A1E95AF47
28B45541B4
35C7EABE10
735D050680
A735FFF800
9633400400
9673400000
9673400000
9673555540
96737FFFC0
9673400000
96737FFFC0
9673555540
96736AAA80
9673555540
9673400000
9673400000
9673400000
9673AAAA80
9673AAAA80
9673555540
9673AAAA80
9673400000
9673FFFFD0
ENDCHAR
STARTCHAR currency
ENCODING 164
SWIDTH 715 0
DWIDTH 23 0
BBX 21 25 1 -1
BITMAP
01C00000D000
08A000028800
4A34000A2840
E35D151C7280
75C6FFE5D700
1C6D001E5D00
0AE1BF92A400
028B5178A000
0728000A7000
0A7000072400
096000025800
0D9000029800
0D9000029C00
0DA000029800
096000036800
063400073400
035D001D7000
05C7EAF5D400
0DB46A475C00
289E95BD8A00
A289AA98A380
8B28000A3480
1C7000035C00
01D00001D000
004000004000
ENDCHAR
STARTCHAR yen
ENCODING 165
SWIDTH 796 0
DWIDTH 26 0
BBX 24 26 1 0
BITMAP
899600018896
9673400259CD
736580073658
259CD0096334
1CC9600CDA60
09A734298CD0
063258326980
0269CDA63240
018C95C9A700
00DA729CC900
006327259C00
003696736400
0018CD967000
000C98CD9000
000A3698C000
000363368000
0002DA630000
0001CD960000
07FDCD96BF80
0155CD965540
06A9CD966A40
02A9CD966A40
0001CD960000
0001CD960000
0001CD960000
0001CD960000
ENDCHAR
STARTCHAR brokenbar
ENCODING 166
SWIDTH 263 0
DWIDTH 8 0
BBX 6 30 1 -4
BITMAP
9630
A630
A630
A630
A630
A630
A630
A630
A630
A630
A630
A630
5520
0000
0000
0000
0000
A630
A630
A630
A630
A630
A630
A630
A630
A630
A630
A630
A630
5110
ENDCHAR
STARTCHAR section
ENCODING 167
SWIDTH 108 0
DWIDTH 3 0
BBX 1 1 0 0
BITMAP
00
ENDCHAR
STARTCHAR dieresis
ENCODING 168
SWIDTH 556 0
DWIDTH 18 0
BBX 16 4 1 23
BITMAP
96700CDA
96700CDA
96700CDA
45100445
ENDCHAR
STARTCHAR copyright
ENCODING 169
SWIDTH 869 0
DWIDTH 28 0
BBX 26 26 1 1
BITMAP
00006BFE400000
0006FEABF80000
002F90006F8000
00B8000006E000
02D005A500B800
0B807FFFD02D00
1E02F905F80F00
2D07C0002E0780
781F00000402C0
B42D00000001D0
B03800000000E0
F07800000000E0
E07400000000F0
E07400000000E0
F07800000000E0
B03C00000001E0
B42D00000002D0
781F00000803C0
2D07D0002E0780
1E01F956F80F00
0B806FFF902D00
02E0015400B800
00B9000007E000
002F90006F4000
0002FFAFF80000
00001AFA400000
ENDCHAR
STARTCHAR ordfeminine
ENCODING 170
SWIDTH 833 0
DWIDTH 27 0
BBX 25 24 1 -1
BITMAP
0001BFFE400000
001B9005B80000
00B46BE91B4000
02D6E556E1D000
071E16A46C7000
1D75BAAF4B2800
28D78151A28D00
328D2EBD28DA00
6328E0078DA300
96328000DA7340
DA630000A73240
D9670000673640
D9630000633640
9A734000633640
A7368000633640
7368A405633640
358E1FF9633640
28A29001633640
0E386FBE633640
038B4141633640
01E1BEAE633640
002E0550633640
0006EA6A633640
00001694000000
ENDCHAR
STARTCHAR guillemotleft
ENCODING 171
SWIDTH 911 0
DWIDTH 29 0
BBX 27 16 1 4
BITMAP
00000140000004
00001B400001B8
0006E400002F80
006E468006E46C
1B91B900BD07E0
B91B914791B918
46E46F442F81F8
6E46E406E46E40
91B9400507E400
1B90B901B90B90
B4390B8782E06C
6E46E406E46E44
06E46F402F81F8
001B914001B918
0001B9000007E0
0000068000006C
ENDCHAR
STARTCHAR logicalnot
ENCODING 172
SWIDTH 718 0
DWIDTH 23 0
BBX 21 11 1 6
BITMAP
BFFFFFFF2580
155555572680
6AAAAAAB2680
6AAAAAAB2680
555555572680
6AAAAAAB2680
000000032680
000000032680
000000032680
000000032680
000000011000
ENDCHAR
STARTCHAR registered
ENCODING 174
SWIDTH 869 0
DWIDTH 28 0
BBX 26 26 1 1
BITMAP
00006BFE400000
0006FEABF80000
002F90006F8000
00B8000006E000
02D0000000B800
0B800000002D00
1E01FFFF800F00
2D01FAAAF00780
7801E0007802C0
B401E0003C01D0
B001E0003C00E0
F001E0007800E0
E001E556F400F0
E001FFFFD000E0
F001E55E0000E0
B001E00B4001E0
B401E0078002D0
7801E003C003C0
2D01E001E00780
1E01E000F00F00
0B804000102D00
02E0000000B800
00B9000007E000
002F90006F4000
0002FFAFF80000
00001AFA400000
ENDCHAR
STARTCHAR degree
ENCODING 176
SWIDTH 330 0
DWIDTH 11 0
BBX 9 9 1 24
BITMAP
0BB400
354A00
9AB640
DC1940
D81980
9A6640
755A00
1AB800
004000
ENDCHAR
STARTCHAR plusminus
ENCODING 177
SWIDTH 598 0
DWIDTH 19 0
BBX 17 20 1 1
BITMAP
0011104000
0073658000
0073658000
0073658000
0073658000
AAB365EA80
5573659540
6AB365EA80
AAB365EA80
5573659540
BFF365FFC0
0073658000
0073658000
0073658000
0073658000
0011104000
1555555500
2AAAAAAA00
1555555500
2FFFFFFF40
ENDCHAR
STARTCHAR uni00B2
ENCODING 178
SWIDTH 435 0
DWIDTH 14 0
BBX 12 21 1 5
BITMAP
16AA90
6955B8
05A94A
3EAAD7
0000A3
0000A7
0001CD
000368
000A70
0028D0
007280
00D700
029D00
0A3400
1CA000
35C000
514000
FFFFFC
000000
AAAAA8
555554
ENDCHAR
STARTCHAR uni00B3
ENCODING 179
SWIDTH 515 0
DWIDTH 17 0
BBX 15 22 1 4
BITMAP
5ABA4000
E955B400
15A91A00
BAAAD280
015478C0
7FAF4C90
0001C9A0
0000C9A0
01A54890
01AAB980
01550740
02FFE5D0
00002D70
02FF9724
0001B368
00007368
2EAAD324
01550A30
7A96B8A0
16AA4280
69556E00
6AFF9000
ENDCHAR
STARTCHAR acute
ENCODING 180
SWIDTH 472 0
DWIDTH 15 0
BBX 13 7 1 23
BITMAP
00006C00
0006D140
007D1B40
07D1B400
7D1F4000
51F40000
0B400000
ENDCHAR
STARTCHAR uni00B5
ENCODING 181
SWIDTH 802 0
DWIDTH 26 0
BBX 24 27 1 -4
BITMAP
512140014485
A73240029CC9
A73240029CC9
A73240029CC9
A73240029CC9
A73240029CC9
A73240029CC9
A73240029CC9
A73240029CC9
A73240029CC9
A73240029CC9
A73240029CC9
A73240029CC9
A732400298C9
A732400358CD
A732400A358C
A7327AF8A358
A7324542CA34
A7326AAE1CA0
A7325A90B5D0
A732555B8740
A7326BE92D00
A7325006E000
A7327FFA4000
A73240000000
A73240000000
511100000000
ENDCHAR
STARTCHAR paragraph
ENCODING 182
SWIDTH 676 0
DWIDTH 22 0
BBX 20 27 1 -4
BITMAP
00015AAAA8
006EAAAAAD
02D055554D
0B5BFFFFCD
1C780001CD
35D6FFF9CD
635E4029CD
9635AA59CD
D9639659CD
D9630259CD
DA72FF59CD
A7285659CD
728BAB59CD
38E16B59CD
1D2E5659CD
0786AB59CD
01F90259CD
001BFF59CD
00000259CD
00000259CD
00000259CD
00000259CD
00000259CD
00000259CD
00000259CD
000002F9ED
0000015454
ENDCHAR
STARTCHAR periodcentered
ENCODING 183
SWIDTH 260 0
DWIDTH 8 0
BBX 6 6 1 12
BITMAP
BFF0
0000
6AA0
5550
6A90
6AA0
ENDCHAR
STARTCHAR cedilla
ENCODING 184
SWIDTH 321 0
DWIDTH 10 0
BBX 8 11 1 -12
BITMAP
0041
0096
1B96
3806
72FE
A740
A700
6395
71AA
2940
06FE
ENDCHAR
STARTCHAR uni00B9
ENCODING 185
SWIDTH 359 0
DWIDTH 12 0
BBX 9 18 1 8
BITMAP
FFFFC0
555540
AAAA80
AAAEC0
0298C0
0298C0
0298C0
0298C0
0298C0
0298C0
0298C0
0298C0
0298C0
0298C0
0298C0
0298C0
0298C0
0298C0
ENDCHAR
STARTCHAR ordmasculine
ENCODING 186
SWIDTH 835 0
DWIDTH 27 0
BBX 25 25 1 -1
BITMAP
000016A5000000
0002FAABD00000
001E45506D0000
00B4BFBE478000
02879001B4E000
0A2D2FF91D3400
1CB1E406D75C00
29C74AE475CA00
729D795B1CA700
6325D002CA7340
96328000A73680
DA630000732580
D9670000336580
D9630000736580
9A734000632680
A7368000D63240
7368A4078D6300
368A2FBD28D600
18E28151E28D00
0D74BAAF4B2800
075E46A4787000
01D2E55BD2D000
00791AE91A0000
000B9405B40000
00006FFE400000
ENDCHAR
STARTCHAR guillemotright
ENCODING 187
SWIDTH 912 0
DWIDTH 29 0
BBX 27 16 1 4
BITMAP
50000005000000
79000007D00000
06E400006E4000
A46E400742F800
1F81B901B91B90
51B91B850BD07C
7E07E446E46E44
06E46E402F42F4
005F918005B918
1B81B901BD0BD0
B81E078791B47C
06E46E402F42F4
7E07E406E46E40
51B900050BD000
1F800001B90000
A4000007400000
ENDCHAR
STARTCHAR onequarter
ENCODING 188
SWIDTH 1236 0
DWIDTH 40 0
BBX 39 29 0 -3
BITMAP
7FFFE0000C9600000000
155550001CDA00000000
2AAAA00029CD00000000
2AEBB000258C00000000
00967000325800000000
00967000736800258900
00967000A73400735C00
00967000963000D72400
00967000C96001C97000
00967001CDA0035CA000
009670029CD00729C000
0096700358C00A728000
0096700325801CA34000
00967007368029CA18C0
0096700A7340728D1CC0
0096700D6300A3681CC0
0096700C960045140440
0096701CDA00FFFFFFF8
00000029CD0000000000
000000358C00AAAAAAA8
00000032580055555554
000000736400AAAAAAA4
000000A73400AAAAAAA4
000000D6300000001880
000000C9600000001CC0
000001CC900000001CC0
0000029CD00000000000
00000358C00000000000
00000325800000000000
ENDCHAR
STARTCHAR onehalf
ENCODING 189
SWIDTH 1154 0
DWIDTH 37 0
BBX 36 29 0 -3
BITMAP
7FFFE0000C96000000
155550001CDA000000
2AAAA00029CD000000
2AEBB000258C000000
009670003258000000
009670007368001400
00967000A7346FFFE0
00967000963054006D
00967000C9602BFF8A
00967001CDA02541A7
009670029CD00000A7
0096700358C00000DA
00967003258000029C
009670073680000724
0096700A7340001DA0
0096700D63000025C0
0096700C960000A340
0096701CDA0001CA00
00000029CD00036800
000000358C00097000
00000032580028D000
000000736400728000
000000A73400555554
000000D63000AAAAA8
000000C96000000000
000001CC9000FFFFFC
0000029CD000000000
00000358C000000000
000003258000000000
ENDCHAR
STARTCHAR threequarters
ENCODING 190
SWIDTH 1345 0
DWIDTH 43 0
BBX 42 29 1 -3
BITMAP
5ABA400000258800000000
E955B40000369C00000000
15A91E0000325800000000
BAAAD24000632400000000
015475C000A73400000000
7FAF5C9000DA7001896000
0001CDA000C960035CD000
0000CDA0018C900735C000
01A54890029CD00D728000
01AAB8800369C01C970000
01550B4003258025CA0000
02FFE5D0063240729C0000
00002D700A7340A7280000
02FF97340DA701CA349600
0001B3640C96029CA09A00
0000736418C90728D09A00
3EAAD72429CD0511404500
01551E30369C0BFFFFFFD0
7A96B8A032580000000000
16AA4280632406AAAAAA90
A5556E00A7340555555540
6AFF9000DA7006AAAAAA80
00000000C96006AAAAAA90
000000018C900000009500
000000029CD00000009A00
0000000369C00000009A00
0000000325800000000000
0000000632400000000000
0000000A73400000000000
ENDCHAR
STARTCHAR questiondown
ENCODING 191
SWIDTH 693 0
DWIDTH 22 0
BBX 21 27 1 0
BITMAP
006BFE900000
07E545BD0000
7916AA468000
D1FA56F4B000
1E45551A2800
04BEABD28D00
01905068D600
002FFF4D6300
000001D67340
000000963340
001115DA7300
0A736A4DA700
0A7301B4DA00
0A737F924D00
0A73006D2800
0A737FE4A000
0A73100B8000
0A736AF90000
0A7315400000
0A7300000000
001100000000
0AAA40000000
055540000000
055540000000
0AAA80000000
000000000000
0FFF80000000
ENDCHAR
STARTCHAR Agrave
ENCODING 192
SWIDTH 936 0
DWIDTH 30 0
BBX 30 36 0 0
BITMAP
0007900000000000
0020B90000000000
002E4B9000000000
0002E4B900000000
00002E4B90000000
000002E440000000
0000002D00000000
0000000000000000
0000000000000000
0000000000000000
0000072589000000
00000B9CD6000000
00001DCD63000000
000028D632800000
000035A329C00000
000073725CD00000
00009725CD600000
0001C95CD6300000
00028C9DA3280000
000368CA329C0000
0007368725CD0000
000973665CD60000
000C9735CDA30000
0028CA70DA328000
00368CA0A325C000
007358C0325CD000
0097358025CDA000
00C9736A98DA3000
028CA7154DA32400
0358CA555A725C00
07358DAAA725CD00
0A7358555258DA00
0CA737FFFD8DA300
18CA700000DA3240
358CA00000A725C0
7358D000007258D0
ENDCHAR
STARTCHAR Aacute
ENCODING 193
SWIDTH 936 0
DWIDTH 30 0
BBX 30 36 0 0
BITMAP
00000000006D0000
0000000006E14000
000000006E1B8000
00000006E1B80000
0000006D1B800000
00000011B8000000
0000000B40000000
0000000000000000
0000000000000000
0000000000000000
0000072589000000
00000B9CD6000000
00001DCD63000000
000028D632800000
000035A329C00000
000073725CD00000
00009725CD600000
0001C95CD6300000
00028C9DA3280000
000368CA329C0000
0007368725CD0000
000973665CD60000
000C9735CDA30000
0028CA70DA328000
00368CA0A325C000
007358C0325CD000
0097358025CDA000
00C9736A98DA3000
028CA7154DA32400
0358CA555A725C00
07358DAAA725CD00
0A7358555258DA00
0CA737FFFD8DA300
18CA700000DA3240
358CA00000A725C0
7358D000007258D0
ENDCHAR
STARTCHAR Acircumflex
ENCODING 194
SWIDTH 936 0
DWIDTH 30 0
BBX 30 36 0 0
BITMAP
0000002580000000
0000007CD0000000
0000009DA0000000
000000CA30000000
0000028724000000
000003565C000000
00000735CD000000
0000096096000000
0000000000000000
0000000000000000
0000072589000000
00000B9CD6000000
00001DCD63000000
000028D632800000
000035A329C00000
000073725CD00000
00009725CD600000
0001C95CD6300000
00028C9DA3280000
000368CA329C0000
0007368725CD0000
000973665CD60000
000C9735CDA30000
0028CA70DA328000
00368CA0A325C000
007358C0325CD000
0097358025CDA000
00C9736A98DA3000
028CA7154DA32400
0358CA555A725C00
07358DAAA725CD00
0A7358555258DA00
0CA737FFFD8DA300
18CA700000DA3240
358CA00000A725C0
7358D000007258D0
ENDCHAR
STARTCHAR Atilde
ENCODING 195
SWIDTH 936 0
DWIDTH 30 0
BBX 30 35 0 0
BITMAP
00006AAAA8214000
0007AAAAA4324000
000E155555A34000
001CBAAAAA870000
0018D000005D0000
0029C3FFFFE40000
0000000000000000
0000000000000000
0000000000000000
0000072589000000
00000B9CD6000000
00001DCD63000000
000028D632800000
000035A329C00000
000073725CD00000
00009725CD600000
0001C95CD6300000
00028C9DA3280000
000368CA329C0000
0007368725CD0000
000973665CD60000
000C9735CDA30000
0028CA70DA328000
00368CA0A325C000
007358C0325CD000
0097358025CDA000
00C9736A98DA3000
028CA7154DA32400
0358CA555A725C00
07358DAAA725CD00
0A7358555258DA00
0CA737FFFD8DA300
18CA700000DA3240
358CA00000A725C0
7358D000007258D0
ENDCHAR
STARTCHAR Adieresis
ENCODING 196
SWIDTH 936 0
DWIDTH 30 0
BBX 30 32 0 0
BITMAP
000258C032680000
000258C032680000
000258C032680000
0001444011140000
0000000000000000
0000000000000000
0000072589000000
00000B9CD6000000
00001DCD63000000
000028D632800000
000035A329C00000
000073725CD00000
00009725CD600000
0001C95CD6300000
00028C9DA3280000
000368CA329C0000
0007368725CD0000
000973665CD60000
000C9735CDA30000
0028CA70DA328000
00368CA0A325C000
007358C0325CD000
0097358025CDA000
00C9736A98DA3000
028CA7154DA32400
0358CA555A725C00
07358DAAA725CD00
0A7358555258DA00
0CA737FFFD8DA300
18CA700000DA3240
358CA00000A725C0
7358D000007258D0
ENDCHAR
STARTCHAR Aring
ENCODING 197
SWIDTH 936 0
DWIDTH 30 0
BBX 30 35 0 0
BITMAP
0000007B90000000
0000019574000000
0000036A9C000000
0000066099000000
0000065099000000
00000375DC000000
0000019564000000
0000007AD0000000
0000000500000000
0000072589000000
00000B9CD6000000
00001DCD63000000
000028D632800000
000035A329C00000
000073725CD00000
00009725CD600000
0001C95CD6300000
00028C9DA3280000
000368CA329C0000
0007368725CD0000
000973665CD60000
000C9735CDA30000
0028CA70DA328000
00368CA0A325C000
007358C0325CD000
0097358025CDA000
00C9736A98DA3000
028CA7154DA32400
0358CA555A725C00
07358DAAA725CD00
0A7358555258DA00
0CA737FFFD8DA300
18CA700000DA3240
358CA00000A725C0
7358D000007258D0
ENDCHAR
STARTCHAR AE
ENCODING 198
SWIDTH 1198 0
DWIDTH 38 0
BBX 37 26 0 0
BITMAP
000007258BFFFFFFFFC0
00000B9CD75555555540
00001DCD63AAAAAAAA80
000028D632EAAAAAAA80
0000356329D555555540
000073729CFAAAAAAA80
00009729CD6000000000
0000C95CD63000000000
00028C9DA32800000000
000368CA329C00000000
0007368725CEAAAAA800
000973565CDB55555400
000C9735CD63AAAAA800
0028CA70DA32EAAAA800
00368CA0A325D5555400
007358C0325CFFFFFD00
00A7358025CDA0000000
00CA736A9CDA70000000
028CA7154DA324000000
0358CA555A3258000000
07358DAAA725CEAAAA80
0A735855525CDBAAAA80
0CA726FFFD8DA7555540
18CA700000DA33EAAA80
358DA00000A725800000
7358D00000725CFFFFC0
ENDCHAR
STARTCHAR Ccedilla
ENCODING 199
SWIDTH 852 0
DWIDTH 27 0
BBX 26 38 1 -11
BITMAP
00001AFFA40000
0001F9416E4000
001B45AA51E000
00787E96B92D00
01D2D155078740
075E1FAAE4B1C0
0D74B4141E2C50
1CE386FF928900
35CA2D0078A000
735CA0000A0000
A735C000010000
DA734000000000
C9670000000000
CDA60000000000
CDA60000000000
C9A70000000000
DA734000000000
97358000010000
6368A0000A0000
368A290078A000
18D387EBD2C900
0D74A4551E1C40
075D2FAAF4B5D0
01D791A9478740
0074BE55BD1D00
001E46BE91B400
0001E5006F4000
00001BFFE40000
0000009A000000
00001F96000000
0000340A000000
000062FE000000
0000A740000000
0000A600000000
0000A395000000
000071A9000000
00002940000000
00000AFE000000
ENDCHAR
STARTCHAR Egrave
ENCODING 200
SWIDTH 706 0
DWIDTH 23 0
BBX 21 36 1 0
BITMAP
0F4000000000
51F400000000
7D1F40000000
07D1B4000000
007D1B400000
0007D1400000
00006C000000
000000000000
000000000000
000000000000
6632FFFFFF40
A63255555500
A632AAAAAA40
A632AAAAAA00
A63295555500
A632EAAAAA40
A63240000000
A63240000000
A63240000000
A63240000000
A632EAA40000
A63295540000
A632AAA40000
A632AAA40000
A63255500000
A632FFF40000
A63240000000
A63240000000
A63240000000
A63240000000
A632AAAAAA40
A632AAAAAA00
A63295555500
A632EAAAAA40
A63240000000
A632FFFFFF40
ENDCHAR
STARTCHAR Eacute
ENCODING 201
SWIDTH 706 0
DWIDTH 23 0
BBX 21 36 1 0
BITMAP
00000000B800
0000000B9140
000000B92E40
00000B92E400
0000B92E4000
000052E40000
00001E400000
000000000000
000000000000
000000000000
6632FFFFFF40
A63255555500
A632AAAAAA40
A632AAAAAA00
A63295555500
A632EAAAAA40
A63240000000
A63240000000
A63240000000
A63240000000
A632EAA40000
A63295540000
A632AAA40000
A632AAA40000
A63255500000
A632FFF40000
A63240000000
A63240000000
A63240000000
A63240000000
A632AAAAAA40
A632AAAAAA00
A63295555500
A632EAAAAA40
A63240000000
A632FFFFFF40
ENDCHAR
STARTCHAR Ecircumflex
ENCODING 202
SWIDTH 706 0
DWIDTH 23 0
BBX 21 36 1 0
BITMAP
000062400000
0000F6800000
0001E8C00000
00024C900000
000309700000
000A27340000
000DA3680000
0018928C0000
000000000000
000000000000
6632FFFFFF40
A63255555500
A632AAAAAA40
A632AAAAAA00
A63295555500
A632EAAAAA40
A63240000000
A63240000000
A63240000000
A63240000000
A632EAA40000
A63295540000
A632AAA40000
A632AAA40000
A63255500000
A632FFF40000
A63240000000
A63240000000
A63240000000
A63240000000
A632AAAAAA40
A632AAAAAA00
A63295555500
A632EAAAAA40
A63240000000
A632FFFFFF40
ENDCHAR
STARTCHAR Edieresis
ENCODING 203
SWIDTH 706 0
DWIDTH 23 0
BBX 21 32 1 0
BITMAP
073240963000
073240963000
073240963000
011100511000
000000000000
000000000000
6632FFFFFF40
A63255555500
A632AAAAAA40
A632AAAAAA00
A63295555500
A632EAAAAA40
A63240000000
A63240000000
A63240000000
A63240000000
A632EAA40000
A63295540000
A632AAA40000
A632AAA40000
A63255500000
A632FFF40000
A63240000000
A63240000000
A63240000000
A63240000000
A632AAAAAA40
A632AAAAAA00
A63295555500
A632EAAAAA40
A63240000000
A632FFFFFF40
ENDCHAR
STARTCHAR Igrave
ENCODING 204
SWIDTH 338 0
DWIDTH 11 0
BBX 15 36 -5 0
BITMAP
0B400000
51F40000
7D1F4000
07D1B400
007D1B40
0006D140
00006C00
00000000
00000000
00000000
00066324
000A6324
000A6324
000A6324
000A6324
000A6324
000A6324
000A6324
000A6324
000A6324
000A6324
000A6324
000A6324
000A6324
000A6324
000A6324
000A6324
000A6324
000A6324
000A6324
000A6324
000A6324
000A6324
000A6324
000A6324
000A6324
ENDCHAR
STARTCHAR Iacute
ENCODING 205
SWIDTH 338 0
DWIDTH 11 0
BBX 15 36 1 0
BITMAP
00000780
0000B914
000B91E4
00B92E40
0B92E400
052E4000
01E40000
00000000
00000000
00000000
66324000
A6324000
A6324000
A6324000
A6324000
A6324000
A6324000
A6324000
A6324000
A6324000
A6324000
A6324000
A6324000
A6324000
A6324000
A6324000
A6324000
A6324000
A6324000
A6324000
A6324000
A6324000
A6324000
A6324000
A6324000
A6324000
ENDCHAR
STARTCHAR Icircumflex
ENCODING 206
SWIDTH 338 0
DWIDTH 11 0
BBX 10 36 0 0
BITMAP
018900
03DA00
07A300
093240
0C25C0
189CD0
358DA0
624A30
000000
000000
198C90
298C90
298C90
298C90
298C90
298C90
298C90
298C90
298C90
298C90
298C90
298C90
298C90
298C90
298C90
298C90
298C90
298C90
298C90
298C90
298C90
298C90
298C90
298C90
298C90
298C90
ENDCHAR
STARTCHAR Idieresis
ENCODING 207
SWIDTH 338 0
DWIDTH 11 0
BBX 16 32 -3 0
BITMAP
73240963
73240963
73240963
11100511
00000000
00000000
00663240
00A63240
00A63240
00A63240
00A63240
00A63240
00A63240
00A63240
00A63240
00A63240
00A63240
00A63240
00A63240
00A63240
00A63240
00A63240
00A63240
00A63240
00A63240
00A63240
00A63240
00A63240
00A63240
00A63240
00A63240
00A63240
ENDCHAR
STARTCHAR Eth
ENCODING 208
SWIDTH 905 0
DWIDTH 29 0
BBX 27 26 1 0
BITMAP
3FFFFFFFA40000
355555556F4000
31AAAAAA91E000
32AAAAAABD2D00
32555555478B00
325EAAAAF4A280
325800001E28D0
3259FFFFD39DA0
3259C00075CA30
215480001CA324
AAAAA9000A7368
55555500063258
AAAAA90007369C
AAAAA90007369C
55555400063258
FFFFFE000A7368
215480000DA324
3259C00038DA30
3259FFFFE28D60
325855550A28D0
325EAAAAB8B280
325AAAA942C700
329555556E1D00
32AAAAAA90B400
340000005B8000
3FFFFFFFE80000
ENDCHAR
STARTCHAR Ntilde
ENCODING 209
SWIDTH 877 0
DWIDTH 28 0
BBX 26 35 1 0
BITMAP
0006AAAA825400
003AAAAA436400
00A055555A2400
01C7AAAAA87000
018D000005D000
029C3FFFFE4000
00000000000000
00000000000000
00000000000000
7289600018C960
B8D7280018C9A0
AD729D0018C9A0
A725DA0018C9A0
A35CA34018C9A0
A5CA35C018C9A0
A5A35CA018C9A0
A635CA3418C9A0
A61CA35818C9A0
A61A368D18C9A0
A63768D718C9A0
A6328D7298C9A0
A630D728D8C9A0
A632728D70C9A0
A63268D728C9A0
A6324D729DC9A0
A6324625CA49A0
A632435CA349A0
A63241CA35C9A0
A63240A35CA9A0
A6324035CA35A0
A632401CA368A0
A632400A768DA0
A632400728D7A0
A63240028D72E0
A6324000D728E0
ENDCHAR
STARTCHAR Ograve
ENCODING 210
SWIDTH 933 0
DWIDTH 30 0
BBX 28 37 1 -1
BITMAP
001E0000000000
0082E400000000
00B82E40000000
000B92E4000000
0000B92E400000
00000B91000000
000000B4000000
00000000000000
00000000000000
00001AFFA40000
0001F9416E4000
001B45AA51E000
00787E96B92D00
01D2D155078740
075E1FAAE4B1C0
0D74B4141E2CA0
1CE386FF928A34
35CA2D0078A358
735CA0000A358D
A735C0000358DA
DA734000018C96
C967000000C9A7
CDA6000000D963
CDA6000000D963
C9A7000000C9A7
DA734000018D96
97358000035CDA
6368A0000A35CD
368A290078A35C
18D387EBD2CA34
0D74A4551E1CA0
075D2FAAF4B5D0
01D791A947D740
0074BE55BD1D00
001E46BE91F400
0001E5006F4000
00001BFFE40000
ENDCHAR
STARTCHAR Oacute
ENCODING 211
SWIDTH 933 0
DWIDTH 30 0
BBX 28 37 1 -1
BITMAP
0000000001B400
000000001B8500
00000001B86E00
0000001B46E000
000001B46E0000
00000046D00000
0000002D000000
00000000000000
00000000000000
00001AFFA40000
0001F9416E4000
001B45AA51E000
00787E96B92D00
01D2D155078740
075E1FAAE4B1C0
0D74B4141E2CA0
1CE386FF928A34
35CA2D0078A358
735CA0000A358D
A735C0000358DA
DA734000018C96
C967000000C9A7
CDA6000000D963
CDA6000000D963
C9A7000000C9A7
DA734000018D96
97358000035CDA
6368A0000A35CD
368A290078A35C
18D387EBD2CA34
0D74A4551E1CA0
075D2FAAF4B5D0
01D791A947D740
0074BE55BD1D00
001E46BE91F400
0001E5006F4000
00001BFFE40000
ENDCHAR
STARTCHAR Ocircumflex
ENCODING 212
SWIDTH 933 0
DWIDTH 30 0
BBX 28 37 1 -1
BITMAP
00000096000000
000001F3400000
00000276800000
00000329C00000
00000A1C900000
00000D99600000
00001CD6340000
00002583280000
00000000000000
00001AFFA40000
0001F9416E4000
001B45AA51E000
00787E96B92D00
01D2D155078740
075E1FAAE4B1C0
0D74B4141E2CA0
1CE386FF928A34
35CA2D0078A358
735CA0000A358D
A735C0000358DA
DA734000018C96
C967000000C9A7
CDA6000000D963
CDA6000000D963
C9A7000000C9A7
DA734000018D96
97358000035CDA
6368A0000A35CD
368A290078A35C
18D387EBD2CA34
0D74A4551E1CA0
075D2FAAF4B5D0
01D791A947D740
0074BE55BD1D00
001E46BE91F400
0001E5006F4000
00001BFFE40000
ENDCHAR
STARTCHAR Otilde
ENCODING 213
SWIDTH 933 0
DWIDTH 30 0
BBX 28 36 1 -1
BITMAP
0001AAAAA08500
001EAAAA90C900
00345555568D00
0072EAAAAA1C00
00630000017400
00A60FFFFF9000
00000000000000
00000000000000
00001AFFA40000
0001F9416E4000
001B45AA51E000
00787E96B92D00
01D2D155078740
075E1FAAE4B1C0
0D74B4141E2CA0
1CE386FF928A34
35CA2D0078A358
735CA0000A358D
A735C0000358DA
DA734000018C96
C967000000C9A7
CDA6000000D963
CDA6000000D963
C9A7000000C9A7
DA734000018D96
97358000035CDA
6368A0000A35CD
368A290078A35C
18D387EBD2CA34
0D74A4551E1CA0
075D2FAAF4B5D0
01D791A947D740
0074BE55BD1D00
001E46BE91F400
0001E5006F4000
00001BFFE40000
ENDCHAR
STARTCHAR Odieresis
ENCODING 214
SWIDTH 933 0
DWIDTH 30 0
BBX 28 33 1 -1
BITMAP
00096700CDA000
00096700CDA000
00096700CDA000
00041100445000
00000000000000
00001AFFA40000
0001F9416E4000
001B45AA51E000
00787E96B92D00
01D2D155078740
075E1FAAE4B1C0
0D74B4141E2CA0
1CE386FF928A34
35CA2D0078A358
735CA0000A358D
A735C0000358DA
DA734000018C96
C967000000C9A7
CDA6000000D963
CDA6000000D963
C9A7000000C9A7
DA734000018D96
97358000035CDA
6368A0000A35CD
368A290078A35C
18D387EBD2CA34
0D74A4551E1CA0
075D2FAAF4B5D0
01D791A947D740
0074BE55BD1D00
001E46BE91F400
0001E5006F4000
00001BFFE40000
ENDCHAR
STARTCHAR multiply
ENCODING 215
SWIDTH 790 0
DWIDTH 25 0
BBX 24 23 1 0
BITMAP
451450085145
A35D7028D35C
35CA28728A34
1CA35CD75CA0
0A35C68A35C0
075CA75CA340
028A1E35CA00
00D76CA35D00
007175CA2800
0028A35D7000
0009CA38D000
00035CB28000
000A34D74000
001CA28DA000
0035D7293400
00A28D771C00
01C728D28E00
034D7298D740
0B28D74D7280
1D728A8728D0
28D71CA28D70
728D3435D728
D728A01CA28D
ENDCHAR
STARTCHAR Oslash
ENCODING 216
SWIDTH 938 0
DWIDTH 30 0
BBX 28 35 1 -5
BITMAP
00000000028000
00000000072800
000000000A3280
00001AFFA4A300
0001F9416E4A00
001B45AA51E400
00787E96B92D00
01D2D155078740
075E1FAAE4B1C0
0D74B4141E2CA0
18E386FF928A34
358A2D0078A358
7358A0000A358D
9735C0000358D9
DA734000018C96
C9A7000000C9A7
CDA6000000D967
CDA6000000D963
C9A7000000C9A7
DA734000018C96
97358000035CDA
6368A0000A35CD
368A290078A35C
28D387EBD2CA34
0D74A4551E1CA0
075D2FAAF4B5C0
01D791A9478740
0074BE55BD1D00
001E46BE91F400
0092E5006F4000
01C91BFFE40000
029CA000000000
0329C000000000
00328000000000
00030000000000
ENDCHAR
STARTCHAR Ugrave
ENCODING 217
SWIDTH 905 0
DWIDTH 29 0
BBX 27 37 1 -1
BITMAP
002D0000000000
0147D000000000
01F46D00000000
001F46D0000000
0001F46D000000
00001B45000000
000001B0000000
00000000000000
00000000000000
00000000000000
96630000063264
96734000063268
96734000063268
96734000063268
96734000063268
96734000063268
96734000063268
96734000063268
96734000063268
96734000063268
96734000063268
96734000063268
96734000063268
96734000063268
96734000063368
A6334000063364
A7368000096324
7368D0002C9634
368D7800B1C970
28D74BEF875C90
0D71E0542D75C0
0B2D6EAAE1D340
028781A90B4E00
00B1B955B87800
002E06BA42D000
0006E5016E0000
00006BFF900000
ENDCHAR
STARTCHAR Uacute
ENCODING 218
SWIDTH 905 0
DWIDTH 29 0
BBX 27 37 1 -1
BITMAP
0000000001E000
000000002E4500
00000002E47900
0000002E479000
000002E4B90000
0000014B900000
00000039000000
00000000000000
00000000000000
00000000000000
96630000063264
96734000063268
96734000063268
96734000063268
96734000063268
96734000063268
96734000063268
96734000063268
96734000063268
96734000063268
96734000063268
96734000063268
96734000063268
96734000063268
96734000063368
A6334000063364
A7368000096324
7368D0002C9634
368D7800B1C970
28D74BEF875C90
0D71E0542D75C0
0B2D6EAAE1D340
028781A90B4E00
00B1B955B87800
002E06BA42D000
0006E5016E0000
00006BFF900000
ENDCHAR
STARTCHAR Ucircumflex
ENCODING 219
SWIDTH 905 0
DWIDTH 29 0
BBX 27 37 1 -1
BITMAP
00000189000000
000003D6000000
000007A3000000
00000A32800000
00000C29C00000
0000189CD00000
0000358D600000
00006246300000
00000000000000
00000000000000
96630000063264
96734000063268
96734000063268
96734000063268
96734000063268
96734000063268
96734000063268
96734000063268
96734000063268
96734000063268
96734000063268
96734000063268
96734000063268
96734000063268
96734000063368
A6334000063364
A7368000096324
7368D0002C9634
368D7800B1C970
28D74BEF875C90
0D71E0542D75C0
0B2D6EAAE1D340
028781A90B4E00
00B1B955B87800
002E06BA42D000
0006E5016E0000
00006BFF900000
ENDCHAR
STARTCHAR Udieresis
ENCODING 220
SWIDTH 905 0
DWIDTH 29 0
BBX 27 33 1 -1
BITMAP
001CD90298C000
001CD90298C000
001CD90298C000
00044401444000
00000000000000
00000000000000
96630000063264
96734000063268
96734000063268
96734000063268
96734000063268
96734000063268
96734000063268
96734000063268
96734000063268
96734000063268
96734000063268
96734000063268
96734000063268
96734000063268
96734000063368
A6334000063364
A7368000096324
7368D0002C9634
368D7800B1C970
28D74BEF875C90
0D71E0542D75C0
0B2D6EAAE1D340
028781A90B4E00
00B1B955B87800
002E06BA42D000
0006E5016E0000
00006BFF900000
ENDCHAR
STARTCHAR Yacute
ENCODING 221
SWIDTH 789 0
DWIDTH 25 0
BBX 25 36 0 0
BITMAP
00000000078000
000000007D1400
00000007D1F400
000000791F4000
00000791F40000
0000051E400000
000000E4000000
00000000000000
00000000000000
00000000000000
62258000622640
269CC0009A6300
18C9A0018C9A00
0DA6300269CC00
06336807326800
03698C09673000
018CDA1CD96000
00D963259CD000
00673673658000
003258A6334000
0029CDCDA60000
000C9698C90000
000A7326980000
00032A73240000
00024C96700000
0000E9CC900000
0000B659C00000
00006326800000
00006326800000
00006326800000
00006326800000
00006326800000
00006326800000
00006326800000
00006326800000
00006326800000
ENDCHAR
STARTCHAR Thorn
ENCODING 222
SWIDTH 798 0
DWIDTH 26 0
BBX 24 30 1 -3
BITMAP
A73240000000
A73240000000
A73240000000
A732FFFE4000
A7324006E400
A732EFE91D00
A732955B9780
A732AAA4B5D0
A732AAAE5D70
A7329552D724
A732FAB8725C
A732400B25CC
A732400258C9
A73240019CD9
A73240019CD9
A732400258C9
A732400B25CC
A7326AB8729C
A7325552D724
A7326AAE5D70
A7326AA475D0
A732555B9780
A7327FE91D00
A7324006E400
A7327FFE4000
A73240000000
A73240000000
A73240000000
A73240000000
011100000000
ENDCHAR
STARTCHAR germandbls
ENCODING 223
SWIDTH 826 0
DWIDTH 26 0
BBX 25 30 1 -3
BITMAP
0006FFFF900000
007940016E0000
02D1AAAA478000
0A1E9555B4A000
1C745AA51E3800
35D7AAAAD35C00
725D155475C900
A735FFFF5C9600
A6324001CDA600
96334000C9A600
96336AAB8C9600
9633555528C900
96335556E25C00
96336AAAE29C00
963355542C9A00
96337FFF8A6300
96334000A73240
96334000673640
96334000A63240
96337FFF8A7340
963355542C9700
96336AAAE28A00
96336AA50B2C00
96335555B87400
96336AAA42D000
963340016E4000
96337FFFA40000
96334000000000
96334000000000
01110000000000
ENDCHAR
STARTCHAR agrave
ENCODING 224
SWIDTH 832 0
DWIDTH 27 0
BBX 25 33 1 -1
BITMAP
01E00000000000
082E4000000000
0B82E400000000
00B92E40000000
000B92E4000000
0000B910000000
00000B40000000
00000000000000
00000000000000
0001BFFE400000
001F9005B40000
00B46BE91E0000
0287E55BD2C000
0A2D1A9478A000
1CB5FAAF4A2800
35C74551E39C00
735D7EBD35CA00
9735E0075C9600
DA734001C96300
C9A70000967300
CDA60000A63340
CDA70000A63240
C9630000A63240
9A328000A63240
A328E405A63240
328D2FF9A63240
28D79005A63240
0D747FFDA63240
074A4141A63240
01E1BAADA63240
002D0550A63240
0006E96AA63240
00001A94000000
ENDCHAR
STARTCHAR aacute
ENCODING 225
SWIDTH 832 0
DWIDTH 27 0
BBX 25 33 1 -1
BITMAP
000000001B4000
00000001B85000
0000001B86E000
000001B46E0000
00001B46E00000
0000046D000000
000002D0000000
00000000000000
00000000000000
0001BFFE400000
001F9005B40000
00B46BE91E0000
0287E55BD2C000
0A2D1A9478A000
1CB5FAAF4A2800
35C74551E39C00
735D7EBD35CA00
9735E0075C9600
DA734001C96300
C9A70000967300
CDA60000A63340
CDA70000A63240
C9630000A63240
9A328000A63240
A328E405A63240
328D2FF9A63240
28D79005A63240
0D747FFDA63240
074A4141A63240
01E1BAADA63240
002D0550A63240
0006E96AA63240
00001A94000000
ENDCHAR
STARTCHAR acircumflex
ENCODING 226
SWIDTH 832 0
DWIDTH 27 0
BBX 25 34 1 -1
BITMAP
00000960000000
00001E34000000
00002768000000
0000729C000000
0000A1C9000000
0000D996000000
0001CD63400000
00025832800000
00000000000000
00000000000000
0001BFFE400000
001F9005B40000
00B46BE91E0000
0287E55BD2C000
0A2D1A9478A000
1CB5FAAF4A2800
35C74551E39C00
735D7EBD35CA00
9735E0075C9600
DA734001C96300
C9A70000967300
CDA60000A63340
CDA70000A63240
C9630000A63240
9A328000A63240
A328E405A63240
328D2FF9A63240
28D79005A63240
0D747FFDA63240
074A4141A63240
01E1BAADA63240
002D0550A63240
0006E96AA63240
00001A94000000
ENDCHAR
STARTCHAR atilde
ENCODING 227
SWIDTH 832 0
DWIDTH 27 0
BBX 25 32 1 -1
BITMAP
001AAAAA085000
01EAAAA90C9000
0345555568D000
072EAAAAA1C000
0A3000001B4000
0A60FFFFF90000
00000000000000
00000000000000
0001BFFE400000
001F9005B40000
00B46BE91E0000
0287E55BD2C000
0A2D1A9478A000
1CB5FAAF4A2800
35C74551E39C00
735D7EBD35CA00
9735E0075C9600
DA734001C96300
C9A70000967300
CDA60000A63340
CDA70000A63240
C9630000A63240
9A328000A63240
A328E405A63240
328D2FF9A63240
28D79005A63240
0D747FFDA63240
074A4141A63240
01E1BAADA63240
002D0550A63240
0006E96AA63240
00001A94000000
ENDCHAR
STARTCHAR adieresis
ENCODING 228
SWIDTH 832 0
DWIDTH 27 0
BBX 25 30 1 -1
BITMAP
0096700CDA0000
0096700CDA0000
0096700CDA0000
00451004450000
00000000000000
00000000000000
0001BFFE400000
001F9005B40000
00B46BE91E0000
0287E55BD2C000
0A2D1A9478A000
1CB5FAAF4A2800
35C74551E39C00
735D7EBD35CA00
9735E0075C9600
DA734001C96300
C9A70000967300
CDA60000A63340
CDA70000A63240
C9630000A63240
9A328000A63240
A328E405A63240
328D2FF9A63240
28D79005A63240
0D747FFDA63240
074A4141A63240
01E1BAADA63240
002D0550A63240
0006E96AA63240
00001A94000000
ENDCHAR
STARTCHAR aring
ENCODING 229
SWIDTH 832 0
DWIDTH 27 0
BBX 25 34 1 -1
BITMAP
00001BB4000000
00007559000000
0000DAA7000000
0000D816400000
0000D81A400000
0000DD77000000
0000655A000000
00001EB4000000
00000140000000
00000000000000
0001BFFE400000
001F9005B40000
00B46BE91E0000
0287E55BD2C000
0A2D1A9478A000
1CB5FAAF4A2800
35C74551E39C00
735D7EBD35CA00
9735E0075C9600
DA734001C96300
C9A70000967300
CDA60000A63340
CDA70000A63240
C9630000A63240
9A328000A63240
A328E405A63240
328D2FF9A63240
28D79005A63240
0D747FFDA63240
074A4141A63240
01E1BAADA63240
002D0550A63240
0006E96AA63240
00001A94000000
ENDCHAR
STARTCHAR ae
ENCODING 230
SWIDTH 1166 0
DWIDTH 37 0
BBX 35 24 1 -1
BITMAP
0001BFFE4121AAAAA8
001F9005B532AAAAA8
00B46BE91E32555554
0287E55BD2D2FFFFFC
0A2D1A9478B2400000
1CB5FAAF4A2AFFFFFC
35C74551E39F400000
735D7EBD35CB400000
9735E0075C97400000
DA734001C963FFFFF4
C9A700009673400000
CDA60000A633EAAAA4
CDA70000A632955550
C9630000A632AAAAA4
9A328000A632AAAAA4
A328E405A632400000
328D2FF9A632400000
28D79005A632AAAAA8
0D747FFDA632AAAAA8
074A4141A632955554
01E1BAADA632AAAAA8
002D0550A632400000
0006E96AA632FFFFFC
00001A940000000000
ENDCHAR
STARTCHAR ccedilla
ENCODING 231
SWIDTH 736 0
DWIDTH 24 0
BBX 22 35 1 -11
BITMAP
000016A50000
0002FAABD000
002E45507900
00A0BEBE4740
038B9001E5D0
0A286FF92D50
1CA1E4078600
35CB4AE4B000
735C795E1000
A735D0024000
DA7340000000
C9A700000000
CDA600000000
C9A600000000
C96300000000
963280010000
6328E0074000
328D2EBD2000
28D78151E100
0D74BAAF4A00
071E069478A0
01D2E55BD280
00781AE91E00
000B9405F400
00006FFE4000
00000A700000
0000BE700000
000280700000
00031FF00000
000734000000
000630000000
000739500000
00034AA00000
0002D4000000
00006FF00000
ENDCHAR
STARTCHAR egrave
ENCODING 232
SWIDTH 666 0
DWIDTH 21 0
BBX 20 32 0 0
BITMAP
0780000000
21B8000000
6E1B800000
06E0B80000
006E0B8000
0006E04000
00002D0000
0000000000
0000000000
14486AAAAA
298CAAAAAA
298C955555
298CBFFFFF
298C900000
298CBFFFFF
298C900000
298C900000
298C900000
298CBFFFFD
298C900000
298CBAAAA9
298CA55554
298CAAAAA9
298CAAAAA9
298C900000
298C900000
298CAAAAAA
298CAAAAAA
298CA55555
298CBAAAAA
298C900000
298CBFFFFF
ENDCHAR
STARTCHAR eacute
ENCODING 233
SWIDTH 666 0
DWIDTH 21 0
BBX 20 32 1 0
BITMAP
00000001B0
0000001B45
000001F46D
00001F46D0
0001F47D00
000147D000
00002D0000
0000000000
0000000000
5121AAAAA8
A632AAAAA8
A632555554
A632FFFFFC
A632400000
A632FFFFFC
A632400000
A632400000
A632400000
A632FFFFF4
A632400000
A632EAAAA4
A632955550
A632AAAAA4
A632AAAAA4
A632400000
A632400000
A632AAAAA8
A632AAAAA8
A632955554
A632EAAAA8
A632400000
A632FFFFFC
ENDCHAR
STARTCHAR ecircumflex
ENCODING 234
SWIDTH 666 0
DWIDTH 21 0
BBX 19 33 1 0
BITMAP
0000960000
0002E30000
0003724000
000725C000
00091CD000
000C9DA000
0028CA3000
0025832400
0000000000
0000000000
5121AAAAA8
A632AAAAA8
A632555554
A632FFFFFC
A632400000
A632FFFFFC
A632400000
A632400000
A632400000
A632FFFFF4
A632400000
A632EAAAA4
A632955550
A632AAAAA4
A632AAAAA4
A632400000
A632400000
A632AAAAA8
A632AAAAA8
A632955554
A632EAAAA8
A632400000
A632FFFFFC
ENDCHAR
STARTCHAR edieresis
ENCODING 235
SWIDTH 666 0
DWIDTH 21 0
BBX 19 29 1 0
BITMAP
0DA601CC90
0DA601CC90
0DA601CC90
0451004440
0000000000
0000000000
5121AAAAA8
A632AAAAA8
A632555554
A632FFFFFC
A632400000
A632FFFFFC
A632400000
A632400000
A632400000
A632FFFFF4
A632400000
A632EAAAA4
A632955550
A632AAAAA4
A632AAAAA4
A632400000
A632400000
A632AAAAA8
A632AAAAA8
A632955554
A632EAAAA8
A632400000
A632FFFFFC
ENDCHAR
STARTCHAR igrave
ENCODING 236
SWIDTH 337 0
DWIDTH 11 0
BBX 15 32 -5 0
BITMAP
0B400000
51F40000
7D1F4000
07D1B400
007D1B40
0006D140
00006C00
00000000
00000000
00051210
000A6324
000A6324
000A6324
000A6324
000A6324
000A6324
000A6324
000A6324
000A6324
000A6324
000A6324
000A6324
000A6324
000A6324
000A6324
000A6324
000A6324
000A6324
000A6324
000A6324
000A6324
000A6324
ENDCHAR
STARTCHAR iacute
ENCODING 237
SWIDTH 337 0
DWIDTH 11 0
BBX 15 32 1 0
BITMAP
00000780
0000B914
000B91E4
00B92E40
0B92E400
052E4000
01E40000
00000000
00000000
51210000
A6324000
A6324000
A6324000
A6324000
A6324000
A6324000
A6324000
A6324000
A6324000
A6324000
A6324000
A6324000
A6324000
A6324000
A6324000
A6324000
A6324000
A6324000
A6324000
A6324000
A6324000
A6324000
ENDCHAR
STARTCHAR icircumflex
ENCODING 238
SWIDTH 337 0
DWIDTH 11 0
BBX 10 33 0 0
BITMAP
018900
03DA00
07A300
093240
0C25C0
189CD0
358DA0
624A30
000000
000000
144840
298C90
298C90
298C90
298C90
298C90
298C90
298C90
298C90
298C90
298C90
298C90
298C90
298C90
298C90
298C90
298C90
298C90
298C90
298C90
298C90
298C90
298C90
ENDCHAR
STARTCHAR idieresis
ENCODING 239
SWIDTH 337 0
DWIDTH 11 0
BBX 16 29 -3 0
BITMAP
73240963
73240963
73240963
11100511
00000000
00000000
00512100
00A63240
00A63240
00A63240
00A63240
00A63240
00A63240
00A63240
00A63240
00A63240
00A63240
00A63240
00A63240
00A63240
00A63240
00A63240
00A63240
00A63240
00A63240
00A63240
00A63240
00A63240
00A63240
ENDCHAR
STARTCHAR eth
ENCODING 240
SWIDTH 783 0
DWIDTH 25 0
BBX 24 28 0 -1
BITMAP
0001AFFA4000
002E9516F400
01E46AA51E00
074BE55BD2C0
0079155478A0
0052FAAF4A24
000A0141E35C
0000BFF935CD
000040075CDA
00000001CC96
00000500CDA6
0006FFFCC9A6
00790000C9A6
02D2BFF8C9A6
0A1E4004C9A6
1CB1AFE8C9A6
25C79554C9A6
325C6AA8C9A6
3369D555CD96
736580029C9A
3258BEBE28C9
358A4551A28C
18E2EAAF8B28
0D381A946C70
074BA55BD1D0
01E06BA91B40
002E5005B800
0001BFFE4000
ENDCHAR
STARTCHAR ntilde
ENCODING 241
SWIDTH 787 0
DWIDTH 25 0
BBX 23 31 1 0
BITMAP
001AAAA91880
01EAAAA918C0
0745555575C0
0A3EAAAA9280
0DA000001B00
0D91FFFFF800
000000000000
000000000000
514450001154
B5CA34003658
BCA35C003658
AA728D003658
A728D7003658
A28D72803658
A5D728D03658
A6635CA03658
A635CA343658
A61CA35C3658
A61A35C93658
A63728D73658
A6328D72A658
A630D728D258
A630729DA258
A63035CA3658
A6301CA35D58
A6300A35CA58
A6300358D718
A630028D7298
A63000D728E8
A63000728D78
A6300025CA38
ENDCHAR
STARTCHAR ograve
ENCODING 242
SWIDTH 833 0
DWIDTH 27 0
BBX 25 33 1 -1
BITMAP
00E40000000000
051E4000000000
0B91E400000000
00791F40000000
000791F4000000
00007D14000000
00000780000000
00000000000000
00001694000000
0002FAAB900000
002E45507D0000
00A0BEBE474000
038B9001F5D000
0A286FF92D7400
1CA1E407875800
35CB4AE4B28D00
735C795E28D600
A735D0028D6300
DA734000D63240
C9A70000633640
CDA60000632680
C9A60000633680
C9630000A73640
96328001CA7340
6328E0075CA700
328D2EBD35CA00
28D78151E38C00
0D74BAAF4A2800
071E06A478A000
01D2E55BD2C000
00781AE91E0000
000B9406F40000
00006FFE400000
ENDCHAR
STARTCHAR oacute
ENCODING 243
SWIDTH 833 0
DWIDTH 27 0
BBX 25 33 1 -1
BITMAP
000000000B4000
00000000B92000
0000000B92E400
000000B82E4000
00000B82E40000
0000042E000000
000001E0000000
00000000000000
00001694000000
0002FAAB900000
002E45507D0000
00A0BEBE474000
038B9001F5D000
0A286FF92D7400
1CA1E407875800
35CB4AE4B28D00
735C795E28D600
A735D0028D6300
DA734000D63240
C9A70000633640
CDA60000632680
C9A60000633680
C9630000A73640
96328001CA7340
6328E0075CA700
328D2EBD35CA00
28D78151E38C00
0D74BAAF4A2800
071E06A478A000
01D2E55BD2C000
00781AE91E0000
000B9406F40000
00006FFE400000
ENDCHAR
STARTCHAR ocircumflex
ENCODING 244
SWIDTH 833 0
DWIDTH 27 0
BBX 25 34 1 -1
BITMAP
00000A20000000
00000F28000000
00001A9C000000
000035CD000000
000070D6000000
0000A6A3000000
0000CA32800000
00018D25800000
00000000000000
00001694000000
0002FAAB900000
002E45507D0000
00A0BEBE474000
038B9001F5D000
0A286FF92D7400
1CA1E407875800
35CB4AE4B28D00
735C795E28D600
A735D0028D6300
DA734000D63240
C9A70000633640
CDA60000632680
C9A60000633680
C9630000A73640
96328001CA7340
6328E0075CA700
328D2EBD35CA00
28D78151E38C00
0D74BAAF4A2800
071E06A478A000
01D2E55BD2C000
00781AE91E0000
000B9406F40000
00006FFE400000
ENDCHAR
STARTCHAR otilde
ENCODING 245
SWIDTH 833 0
DWIDTH 27 0
BBX 25 32 1 -1
BITMAP
001AAAAA055000
00BAAAAA096000
028155556CA000
035EAAAAA0D000
07340000178000
0630BFFFF90000
00000000000000
00001694000000
0002FAAB900000
002E45507D0000
00A0BEBE474000
038B9001F5D000
0A286FF92D7400
1CA1E407875800
35CB4AE4B28D00
735C795E28D600
A735D0028D6300
DA734000D63240
C9A70000633640
CDA60000632680
C9A60000633680
C9630000A73640
96328001CA7340
6328E0075CA700
328D2EBD35CA00
28D78151E38C00
0D74BAAF4A2800
071E06A478A000
01D2E55BD2C000
00781AE91E0000
000B9406F40000
00006FFE400000
ENDCHAR
STARTCHAR odieresis
ENCODING 246
SWIDTH 833 0
DWIDTH 27 0
BBX 25 30 1 -1
BITMAP
00633409A60000
00633409A60000
00633409A60000
00111004510000
00000000000000
00001694000000
0002FAAB900000
002E45507D0000
00A0BEBE474000
038B9001F5D000
0A286FF92D7400
1CA1E407875800
35CB4AE4B28D00
735C795E28D600
A735D0028D6300
DA734000D63240
C9A70000633640
CDA60000632680
C9A60000633680
C9630000A73640
96328001CA7340
6328E0075CA700
328D2EBD35CA00
28D78151E38C00
0D74BAAF4A2800
071E06A478A000
01D2E55BD2C000
00781AE91E0000
000B9406F40000
00006FFE400000
ENDCHAR
STARTCHAR divide
ENCODING 247
SWIDTH 260 0
DWIDTH 8 0
BBX 11 19 -1 1
BITMAP
096300
0A6300
0A6300
0A6300
0A6300
056200
000000
555550
AAAAA0
000000
FFFFF4
000000
000000
0A6300
0A6300
0A6300
0A6300
0A6300
055200
ENDCHAR
STARTCHAR oslash
ENCODING 248
SWIDTH 832 0
DWIDTH 27 0
BBX 25 29 1 -3
BITMAP
00000000240000
00000000720000
00001694971000
0002FAAB957000
002E4550799000
00A0BEBE474000
038B9001E5D000
0A286FF92D7400
1CA2E407875800
35CB5AE4B28D00
735C795E28D600
A735D0028D6300
DA734000D63240
C9A70000633640
CD960000632680
CDA60000633680
C9630000A73240
96328001CA7340
A328E0075CA700
728D2EBD35CA00
28D78151E39C00
0D74BAAF4A2800
071E06A478A000
01D2E55BD28000
01781AE91E0000
071B9406F40000
05716FFE400000
00A70000000000
000A0000000000
ENDCHAR
STARTCHAR ugrave
ENCODING 249
SWIDTH 795 0
DWIDTH 25 0
BBX 23 33 1 -1
BITMAP
02E000000000
046E00000000
1B86E0000000
01B86E000000
001B86E00000
0001B8100000
00001B400000
000000000000
000000000000
551100015448
9673000269CC
9673000269CC
9673000269CC
9673000269CC
9673000269CC
9673000269CC
9673000269CC
9673000269CC
9673000269CC
9673000269CC
9673000269CC
9673000269CC
96734003698C
A6328007258C
6328E01D7258
329D7EF4A724
29D745478A30
1D75FAAE28A0
0B1D1A91E2C0
0287E55B8B00
00B46BA46800
001F9016E000
0001BFF90000
ENDCHAR
STARTCHAR uacute
ENCODING 250
SWIDTH 795 0
DWIDTH 25 0
BBX 23 33 1 -1
BITMAP
000000001B00
00000001F450
0000001F46D0
000001F47D00
00001E47D000
0000147D0000
000002D00000
000000000000
000000000000
551100015448
9673000269CC
9673000269CC
9673000269CC
9673000269CC
9673000269CC
9673000269CC
9673000269CC
9673000269CC
9673000269CC
9673000269CC
9673000269CC
9673000269CC
96734003698C
A6328007258C
6328E01D7258
329D7EF4A724
29D745478A30
1D75FAAE28A0
0B1D1A91E2C0
0287E55B8B00
00B46BA46800
001F9016E000
0001BFF90000
ENDCHAR
STARTCHAR ucircumflex
ENCODING 251
SWIDTH 795 0
DWIDTH 25 0
BBX 23 34 1 -1
BITMAP
000019500000
00002E700000
000037240000
000063580000
0000918D0000
0001C9DA0000
00029CA70000
000258624000
000000000000
000000000000
551100015448
9673000269CC
9673000269CC
9673000269CC
9673000269CC
9673000269CC
9673000269CC
9673000269CC
9673000269CC
9673000269CC
9673000269CC
9673000269CC
9673000269CC
96734003698C
A6328007258C
6328E01D7258
329D7EF4A724
29D745478A30
1D75FAAE28A0
0B1D1A91E2C0
0287E55B8B00
00B46BA46800
001F9016E000
0001BFF90000
ENDCHAR
STARTCHAR udieresis
ENCODING 252
SWIDTH 795 0
DWIDTH 25 0
BBX 23 30 1 -1
BITMAP
00D96018CD00
00D96018CD00
00D96018CD00
004410044400
000000000000
000000000000
551100015448
9673000269CC
9673000269CC
9673000269CC
9673000269CC
9673000269CC
9673000269CC
9673000269CC
9673000269CC
9673000269CC
9673000269CC
9673000269CC
9673000269CC
96734003698C
A6328007258C
6328E01D7258
329D7EF4A724
29D745478A30
1D75FAAE28A0
0B1D1A91E2C0
0287E55B8B00
00B46BA46800
001F9016E000
0001BFF90000
ENDCHAR
STARTCHAR yacute
ENCODING 253
SWIDTH 733 0
DWIDTH 23 0
BBX 23 32 0 0
BITMAP
000000001B00
00000001B450
0000001F46D0
000001F46D00
00001F47D000
0000147D0000
000002D00000
000000000000
000000000000
511140011544
3258C0063368
19CDA009A630
0C963418C9A0
067358269CC0
0329CD732680
018C96967300
00DA71CD9600
00632659CD00
003697365800
0018CA633400
000D9CDA6000
0006298C9000
000372698000
0001E7324000
0000D9630000
0000D9670000
0000D9670000
0000D9670000
0000D9670000
0000D9670000
0000D9670000
0000D9670000
ENDCHAR
STARTCHAR thorn
ENCODING 254
SWIDTH 833 0
DWIDTH 27 0
BBX 25 30 1 -4
BITMAP
66324000000000
A7324000000000
A7324000000000
A7324000000000
A7324000000000
A7324000000000
A7324000000000
A7327FFFF90000
A73240001B8000
A7326FFFA4B400
A73255556E2C00
A7326AAA528A00
A7326AAAB89700
A73255554E7340
A7326AAAD73640
A7324000632680
A7325555A33680
A7326AAA4A3240
A732555568A300
A7327FFFA2CA00
A73240001B5C00
A7327FFFF87400
A732555506D000
A7326AAABD0000
A7325555500000
A7324000000000
A7324000000000
A7324000000000
A7324000000000
51110000000000
ENDCHAR
STARTCHAR ydieresis
ENCODING 255
SWIDTH 733 0
DWIDTH 23 0
BBX 23 29 0 0
BITMAP
00DA601CC900
00DA601CC900
00DA601CC900
004510044400
000000000000
000000000000
511140011544
3258C0063368
19CDA009A630
0C963418C9A0
067358269CC0
0329CD732680
018C96967300
00DA71CD9600
00632659CD00
003697365800
0018CA633400
000D9CDA6000
0006298C9000
000372698000
0001E7324000
0000D9630000
0000D9670000
0000D9670000
0000D9670000
0000D9670000
0000D9670000
0000D9670000
0000D9670000
ENDCHAR
STARTCHAR Amacron
ENCODING 256
SWIDTH 936 0
DWIDTH 30 0
BBX 30 26 0 0
BITMAP
0000072589000000
00000B9CD6000000
00001DCD63000000
000028D632800000
000035A329C00000
000073725CD00000
00009725CD600000
0001C95CD6300000
00028C9DA3280000
000368CA329C0000
0007368725CD0000
000973665CD60000
000C9735CDA30000
0028CA70DA328000
00368CA0A325C000
007358C0325CD000
0097358025CDA000
00C9736A98DA3000
028CA7154DA32400
0358CA555A725C00
07358DAAA725CD00
0A7358555258DA00
0CA737FFFD8DA300
18CA700000DA3240
358CA00000A725C0
7358D000007258D0
ENDCHAR
STARTCHAR amacron
ENCODING 257
SWIDTH 832 0
DWIDTH 27 0
BBX 25 24 1 -1
BITMAP
0001BFFE400000
001F9005B40000
00B46BE91E0000
0287E55BD2C000
0A2D1A9478A000
1CB5FAAF4A2800
35C74551E39C00
735D7EBD35CA00
9735E0075C9600
DA734001C96300
C9A70000967300
CDA60000A63340
CDA70000A63240
C9630000A63240
9A328000A63240
A328E405A63240
328D2FF9A63240
28D79005A63240
0D747FFDA63240
074A4141A63240
01E1BAADA63240
002D0550A63240
0006E96AA63240
00001A94000000
ENDCHAR
STARTCHAR Abreve
ENCODING 258
SWIDTH 936 0
DWIDTH 30 0
BBX 30 33 0 0
BITMAP
0000098026000000
0000066A99000000
0000029568000000
0000006F90000000
0000000000000000
0000000000000000
0000000000000000
0000072589000000
00000B9CD6000000
00001DCD63000000
000028D632800000
000035A329C00000
000073725CD00000
00009725CD600000
0001C95CD6300000
00028C9DA3280000
000368CA329C0000
0007368725CD0000
000973665CD60000
000C9735CDA30000
0028CA70DA328000
00368CA0A325C000
007358C0325CD000
0097358025CDA000
00C9736A98DA3000
028CA7154DA32400
0358CA555A725C00
07358DAAA725CD00
0A7358555258DA00
0CA737FFFD8DA300
18CA700000DA3240
358CA00000A725C0
7358D000007258D0
ENDCHAR
STARTCHAR abreve
ENCODING 259
SWIDTH 832 0
DWIDTH 27 0
BBX 25 30 1 -1
BITMAP
00027019800000
00019EA6400000
0000A51A000000
00001BE4000000
00000000000000
00000000000000
0001BFFE400000
001F9005B40000
00B46BE91E0000
0287E55BD2C000
0A2D1A9478A000
1CB5FAAF4A2800
35C74551E39C00
735D7EBD35CA00
9735E0075C9600
DA734001C96300
C9A70000967300
CDA60000A63340
CDA70000A63240
C9630000A63240
9A328000A63240
A328E405A63240
328D2FF9A63240
28D79005A63240
0D747FFDA63240
074A4141A63240
01E1BAADA63240
002D0550A63240
0006E96AA63240
00001A94000000
ENDCHAR
STARTCHAR Aogonek
ENCODING 260
SWIDTH 937 0
DWIDTH 30 0
BBX 29 36 1 -10
BITMAP
00001D6328000000
00002E329C000000
00003729C9000000
0000729CD6000000
000095CD63000000
0000C9D632800000
00028CA329C00000
000368729CD00000
00073665CD600000
0009735CD6300000
000C970DA3280000
0028CA6A329C0000
00368CA325CD0000
007358C25CD60000
00973581CDA30000
00CA7340DA328000
028CA700A325C000
0358CAAA725CD000
07358D5565CDA000
0A7359555CDA3000
0CA736AA9DA32400
18CA71555A725C00
358DABFFF725CD00
7358D000025CDA00
A7258000018DA300
CA72400000DA3240
000006F000000000
00002D0000000000
000070A000000000
0000639000000000
0000A70000000000
0000A62000000000
0000A63000000000
0000A63000000000
0000A63000000000
0000A63000000000
ENDCHAR
STARTCHAR aogonek
ENCODING 261
SWIDTH 832 0
DWIDTH 27 0
BBX 25 33 1 -10
BITMAP
0001BFFE400000
001F9005B40000
00B46BE91E0000
0287E55BD2C000
0A2D1A9478A000
1CB5FAAF4A2800
35C74551E39C00
735D7EBD35CA00
9735E0075C9600
DA734001C96300
C9A70000967300
CDA60000A63340
CDA70000A63240
C9630000A63240
9A328000A63240
A328E405A63240
328D2FF9A63240
28D79005A63240
0D747FFDA63240
074A4141A63240
01E1BAADA63240
002D0550A63240
0006EA6AA63240
0000BF94000000
0002D000000000
00070A00000000
00063900000000
000A7000000000
000A6200000000
000A6300000000
000A6300000000
000A6300000000
000A6300000000
ENDCHAR
STARTCHAR Cacute
ENCODING 262
SWIDTH 852 0
DWIDTH 27 0
BBX 26 37 1 -1
BITMAP
0000000001B400
000000001B8500
00000001B86E00
0000001B46E000
000001B46E0000
00000046D00000
0000002D000000
00000000000000
00000000000000
00001AFFA40000
0001F9416E4000
001B45AA51E000
00787E96B92D00
01D2D155078740
075E1FAAE4B1C0
0D74B4141E2C50
1CE386FF928900
35CA2D0078A000
735CA0000A0000
A735C000010000
DA734000000000
C9670000000000
CDA60000000000
CDA60000000000
C9A70000000000
DA734000000000
97358000010000
6368A0000A0000
368A290078A000
18D387EBD2C900
0D74A4551E1C40
075D2FAAF4B5D0
01D791A9478740
0074BE55BD1D00
001E46BE91B400
0001E5006F4000
00001BFFE40000
ENDCHAR
STARTCHAR cacute
ENCODING 263
SWIDTH 736 0
DWIDTH 24 0
BBX 23 33 1 -1
BITMAP
000000000B40
00000000B920
0000000B92E4
000000B82E40
00000B82E400
0000042E0000
000001E00000
000000000000
000016A50000
0002FAABD000
002E45507900
00A0BEBE4740
038B9001E5D0
0A286FF92D50
1CA1E4078600
35CB4AE4B000
735C795E1000
A735D0024000
DA7340000000
C9A700000000
CDA600000000
C9A600000000
C96300000000
963280010000
6328E0074000
328D2EBD2000
28D78151E100
0D74BAAF4A00
071E069478A0
01D2E55BD280
00781AE91E00
000B9405F400
00006FFE4000
ENDCHAR
STARTCHAR Cdotaccent
ENCODING 266
SWIDTH 852 0
DWIDTH 27 0
BBX 26 35 1 -1
BITMAP
000002FF800000
00000155400000
000002AA400000
000001AA400000
00000155400000
000002AA800000
00000000000000
00001AFFA40000
0001F9416E4000
001B45AA51E000
00787E96B92D00
01D2D155078740
075E1FAAE4B1C0
0D74B4141E2C50
1CE386FF928900
35CA2D0078A000
735CA0000A0000
A735C000010000
DA734000000000
C9670000000000
CDA60000000000
CDA60000000000
C9A70000000000
DA734000000000
97358000010000
6368A0000A0000
368A290078A000
18D387EBD2C900
0D74A4551E1C40
075D2FAAF4B5D0
01D791A9478740
0074BE55BD1D00
001E46BE91B400
0001E5006F4000
00001BFFE40000
ENDCHAR
STARTCHAR cdotaccent
ENCODING 267
SWIDTH 736 0
DWIDTH 24 0
BBX 22 32 1 -1
BITMAP
00002FFC0000
000005540000
00001AA80000
00001AA80000
000015540000
00001AA80000
000000000000
000016A50000
0002FAABD000
002E45507900
00A0BEBE4740
038B9001E5D0
0A286FF92D50
1CA1E4078600
35CB4AE4B000
735C795E1000
A735D0024000
DA7340000000
C9A700000000
CDA600000000
C9A600000000
C96300000000
963280010000
6328E0074000
328D2EBD2000
28D78151E100
0D74BAAF4A00
071E069478A0
01D2E55BD280
00781AE91E00
000B9405F400
00006FFE4000
ENDCHAR
STARTCHAR Ccaron
ENCODING 268
SWIDTH 852 0
DWIDTH 27 0
BBX 26 38 1 -1
BITMAP
00002582140000
000018D7340000
00000D99700000
00000A5CA00000
00000728C00000
00000375800000
000001F3400000
000000D7000000
00000000000000
00000000000000
00001AFFA40000
0001F9416E4000
001B45AA51E000
00787E96B92D00
01D2D155078740
075E1FAAE4B1C0
0D74B4141E2C50
1CE386FF928900
35CA2D0078A000
735CA0000A0000
A735C000010000
DA734000000000
C9670000000000
CDA60000000000
CDA60000000000
C9A70000000000
DA734000000000
97358000010000
6368A0000A0000
368A290078A000
18D387EBD2C900
0D74A4551E1C40
075D2FAAF4B5D0
01D791A9478740
0074BE55BD1D00
001E46BE91B400
0001E5006F4000
00001BFFE40000
ENDCHAR
STARTCHAR ccaron
ENCODING 269
SWIDTH 736 0
DWIDTH 24 0
BBX 22 34 1 -1
BITMAP
000188158000
0000C9368000
000096634000
000071960000
000035C90000
00002A9C0000
00000F680000
00000A340000
000000000000
000016A50000
0002FAABD000
002E45507900
00A0BEBE4740
038B9001E5D0
0A286FF92D50
1CA1E4078600
35CB4AE4B000
735C795E1000
A735D0024000
DA7340000000
C9A700000000
CDA600000000
C9A600000000
C96300000000
963280010000
6328E0074000
328D2EBD2000
28D78151E100
0D74BAAF4A00
071E069478A0
01D2E55BD280
00781AE91E00
000B9405F400
00006FFE4000
ENDCHAR
STARTCHAR Dcaron
ENCODING 270
SWIDTH 886 0
DWIDTH 28 0
BBX 27 37 1 0
BITMAP
00006245200000
0000368D600000
000029DCD00000
00001C69C00000
00000932800000
00000663000000
000003D6000000
000002C9000000
00000000000000
00000000000000
00000000000000
7FFFFFFEA40000
A55555556E4000
A6AAAAAA42D000
A7AAAAAAB87800
A61555550B5D00
A63AAAABE1D700
A63000002D7280
A632FFFF8B28D0
A6324000A28CA0
A632400029C970
A63240001CD630
A63240000DA734
A6324000096334
A6324000096334
A63240000DA734
A63240001C9630
A632400028CA70
A6324000B28DA0
A632FFFF8728D0
A63155541D7680
A63AAAAAE5D740
A62AAAA5474D00
A7555555BD3800
A6AAAAAA91E000
A00000016E4000
BFFFFFFFE40000
ENDCHAR
STARTCHAR dcaron
ENCODING 271
SWIDTH 1084 0
DWIDTH 35 0
BBX 33 24 1 0
BITMAP
000000000000021540
6AAAAA950000032680
BAAAAAABE400032680
A15555542E00032680
A7FFFFFF92C0032680
A7000001B8B0002680
A73FFFFE4E28007280
A7340006D38D03D340
A732AAA975DA010B00
A732955B5CA302B800
A7324001CA72414000
A73240009736800000
A7324000A736800000
A7324000A736800000
A7324000D632400000
A73240028D73400000
A732FFFE2C97000000
A7315550B2C9000000
A73AAAAB875C000000
A72AAA942D74000000
A7555556E1D0000000
A6AAAAA94B40000000
A0000005B800000000
BFFFFFFE9000000000
ENDCHAR
STARTCHAR Dcroat
ENCODING 272
SWIDTH 888 0
DWIDTH 28 0
BBX 30 26 -2 0
BITMAP
01FFFFFFFA900000
0295555555B90000
029AAAAAA90B4000
029EAAAAAAE1E000
029C5555542D7400
029CEAAAAF875C00
029CC00000B5CA00
029CCBFFFE2CA340
029CC90002CA3280
029CC90000A729C0
7A9CC9FE007358C0
169CC95500369CD0
669CC9A900258CD0
669CC9A900258CD0
569CC95500369CD0
6A9CC9AA007258C0
029CC90000A329C0
029CC90002CA3680
029CCBFFFE1CA340
029CC5555075DA00
029CEAAAABD75D00
029CAAAA951D3400
029D555556F4E000
029AAAAAAA478000
0280000005B90000
02FFFFFFFF900000
ENDCHAR
STARTCHAR dcroat
ENCODING 273
SWIDTH 833 0
DWIDTH 27 0
BBX 28 23 -2 0
BITMAP
01AAAAAA540000
02EAAAAAAF9000
0285555540B800
029FFFFFFE4A00
0298000006E2C0
0298FFFFF978A0
0298D0001B4E34
0298CAAAA5D768
0298CA556D728C
0298C9000729C9
BA98C9FE025CDA
0298C900029CDA
6A98C9AA029CDA
5698C9550358C9
0298C9000A35CD
0298CBFFF8A25C
0298C55542CB24
0298EAAAAE1D70
0298AAAA50B5D0
029D55555B8740
029AAAAAA52D00
0280000016E000
02FFFFFFF94000
ENDCHAR
STARTCHAR Emacron
ENCODING 274
SWIDTH 706 0
DWIDTH 23 0
BBX 21 26 1 0
BITMAP
6632FFFFFF40
A63255555500
A632AAAAAA40
A632AAAAAA00
A63295555500
A632EAAAAA40
A63240000000
A63240000000
A63240000000
A63240000000
A632EAA40000
A63295540000
A632AAA40000
A632AAA40000
A63255500000
A632FFF40000
A63240000000
A63240000000
A63240000000
A63240000000
A632AAAAAA40
A632AAAAAA00
A63295555500
A632EAAAAA40
A63240000000
A632FFFFFF40
ENDCHAR
STARTCHAR emacron
ENCODING 275
SWIDTH 666 0
DWIDTH 21 0
BBX 19 23 1 0
BITMAP
5121AAAAA8
A632AAAAA8
A632555554
A632FFFFFC
A632400000
A632FFFFFC
A632400000
A632400000
A632400000
A632FFFFF4
A632400000
A632EAAAA4
A632955550
A632AAAAA4
A632AAAAA4
A632400000
A632400000
A632AAAAA8
A632AAAAA8
A632955554
A632EAAAA8
A632400000
A632FFFFFC
ENDCHAR
STARTCHAR Ebreve
ENCODING 276
SWIDTH 706 0
DWIDTH 23 0
BBX 21 33 1 0
BITMAP
0019409C0000
000DAB980000
000744B00000
0000BE800000
000000000000
000000000000
000000000000
6632FFFFFF40
A63255555500
A632AAAAAA40
A632AAAAAA00
A63295555500
A632EAAAAA40
A63240000000
A63240000000
A63240000000
A63240000000
A632EAA40000
A63295540000
A632AAA40000
A632AAA40000
A63255500000
A632FFF40000
A63240000000
A63240000000
A63240000000
A63240000000
A632AAAAAA40
A632AAAAAA00
A63295555500
A632EAAAAA40
A63240000000
A632FFFFFF40
ENDCHAR
STARTCHAR ebreve
ENCODING 277
SWIDTH 666 0
DWIDTH 21 0
BBX 19 29 1 0
BITMAP
0022019400
0025EA3000
000A51D000
0001BE4000
0000000000
0000000000
5121AAAAA8
A632AAAAA8
A632555554
A632FFFFFC
A632400000
A632FFFFFC
A632400000
A632400000
A632400000
A632FFFFF4
A632400000
A632EAAAA4
A632955550
A632AAAAA4
A632AAAAA4
A632400000
A632400000
A632AAAAA8
A632AAAAA8
A632955554
A632EAAAA8
A632400000
A632FFFFFC
ENDCHAR
STARTCHAR Edotaccent
ENCODING 278
SWIDTH 706 0
DWIDTH 23 0
BBX 21 34 1 0
BITMAP
0001FFD00000
000000000000
0001AA800000
000055400000
0001AA800000
0001AA800000
000000000000
000000000000
6632FFFFFF40
A63255555500
A632AAAAAA40
A632AAAAAA00
A63295555500
A632EAAAAA40
A63240000000
A63240000000
A63240000000
A63240000000
A632EAA40000
A63295540000
A632AAA40000
A632AAA40000
A63255500000
A632FFF40000
A63240000000
A63240000000
A63240000000
A63240000000
A632AAAAAA40
A632AAAAAA00
A63295555500
A632EAAAAA40
A63240000000
A632FFFFFF40
ENDCHAR
STARTCHAR edotaccent
ENCODING 279
SWIDTH 666 0
DWIDTH 21 0
BBX 19 31 1 0
BITMAP
0003FF8000
0000000000
0002AA4000
0001554000
0002AA4000
0002AA4000
0000000000
0000000000
5121AAAAA8
A632AAAAA8
A632555554
A632FFFFFC
A632400000
A632FFFFFC
A632400000
A632400000
A632400000
A632FFFFF4
A632400000
A632EAAAA4
A632955550
A632AAAAA4
A632AAAAA4
A632400000
A632400000
A632AAAAA8
A632AAAAA8
A632955554
A632EAAAA8
A632400000
A632FFFFFC
ENDCHAR
STARTCHAR Eogonek
ENCODING 280
SWIDTH 706 0
DWIDTH 23 0
BBX 21 35 1 -9
BITMAP
5632FFFFFF40
A63255555500
A632AAAAAA40
A632AAAAAA00
A63295555500
A632AAAAAA40
A63240000000
A63240000000
A63240000000
A63240000000
A632AAA40000
A63295540000
A632AAA40000
A632AAA40000
A63255500000
A632FFF40000
A63240000000
A63240000000
A63240000000
A63240000000
A632AAAAAA40
A632AAAAAA00
A63295555500
A632AAAAAA40
A63240000100
A632FFFFFF80
00000001D400
000000034A40
000000072900
000000063000
000000063100
000000063340
000000063340
000000063340
000000063340
ENDCHAR
STARTCHAR eogonek
ENCODING 281
SWIDTH 666 0
DWIDTH 21 0
BBX 20 32 1 -9
BITMAP
5121AAAAA8
A632AAAAA8
A632555554
A632FFFFFC
A632400000
A632FFFFFC
A632400000
A632400000
A632400000
A632FFFFF4
A632400000
A632EAAAA4
A632955550
A632AAAAA4
A632AAAAA4
A632400000
A632400000
A632AAAAA8
A632AAAAA8
A632955554
A632EAAAA8
A632400004
A632FFFFFD
0000000B40
0000000C28
00000018E4
00000029C0
0000002988
000000298C
000000298C
000000298C
000000298C
ENDCHAR
STARTCHAR Ecaron
ENCODING 282
SWIDTH 706 0
DWIDTH 23 0
BBX 21 37 1 0
BITMAP
001891480000
000DA3580000
000A67340000
00071A700000
00024CA00000
000198C00000
0000F5800000
0000B2400000
000000000000
000000000000
000000000000
6632FFFFFF40
A63255555500
A632AAAAAA40
A632AAAAAA00
A63295555500
A632EAAAAA40
A63240000000
A63240000000
A63240000000
A63240000000
A632EAA40000
A63295540000
A632AAA40000
A632AAA40000
A63255500000
A632FFF40000
A63240000000
A63240000000
A63240000000
A63240000000
A632AAAAAA40
A632AAAAAA00
A63295555500
A632EAAAAA40
A63240000000
A632FFFFFF40
ENDCHAR
STARTCHAR ecaron
ENCODING 283
SWIDTH 666 0
DWIDTH 21 0
BBX 19 33 1 0
BITMAP
0025422400
0029CA3000
001C9D6000
00095CD000
000629C000
0003728000
0002E30000
0001D60000
0000000000
0000000000
5121AAAAA8
A632AAAAA8
A632555554
A632FFFFFC
A632400000
A632FFFFFC
A632400000
A632400000
A632400000
A632FFFFF4
A632400000
A632EAAAA4
A632955550
A632AAAAA4
A632AAAAA4
A632400000
A632400000
A632AAAAA8
A632AAAAA8
A632955554
A632EAAAA8
A632400000
A632FFFFFC
ENDCHAR
STARTCHAR Gbreve
ENCODING 286
SWIDTH 908 0
DWIDTH 29 0
BBX 27 34 1 -1
BITMAP
00002701980000
000019EA640000
00000A51A00000
000001BE400000
00000000000000
00000000000000
00001AFFA40000
0001F9416E4000
001B45AA51E000
00787E96B92D00
01D2D155078740
075E1FAAE4B1C0
0D74B4141E2C50
1CE386FF928900
35CA2D0078A000
735CA0000A0000
A735C000010000
DA734000000000
C9670000000000
CDA60000021154
CDA60000033698
C9670000033698
DA630000033698
96328000033698
6328D000033698
328D79001B3698
28D74BEBFB3698
0D75E055073698
071D2EAABF3698
02C781AA433698
00B4BA556F3698
001E46BE973698
0002E5005B3698
00001BFFE40000
ENDCHAR
STARTCHAR gbreve
ENCODING 287
SWIDTH 827 0
DWIDTH 26 0
BBX 24 30 1 -1
BITMAP
00016408C000
0000CAB58000
0000745A0000
00001BE40000
000000000000
000016A50000
0002FAABD000
002E45507900
00A0BEBE4740
038B9001E5D0
0A286FF92D50
1CA1E4078600
35CB4AE4B000
735C795E1000
A735D0024000
DA7340000000
C9A700000000
CDA600004511
C9A600009673
C96300009673
963280009673
6328E002D673
328D2EBE9673
28D78151D673
0D74BAABD673
071E06949673
01D2E55BD673
00781AE99673
000B9406D673
00006FFE4000
ENDCHAR
STARTCHAR Gdotaccent
ENCODING 288
SWIDTH 908 0
DWIDTH 29 0
BBX 27 35 1 -1
BITMAP
000002FF800000
00000155400000
000002AA400000
000001AA400000
00000155400000
000002AA800000
00000000000000
00001AFFA40000
0001F9416E4000
001B45AA51E000
00787E96B92D00
01D2D155078740
075E1FAAE4B1C0
0D74B4141E2C50
1CE386FF928900
35CA2D0078A000
735CA0000A0000
A735C000010000
DA734000000000
C9670000000000
CDA60000021154
CDA60000033698
C9670000033698
DA630000033698
96328000033698
6328D000033698
328D79001B3698
28D74BEBFB3698
0D75E055073698
071D2EAABF3698
02C781AA433698
00B4BA556F3698
001E46BE973698
0002E5005B3698
00001BFFE40000
ENDCHAR
STARTCHAR gdotaccent
ENCODING 289
SWIDTH 827 0
DWIDTH 26 0
BBX 24 32 1 -1
BITMAP
00002FFC0000
000005540000
00001AA80000
00001AA80000
000015540000
00001AA80000
000000000000
000016A50000
0002FAABD000
002E45507900
00A0BEBE4740
038B9001E5D0
0A286FF92D50
1CA1E4078600
35CB4AE4B000
735C795E1000
A735D0024000
DA7340000000
C9A700000000
CDA600004511
C9A600009673
C96300009673
963280009673
6328E002D673
328D2EBE9673
28D78151D673
0D74BAABD673
071E06949673
01D2E55BD673
00781AE99673
000B9406D673
00006FFE4000
ENDCHAR
STARTCHAR Gcommaaccent
ENCODING 290
SWIDTH 908 0
DWIDTH 29 0
BBX 27 40 1 -13
BITMAP
00001AFFA40000
0001F9416E4000
001B45AA51E000
00787E96B92D00
01D2D155078740
075E1FAAE4B1C0
0D74B4141E2C50
1CE386FF928900
35CA2D0078A000
735CA0000A0000
A735C000010000
DA734000000000
C9670000000000
CDA60000021154
CDA60000033698
C9670000033698
DA630000033698
96328000033698
6328D000033698
328D79001B3698
28D74BEBFB3698
0D75E055073698
071D2EAABF3698
02C781AA433698
00B4BA556F3698
001E46BE973698
0002E5005B3698
00001BFFE40000
00000000000000
00000225400000
00000365800000
00000365800000
00000365800000
00000225800000
00000025800000
00000072800000
000003D3400000
0000000B000000
000002F8000000
00000140000000
ENDCHAR
STARTCHAR gcommaaccent
ENCODING 291
SWIDTH 827 0
DWIDTH 26 0
BBX 24 25 1 -1
BITMAP
000016A50000
0002FAABD000
002E45507900
00A0BEBE4740
038B9001E5D0
0A286FF92D50
1CA1E4078600
35CB4AE4B000
735C795E1000
A735D0024000
DA7340000000
C9A700000000
CDA600004511
C9A600009673
C96300009673
963280009673
6328E002D673
328D2EBE9673
28D78151D673
0D74BAABD673
071E06949673
01D2E55BD673
00781AE99673
000B9406D673
00006FFE4000
ENDCHAR
STARTCHAR Hcircumflex
ENCODING 292
SWIDTH 901 0
DWIDTH 29 0
BBX 27 36 1 0
BITMAP
00000189000000
000003DA000000
000007A3000000
00000932400000
00000C25C00000
0000189CD00000
0000358DA00000
0000624A300000
00000000000000
00000000000000
66324000066324
A63240000A6324
A63240000A6324
A63240000A6324
A63240000A6324
A63240000A6324
A63240000A6324
A63240000A6324
A63240000A6324
A63240000A6324
A632EAAAAE6324
A63295555A6324
A632AAAAAA6324
A632AAAAAA6324
A63295555A6324
A632FFFFFE6324
A63240000A6324
A63240000A6324
A63240000A6324
A63240000A6324
A63240000A6324
A63240000A6324
A63240000A6324
A63240000A6324
A63240000A6324
A63240000A6324
ENDCHAR
STARTCHAR hcircumflex
ENCODING 293
SWIDTH 830 0
DWIDTH 27 0
BBX 24 33 1 0
BITMAP
00000A240000
00000F680000
00001A9C0000
000025C90000
000070D60000
0000A6634000
0000DA328000
000189258000
000000000000
000000000000
512100005512
A63240009A73
A63240009A73
A63240009A73
A63240009A73
A63240009A73
A63240009A73
A63240009A73
A632AAAADA73
A632AAAADA73
A6329555DA73
A632EAAADA73
A63240009A73
A632FFFFDA73
A63240009A73
A63240009A73
A63240009A73
A63240009A73
A63240009A73
A63240009A73
A63240009A73
A63240009A73
A63240009A73
ENDCHAR
STARTCHAR Hbar
ENCODING 294
SWIDTH 901 0
DWIDTH 29 0
BBX 31 26 -1 0
BITMAP
0663240000663240
0A73240000A73240
0A73240000A73240
AA7326AAAAA73264
5A73255555A73254
5A73255555A73254
AA7326AAAAA73264
0A73240000A73240
0A73240000A73240
0A73240000A73240
0A732EAAAAE73240
0A73295555A73240
0A732AAAAAA73240
0A732AAAAAA73240
0A73295555A73240
0A732FFFFFE73240
0A73240000A73240
0A73240000A73240
0A73240000A73240
0A73240000A73240
0A73240000A73240
0A73240000A73240
0A73240000A73240
0A73240000A73240
0A73240000A73240
0A73240000A73240
ENDCHAR
STARTCHAR hbar
ENCODING 295
SWIDTH 830 0
DWIDTH 27 0
BBX 28 23 -1 0
BITMAP
05121400055120
0A73240009A730
0A73240009A730
AA7327FFE9A737
0A73240009A730
AA7327FFE9A737
1A73255549A735
0A73240009A730
0A732AAAADA730
0A732AAAADA730
0A7329555DA730
0A732EAAADA730
0A73240009A730
0A732FFFFDA730
0A73240009A730
0A73240009A730
0A73240009A730
0A73240009A730
0A73240009A730
0A73240009A730
0A73240009A730
0A73240009A730
0A73240009A730
ENDCHAR
STARTCHAR Itilde
ENCODING 296
SWIDTH 338 0
DWIDTH 11 0
BBX 19 35 -4 0
BITMAP
05AAAA9148
2EAAAA829C
7055555B58
D7EAAAA934
CA000001A0
CD2FFFFE80
0000000000
0000000000
0000000000
00198C9000
00298C9000
00298C9000
00298C9000
00298C9000
00298C9000
00298C9000
00298C9000
00298C9000
00298C9000
00298C9000
00298C9000
00298C9000
00298C9000
00298C9000
00298C9000
00298C9000
00298C9000
00298C9000
00298C9000
00298C9000
00298C9000
00298C9000
00298C9000
00298C9000
00298C9000
ENDCHAR
STARTCHAR itilde
ENCODING 297
SWIDTH 337 0
DWIDTH 11 0
BBX 19 31 -4 0
BITMAP
05AAAA9148
2EAAAA829C
7055555B58
D7EAAAA934
CA000001A0
CD2FFFFE80
0000000000
0000000000
0014484000
00298C9000
00298C9000
00298C9000
00298C9000
00298C9000
00298C9000
00298C9000
00298C9000
00298C9000
00298C9000
00298C9000
00298C9000
00298C9000
00298C9000
00298C9000
00298C9000
00298C9000
00298C9000
00298C9000
00298C9000
00298C9000
00298C9000
ENDCHAR
STARTCHAR Imacron
ENCODING 298
SWIDTH 338 0
DWIDTH 11 0
BBX 9 26 1 0
BITMAP
663240
A63240
A63240
A63240
A63240
A63240
A63240
A63240
A63240
A63240
A63240
A63240
A63240
A63240
A63240
A63240
A63240
A63240
A63240
A63240
A63240
A63240
A63240
A63240
A63240
A63240
ENDCHAR
STARTCHAR imacron
ENCODING 299
SWIDTH 337 0
DWIDTH 11 0
BBX 9 23 1 0
BITMAP
512100
A63240
A63240
A63240
A63240
A63240
A63240
A63240
A63240
A63240
A63240
A63240
A63240
A63240
A63240
A63240
A63240
A63240
A63240
A63240
A63240
A63240
A63240
ENDCHAR
STARTCHAR Ibreve
ENCODING 300
SWIDTH 338 0
DWIDTH 11 0
BBX 10 33 0 0
BITMAP
650260
36AE60
1D12C0
02FA00
000000
000000
000000
198C90
298C90
298C90
298C90
298C90
298C90
298C90
298C90
298C90
298C90
298C90
298C90
298C90
298C90
298C90
298C90
298C90
298C90
298C90
298C90
298C90
298C90
298C90
298C90
298C90
298C90
ENDCHAR
STARTCHAR ibreve
ENCODING 301
SWIDTH 337 0
DWIDTH 11 0
BBX 10 29 0 0
BITMAP
650260
36AE60
1D12C0
02FA00
000000
000000
144840
298C90
298C90
298C90
298C90
298C90
298C90
298C90
298C90
298C90
298C90
298C90
298C90
298C90
298C90
298C90
298C90
298C90
298C90
298C90
298C90
298C90
298C90
ENDCHAR
STARTCHAR Iogonek
ENCODING 302
SWIDTH 338 0
DWIDTH 11 0
BBX 9 35 1 -9
BITMAP
663240
A63240
A63240
A63240
A63240
A63240
A63240
A63240
A63240
A63240
A63240
A63240
A63240
A63240
A63240
A63240
A63240
A63240
A63240
A63240
A63240
A63240
A63240
A63240
A63340
A67F80
01E400
034A40
072900
063000
063100
063240
063240
063240
063240
ENDCHAR
STARTCHAR iogonek
ENCODING 303
SWIDTH 337 0
DWIDTH 11 0
BBX 9 32 1 -9
BITMAP
512100
A63240
A63240
A63240
A63240
A63240
A63240
A63240
A63240
A63240
A63240
A63240
A63240
A63240
A63240
A63240
A63240
A63240
A63240
A63240
A63240
A63340
A67F80
01E400
034A40
032900
073400
073140
073240
073240
073240
073240
ENDCHAR
STARTCHAR Idotaccent
ENCODING 304
SWIDTH 338 0
DWIDTH 11 0
BBX 9 34 1 0
BITMAP
1FFD00
055400
1AA800
1AA800
055400
1AA800
000000
000000
663240
A63240
A63240
A63240
A63240
A63240
A63240
A63240
A63240
A63240
A63240
A63240
A63240
A63240
A63240
A63240
A63240
A63240
A63240
A63240
A63240
A63240
A63240
A63240
A63240
A63240
ENDCHAR
STARTCHAR dotlessi
ENCODING 305
SWIDTH 337 0
DWIDTH 11 0
BBX 9 23 1 0
BITMAP
512100
A63240
A63240
A63240
A63240
A63240
A63240
A63240
A63240
A63240
A63240
A63240
A63240
A63240
A63240
A63240
A63240
A63240
A63240
A63240
A63240
A63240
A63240
ENDCHAR
STARTCHAR IJ
ENCODING 306
SWIDTH 774 0
DWIDTH 25 0
BBX 23 27 1 -1
BITMAP
563240066324
A632400A6324
A632400A6324
A632400A6324
A632400A6324
A632400A6324
A632400A6324
A632400A6324
A632400A6324
A632400A6324
A632400A6324
A632400A6324
A632400A6324
A632400A6324
A632400A6324
A632400A6324
A632400A6324
A63240096334
A632400DA734
A63246B8DA70
A63241428DA0
A63246AE28D0
A63246A4A280
A632415B8B00
A63247E92C00
A6324006E000
000007FE4000
ENDCHAR
STARTCHAR ij
ENCODING 307
SWIDTH 729 0
DWIDTH 23 0
BBX 21 27 1 -4
BITMAP
512140115440
A732403658C0
A732403658C0
A732403658C0
A732403658C0
A732403658C0
A732403658C0
A732403658C0
A732403658C0
A732403658C0
A732403658C0
A732403658C0
A732403658C0
A732403658C0
A732403658C0
A732403658C0
A732403659C0
A732407369C0
A73246D72580
A732451D7240
A73241B4D700
A73246878D00
A732406D2800
000007E1E000
0000001B8000
000007F80000
000001000000
ENDCHAR
STARTCHAR Jcircumflex
ENCODING 308
SWIDTH 434 0
DWIDTH 14 0
BBX 14 37 0 -1
BITMAP
00062400
000B5C00
000DCD00
0028DA00
0034A300
00737240
00972580
00C918D0
00000000
00000000
00632640
00633640
00633640
00633640
00633640
00633640
00633640
00633640
00633640
00633640
00633640
00633640
00633640
00633640
00633640
00633640
00633640
00673640
00D63240
6B8D6300
1528D600
2AE28D00
2A4B2C00
15B87400
7E92D000
006E0000
7FE40000
ENDCHAR
STARTCHAR jcircumflex
ENCODING 309
SWIDTH 393 0
DWIDTH 13 0
BBX 12 37 0 -4
BITMAP
002880
003CA0
006A70
00D734
01C358
02998C
0328CA
063496
000000
000000
015444
0259CD
0259CD
0259CD
0259CD
0259CD
0259CD
0259CD
0259CD
0259CD
0259CD
0259CD
0259CD
0259CD
0259CD
0259CD
0259CC
07298C
2D369C
14E368
1B8A34
6928A0
06E280
7E4B00
01B800
7F9000
140000
ENDCHAR
STARTCHAR Kcommaaccent
ENCODING 310
SWIDTH 815 0
DWIDTH 26 0
BBX 24 38 1 -12
BITMAP
663240028CA3
A632400328DA
A632400A368D
A632400CA368
A6324028CA34
A63240328CA0
A63240A328C0
A63241CA3280
A632428CA300
A6324728CA00
A6324A728C00
A6325CA72800
A63269CA7000
A63265CA7000
A6325C972800
A63249729C00
A6324729CA00
A632429CA700
A63241CA7280
A63240A729C0
A63240729CA0
A6324029CA30
A632401CA328
A632400A328C
A632400728CA
A63240028CA3
000000000000
000018890000
000018CD0000
000018CD0000
000018CD0000
000018CD0000
000000CD0000
0000028C0000
00001E1C0000
000000740000
00001BD00000
000005000000
ENDCHAR
STARTCHAR kcommaaccent
ENCODING 311
SWIDTH 801 0
DWIDTH 26 0
BBX 24 35 1 -12
BITMAP
512100014451
A632400729CA
A6324009725C
A632401CD724
A6324035CD70
A632406358D0
A63240DA3580
A632428DA340
A6324328DA00
A6324A728C00
A6325CA72800
A63265CA7000
A63268DA3400
A6324DA36800
A6324A358D00
A6324358D700
A63241CD7340
A63240D725C0
A63240725CA0
A6324029CA70
A632401CA328
A632400A328D
A632400368DA
000000000000
000015880000
0000298C0000
0000298C0000
0000298C0000
0000158C0000
0000018C0000
0000029C0000
00002E180000
000000740000
00001BD00000
000014000000
ENDCHAR
STARTCHAR kgreenlandic
ENCODING 312
SWIDTH 801 0
DWIDTH 26 0
BBX 24 23 1 0
BITMAP
512100014451
A632400729CA
A6324009725C
A632401CD724
A6324035CD70
A632406358D0
A63240DA3580
A632428DA340
A6324328DA00
A6324A728C00
A6325CA72800
A63265CA7000
A63268DA3400
A6324DA36800
A6324A358D00
A6324358D700
A63241CD7340
A63240D725C0
A63240725CA0
A6324029CA70
A632401CA328
A632400A328D
A632400368DA
ENDCHAR
STARTCHAR Lacute
ENCODING 313
SWIDTH 604 0
DWIDTH 19 0
BBX 19 36 1 0
BITMAP
00000006D0
0000006E14
000006D1B8
00006D1B80
0006D1B800
00011B4000
0000B40000
0000000000
0000000000
0000000000
6632400000
A632400000
A632400000
A632400000
A632400000
A632400000
A632400000
A632400000
A632400000
A632400000
A632400000
A632400000
A632400000
A632400000
A632400000
A632400000
A632400000
A632400000
A632400000
A632400000
A632AAAA90
A632AAAA80
A632955540
A632EAAA90
A632400000
A632FFFFD0
ENDCHAR
STARTCHAR lacute
ENCODING 314
SWIDTH 583 0
DWIDTH 19 0
BBX 17 32 1 0
BITMAP
0000078000
0000B91400
000B91E400
00B92E4000
0B92E40000
052E400000
01E4000000
0000000000
0000000000
5121000000
A632400000
A632400000
A632400000
A632400000
A632400000
A632400000
A632400000
A632400000
A632400000
A632400000
A632400000
A632400000
A632400000
A632400000
A632400000
A632400000
A632AAAA40
A632AAAA40
A632955540
A632EAAA40
A632400000
A632FFFF80
ENDCHAR
STARTCHAR Lcommaaccent
ENCODING 315
SWIDTH 604 0
DWIDTH 19 0
BBX 18 38 1 -12
BITMAP
6632400000
A632400000
A632400000
A632400000
A632400000
A632400000
A632400000
A632400000
A632400000
A632400000
A632400000
A632400000
A632400000
A632400000
A632400000
A632400000
A632400000
A632400000
A632400000
A632400000
A632AAAA90
A632AAAA80
A632955540
A632EAAA90
A632400000
A632FFFFD0
0000000000
0008560000
000D960000
000D960000
000D960000
0008960000
0000960000
0001DA0000
000F490000
00002C0000
000BE00000
0005000000
ENDCHAR
STARTCHAR lcommaaccent
ENCODING 316
SWIDTH 583 0
DWIDTH 19 0
BBX 17 35 1 -12
BITMAP
5121000000
A632400000
A632400000
A632400000
A632400000
A632400000
A632400000
A632400000
A632400000
A632400000
A632400000
A632400000
A632400000
A632400000
A632400000
A632400000
A632400000
A632AAAA40
A632AAAA40
A632955540
A632EAAA40
A632400000
A632FFFF80
0000000000
0018890000
001CC90000
001CC90000
001CC90000
0018C90000
0000C90000
0002CD0000
001E5C0000
0000780000
001BE00000
0005000000
ENDCHAR
STARTCHAR Lcaron
ENCODING 317
SWIDTH 856 0
DWIDTH 27 0
BBX 26 27 1 0
BITMAP
00000000018850
5632400001CC90
A632400001CC90
A632400001CC90
A6324000018C90
A6324000000C90
A6324000001CD0
A632400001F4C0
A6324000000280
A632400001AE00
A6324000005000
A6324000000000
A6324000000000
A6324000000000
A6324000000000
A6324000000000
A6324000000000
A6324000000000
A6324000000000
A6324000000000
A6324000000000
A632AAAA900000
A632AAAA800000
A6329555400000
A632AAAA900000
A6324000000000
A632FFFFD00000
ENDCHAR
STARTCHAR lcaron
ENCODING 318
SWIDTH 584 0
DWIDTH 19 0
BBX 17 24 1 0
BITMAP
0000062240
5121473240
A732473240
A732473240
A732463240
A732403240
A732407340
A73247D300
A732400A00
A73246B800
A732414000
A732400000
A732400000
A732400000
A732400000
A732400000
A732400000
A732400000
A732AAAA40
A732AAAA40
A732955540
A732EAAA40
A732400000
A732FFFF80
ENDCHAR
STARTCHAR Ldot
ENCODING 319
SWIDTH 604 0
DWIDTH 19 0
BBX 18 26 1 0
BITMAP
6632400000
A632400000
A632400000
A632400000
A632400000
A632400000
A632400000
A632400000
A632400000
A632400000
A6324BFE00
A632400000
A6324AAA00
A632455500
A63246A900
A63246AA00
A632400000
A632400000
A632400000
A632400000
A632AAAA90
A632AAAA80
A632955540
A632EAAA90
A632400000
A632FFFFD0
ENDCHAR
STARTCHAR ldot
ENCODING 320
SWIDTH 582 0
DWIDTH 19 0
BBX 17 23 1 0
BITMAP
5121400000
A732400000
A732400000
A732400000
A732400000
A7324BFF00
A732400000
A7324AAA00
A732455500
A73246A900
A73246AA00
A732400000
A732400000
A732400000
A732400000
A732400000
A732400000
A732AAAA40
A732AAAA40
A732955540
A732EAAA40
A732400000
A732FFFF80
ENDCHAR
STARTCHAR Lslash
ENCODING 321
SWIDTH 604 0
DWIDTH 19 0
BBX 21 26 -2 0
BITMAP
0198C9000000
029CC9000000
029CC9000000
029CC9000000
029CC9000000
029CC9004000
029CC91B8000
029CC9A40000
029CC9068000
029CC9B90000
069CC9418000
B69CC96E4000
429CC9900000
BA9CC9000000
929CC9000000
6A9CC9000000
929CC9000000
029CC9000000
029CC9000000
029CC9000000
029CCAAAAA40
029CCAAAAA40
029CCA555500
029CCBAAAA40
029CC9000000
029CCBFFFF40
ENDCHAR
STARTCHAR lslash
ENCODING 322
SWIDTH 581 0
DWIDTH 19 0
BBX 20 23 -2 0
BITMAP
0144850000
029CC90000
029CC90000
029CC90000
029CC90140
029CC96F40
029CC9A440
029CC91B80
029CC9A400
169CC90680
E69CC9B900
169CC94000
F69CC90000
429CC90000
BA9CC90000
929CC90000
029CC90000
029CCAAAA9
029CCAAAA9
029CCA5555
029CCBAAA9
029CC90000
029CCBFFFE
ENDCHAR
STARTCHAR Nacute
ENCODING 323
SWIDTH 877 0
DWIDTH 28 0
BBX 26 36 1 0
BITMAP
0000000006D000
000000006E1800
00000006E1B800
0000006E1B8000
000006E1B80000
0000011B800000
000000B8000000
00000000000000
00000000000000
00000000000000
7289600018C960
B8D7280018C9A0
AD729D0018C9A0
A725DA0018C9A0
A35CA34018C9A0
A5CA35C018C9A0
A5A35CA018C9A0
A635CA3418C9A0
A61CA35818C9A0
A61A368D18C9A0
A63768D718C9A0
A6328D7298C9A0
A630D728D8C9A0
A632728D70C9A0
A63268D728C9A0
A6324D729DC9A0
A6324625CA49A0
A632435CA349A0
A63241CA35C9A0
A63240A35CA9A0
A6324035CA35A0
A632401CA368A0
A632400A768DA0
A632400728D7A0
A63240028D72E0
A6324000D728E0
ENDCHAR
STARTCHAR nacute
ENCODING 324
SWIDTH 787 0
DWIDTH 25 0
BBX 23 32 1 0
BITMAP
000000001E00
00000001F450
0000001E47D0
000001E47D00
00001E479000
000014790000
000003900000
000000000000
000000000000
514450001154
B5CA34003658
BCA35C003658
AA728D003658
A728D7003658
A28D72803658
A5D728D03658
A6635CA03658
A635CA343658
A61CA35C3658
A61A35C93658
A63728D73658
A6328D72A658
A630D728D258
A630729DA258
A63035CA3658
A6301CA35D58
A6300A35CA58
A6300358D718
A630028D7298
A63000D728E8
A63000728D78
A6300025CA38
ENDCHAR
STARTCHAR Ncommaaccent
ENCODING 325
SWIDTH 877 0
DWIDTH 28 0
BBX 26 38 1 -12
BITMAP
7289600018C960
B8D7280018C9A0
AD729D0018C9A0
A725DA0018C9A0
A35CA34018C9A0
A5CA35C018C9A0
A5A35CA018C9A0
A635CA3418C9A0
A61CA35818C9A0
A61A368D18C9A0
A63768D718C9A0
A6328D7298C9A0
A630D728D8C9A0
A632728D70C9A0
A63268D728C9A0
A6324D729DC9A0
A6324625CA49A0
A632435CA349A0
A63241CA35C9A0
A63240A35CA9A0
A6324035CA35A0
A632401CA368A0
A632400A768DA0
A632400728D7A0
A63240028D72E0
A6324000D728E0
00000000000000
00000956000000
000009A7000000
000009A7000000
000009A7000000
000009A7000000
000000A6000000
000001D6000000
00000B8A000000
0000002C000000
00000AE4000000
00000500000000
ENDCHAR
STARTCHAR ncommaaccent
ENCODING 326
SWIDTH 787 0
DWIDTH 25 0
BBX 23 35 1 -12
BITMAP
514450001154
B5CA34003658
BCA35C003658
AA728D003658
A728D7003658
A28D72803658
A5D728D03658
A6635CA03658
A635CA343658
A61CA35C3658
A61A35C93658
A63728D73658
A6328D72A658
A630D728D258
A630729DA258
A63035CA3658
A6301CA35D58
A6300A35CA58
A6300358D718
A630028D7298
A63000D728E8
A63000728D78
A6300025CA38
000000000000
000022240000
000073240000
000073240000
000073240000
000023240000
000003240000
00000B240000
00007D300000
000001A00000
00002F800000
000014000000
ENDCHAR
STARTCHAR Ncaron
ENCODING 327
SWIDTH 877 0
DWIDTH 28 0
BBX 26 37 1 0
BITMAP
00005609500000
0000735C900000
00003669C00000
00002836800000
00000C63400000
000009D6000000
000007C9000000
0000039C000000
00000000000000
00000000000000
00000000000000
7289600018C960
B8D7280018C9A0
AD729D0018C9A0
A725DA0018C9A0
A35CA34018C9A0
A5CA35C018C9A0
A5A35CA018C9A0
A635CA3418C9A0
A61CA35818C9A0
A61A368D18C9A0
A63768D718C9A0
A6328D7298C9A0
A630D728D8C9A0
A632728D70C9A0
A63268D728C9A0
A6324D729DC9A0
A6324625CA49A0
A632435CA349A0
A63241CA35C9A0
A63240A35CA9A0
A6324035CA35A0
A632401CA368A0
A632400A768DA0
A632400728D7A0
A63240028D72E0
A6324000D728E0
ENDCHAR
STARTCHAR ncaron
ENCODING 328
SWIDTH 787 0
DWIDTH 25 0
BBX 23 33 1 0
BITMAP
000214624000
00025CA70000
00018CCA0000
0000D58C0000
0000A3580000
000077340000
00002E700000
00001CA00000
000000000000
000000000000
514450001154
B5CA34003658
BCA35C003658
AA728D003658
A728D7003658
A28D72803658
A5D728D03658
A6635CA03658
A635CA343658
A61CA35C3658
A61A35C93658
A63728D73658
A6328D72A658
A630D728D258
A630729DA258
A63035CA3658
A6301CA35D58
A6300A35CA58
A6300358D718
A630028D7298
A63000D728E8
A63000728D78
A6300025CA38
ENDCHAR
STARTCHAR Eng
ENCODING 330
SWIDTH 874 0
DWIDTH 28 0
BBX 26 36 1 -10
BITMAP
7289600018C990
B8D7280018CD90
AD728D0018CD90
A728D70018CD90
A28D728018CD90
A5D628D018CD90
A6A25D7018CD90
A735CA2818CD90
A71CA35D18CD90
A71A35CB18CD90
A7335CA398CD90
A731CA35D8CD90
A730A35C58CD90
A73235CA18CD90
A7325CA358CD90
A7324A3598CD90
A732475C98CD90
A732428A18CD90
A73240D758CD90
A732407298CD90
A732402898CD90
A732400D18CD90
A732400718CD90
A732400298CD90
A732400098CD90
A732400018CD90
0000000019CD90
00000000358C90
0000001BE358C0
000000050A3580
0000000AB8A340
0000000A52CA00
000000056E1C00
0000001AA4B400
000000001B8000
0000001FF90000
ENDCHAR
STARTCHAR eng
ENCODING 331
SWIDTH 691 0
DWIDTH 22 0
BBX 20 32 1 -9
BITMAP
5144500455
B5CA340C96
BCA35C0C96
AA728D0C96
A728D70C96
A28D728C96
A5D728DC96
A6A35C9C96
A635CA1C96
A61CA34C96
A61A35CC96
A63728DC96
A6328D5C96
A630D71C96
A630728C96
A63035CC96
A6301C9C96
A6300A1C96
A630034C96
A630028C96
A63000DC96
A630005C96
A630001C96
0000000C96
0000000C9A
00000028C9
000002E28C
0000000B28
000001B870
00000142D0
0000016E00
000001A400
ENDCHAR
STARTCHAR Omacron
ENCODING 332
SWIDTH 933 0
DWIDTH 30 0
BBX 28 28 1 -1
BITMAP
00001AFFA40000
0001F9416E4000
001B45AA51E000
00787E96B92D00
01D2D155078740
075E1FAAE4B1C0
0D74B4141E2CA0
1CE386FF928A34
35CA2D0078A358
735CA0000A358D
A735C0000358DA
DA734000018C96
C967000000C9A7
CDA6000000D963
CDA6000000D963
C9A7000000C9A7
DA734000018D96
97358000035CDA
6368A0000A35CD
368A290078A35C
18D387EBD2CA34
0D74A4551E1CA0
075D2FAAF4B5D0
01D791A947D740
0074BE55BD1D00
001E46BE91F400
0001E5006F4000
00001BFFE40000
ENDCHAR
STARTCHAR omacron
ENCODING 333
SWIDTH 833 0
DWIDTH 27 0
BBX 25 25 1 -1
BITMAP
00001694000000
0002FAAB900000
002E45507D0000
00A0BEBE474000
038B9001F5D000
0A286FF92D7400
1CA1E407875800
35CB4AE4B28D00
735C795E28D600
A735D0028D6300
DA734000D63240
C9A70000633640
CDA60000632680
C9A60000633680
C9630000A73640
96328001CA7340
6328E0075CA700
328D2EBD35CA00
28D78151E38C00
0D74BAAF4A2800
071E06A478A000
01D2E55BD2C000
00781AE91E0000
000B9406F40000
00006FFE400000
ENDCHAR
STARTCHAR Obreve
ENCODING 334
SWIDTH 933 0
DWIDTH 30 0
BBX 28 34 1 -1
BITMAP
00002701980000
000019EA640000
00000A51A00000
000001BE400000
00000000000000
00000000000000
00001AFFA40000
0001F9416E4000
001B45AA51E000
00787E96B92D00
01D2D155078740
075E1FAAE4B1C0
0D74B4141E2CA0
1CE386FF928A34
35CA2D0078A358
735CA0000A358D
A735C0000358DA
DA734000018C96
C967000000C9A7
CDA6000000D963
CDA6000000D963
C9A7000000C9A7
DA734000018D96
97358000035CDA
6368A0000A35CD
368A290078A35C
18D387EBD2CA34
0D74A4551E1CA0
075D2FAAF4B5D0
01D791A947D740
0074BE55BD1D00
001E46BE91F400
0001E5006F4000
00001BFFE40000
ENDCHAR
STARTCHAR obreve
ENCODING 335
SWIDTH 833 0
DWIDTH 27 0
BBX 25 30 1 -1
BITMAP
00016408C00000
0000CAB5800000
0000745A000000
00001BE4000000
00000000000000
00001694000000
0002FAAB900000
002E45507D0000
00A0BEBE474000
038B9001F5D000
0A286FF92D7400
1CA1E407875800
35CB4AE4B28D00
735C795E28D600
A735D0028D6300
DA734000D63240
C9A70000633640
CDA60000632680
C9A60000633680
C9630000A73640
96328001CA7340
6328E0075CA700
328D2EBD35CA00
28D78151E38C00
0D74BAAF4A2800
071E06A478A000
01D2E55BD2C000
00781AE91E0000
000B9406F40000
00006FFE400000
ENDCHAR
STARTCHAR Ohungarumlaut
ENCODING 336
SWIDTH 933 0
DWIDTH 30 0
BBX 30 37 1 -1
BITMAP
0000000B40001B00
000001B82001B450
00001B82E01F46E0
0001B86E01F46D00
001B86E01F46D000
00046E00147D0000
0001E00002D00000
0000000000000000
0000000000000000
00001AFFA4000000
0001F9416E400000
001B45AA51E00000
00787E96B92D0000
01D2D15507874000
075E1FAAE4B1C000
0D74B4141E2CA000
1CE386FF928A3400
35CA2D0078A35800
735CA0000A358D00
A735C0000358DA00
DA734000018C9600
C967000000C9A700
CDA6000000D96300
CDA6000000D96300
C9A7000000C9A700
DA734000018D9600
97358000035CDA00
6368A0000A35CD00
368A290078A35C00
18D387EBD2CA3400
0D74A4551E1CA000
075D2FAAF4B5D000
01D791A947D74000
0074BE55BD1D0000
001E46BE91F40000
0001E5006F400000
00001BFFE4000000
ENDCHAR
STARTCHAR ohungarumlaut
ENCODING 337
SWIDTH 833 0
DWIDTH 27 0
BBX 28 33 1 -1
BITMAP
000000780001B4
00000B91401B82
0000B91E41B82E
000B92E41B86E0
00B92E41B86E00
0052E40046E000
001E40001E0000
00000000000000
00001694000000
0002FAAB900000
002E45507D0000
00A0BEBE474000
038B9001F5D000
0A286FF92D7400
1CA1E407875800
35CB4AE4B28D00
735C795E28D600
A735D0028D6300
DA734000D63240
C9A70000633640
CDA60000632680
C9A60000633680
C9630000A73640
96328001CA7340
6328E0075CA700
328D2EBD35CA00
28D78151E38C00
0D74BAAF4A2800
071E06A478A000
01D2E55BD2C000
00781AE91E0000
000B9406F40000
00006FFE400000
ENDCHAR
STARTCHAR OE
ENCODING 338
SWIDTH 1317 0
DWIDTH 42 0
BBX 40 28 1 -1
BITMAP
00001AFFA40000000000
0001F9456E4963FFFFFF
001B45AA41E963555555
00747E96B91963AAAAAA
01D2D155078963555555
075E1FAAE4A963555555
0D74B4141E1963AAAAAA
18E386FF928963000000
358A2D0078A963000000
6358A0000E2963000000
97358000035963000000
DA734000018963AAA000
C9A7000000C963555000
CDA6000000C963555000
CDA6000000D963AAA000
C9A7000000C963555000
DA734000018963FFF000
97368000034963000000
6368A0000A2963000000
368E290078A963000000
28D387EBD28963000000
0D74E4551E1963AAAAAA
075D2FAAF4A963555555
01D791A9478963555555
0074BE55BD1963AAAAAA
001E46BA91E963000000
0002E5006F4963FFFFFF
00001BFFE40000000000
ENDCHAR
STARTCHAR oe
ENCODING 339
SWIDTH 1174 0
DWIDTH 38 0
BBX 36 25 1 -1
BITMAP
000016A50000000000
0002FAABD111555554
002E45507726EAAAA9
00A0BEBE4326955554
038B9001F326FFFFFD
0A286FF91726800000
1CA1E4078326FFFFFD
35CB4AE4B726800000
735C795E2726800000
A735D0028726800000
DA734000D326FFFFF8
C9A700006326800000
CDA600006326EAAAA8
C9A600006326955554
C9630000A326AAAAA4
96328001C326AAAAA4
6328E0075726800000
328D2EBD7726800000
28D78151D326EAAAA9
0D74BAAF4326955554
071E06A47726955554
01D2E55BD326EAAAA9
00781AE91726800000
000B9405F326FFFFFD
00006FFE4000000000
ENDCHAR
STARTCHAR Racute
ENCODING 340
SWIDTH 843 0
DWIDTH 27 0
BBX 25 36 1 0
BITMAP
0000000B400000
000001B8200000
00001B82E00000
0001B86E000000
001B86E0000000
00046E00000000
0001E000000000
00000000000000
00000000000000
00000000000000
7FFFFFFFA40000
A55555555B4000
A6AAAAAA91E000
A7AAAAAAAD2800
A6155555478A00
A63AAAAAF4E300
A63000001D3280
A632FFFFD729C0
A63240007258C0
A63240003698C0
A63240007259C0
A6327FFFD72580
A63240001D7280
A6327FFFF4D740
A6325555478E00
A6326AAABD2800
A6326AA951E000
A63255556F8000
A6326ABFE9C000
A63240299CD000
A632401CCDA000
A632400C9A7000
A6324009673400
A6324006336800
A6324003269C00
A632400258CD00
ENDCHAR
STARTCHAR Rcommaaccent
ENCODING 342
SWIDTH 843 0
DWIDTH 27 0
BBX 25 38 1 -12
BITMAP
7FFFFFFFA40000
A55555555B4000
A6AAAAAA91E000
A7AAAAAAAD2800
A6155555478A00
A63AAAAAF4E300
A63000001D3280
A632FFFFD729C0
A63240007258C0
A63240003698C0
A63240007259C0
A6327FFFD72580
A63240001D7280
A6327FFFF4D740
A6325555478E00
A6326AAABD2800
A6326AA951E000
A63255556F8000
A6326ABFE9C000
A63240299CD000
A632401CCDA000
A632400C9A7000
A6324009673400
A6324006336800
A6324003269C00
A632400258CD00
00000000000000
00002558000000
00002698000000
00002698000000
00002698000000
00002698000000
00000298000000
00000758000000
00002E24000000
000000B0000000
00002B80000000
00001400000000
ENDCHAR
STARTCHAR rcommaaccent
ENCODING 343
SWIDTH 831 0
DWIDTH 27 0
BBX 25 35 1 -12
BITMAP
6AAAAAA9500000
BAAAAAAABE0000
A155555542D000
A7FFFFFFF87400
A60000001B5C00
A63FFFFFE1CA00
A63400006CA300
A632AAAA8A3240
A6329555A73680
A6324000A33680
A6327FFFD73240
A63240001D7340
A6326AAAF4D700
A6325555478D00
A6326AAAAD2800
A6326AAA91E000
A63255555B8000
A6327FFFF74000
A6324067368000
A632403269C000
A63240299CD000
A632401CC96000
A632400DA63000
00000000000000
00006220000000
00006334000000
00006334000000
00006334000000
00006334000000
00000734000000
00000A30000000
00007870000000
000001D0000000
00006F40000000
00001400000000
ENDCHAR
STARTCHAR Rcaron
ENCODING 344
SWIDTH 843 0
DWIDTH 27 0
BBX 25 37 1 0
BITMAP
01482580000000
01CD7240000000
00D6A300000000
0061DA00000000
0031CD00000000
002A5C00000000
001F2400000000
000E3000000000
00000000000000
00000000000000
00000000000000
7FFFFFFFA40000
A55555555B4000
A6AAAAAA91E000
A7AAAAAAAD2800
A6155555478A00
A63AAAAAF4E300
A63000001D3280
A632FFFFD729C0
A63240007258C0
A63240003698C0
A63240007259C0
A6327FFFD72580
A63240001D7280
A6327FFFF4D740
A6325555478E00
A6326AAABD2800
A6326AA951E000
A63255556F8000
A6326ABFE9C000
A63240299CD000
A632401CCDA000
A632400C9A7000
A6324009673400
A6324006336800
A6324003269C00
A632400258CD00
ENDCHAR
STARTCHAR rcaron
ENCODING 345
SWIDTH 831 0
DWIDTH 27 0
BBX 25 33 1 0
BITMAP
00008918800000
0000D625C00000
00006372400000
000031A3000000
000028DA000000
00001DCD000000
00000F5C000000
00000724000000
00000000000000
00000000000000
6AAAAAA9500000
BAAAAAAABE0000
A155555542D000
A7FFFFFFF87400
A60000001B5C00
A63FFFFFE1CA00
A63400006CA300
A632AAAA8A3240
A6329555A73680
A6324000A33680
A6327FFFD73240
A63240001D7340
A6326AAAF4D700
A6325555478D00
A6326AAAAD2800
A6326AAA91E000
A63255555B8000
A6327FFFF74000
A6324067368000
A632403269C000
A63240299CD000
A632401CC96000
A632400DA63000
ENDCHAR
STARTCHAR Sacute
ENCODING 346
SWIDTH 682 0
DWIDTH 22 0
BBX 20 37 1 -1
BITMAP
00000000B4
0000001B82
000001B82E
00001B86E0
0001B86E00
000046E000
00001E0000
0000000000
0000000000
000AFFA400
00B9516B90
0781AA9078
1D2E95AE4A
38E05541E0
728BAAB910
A728150640
DA72FFF400
C9A3001000
C9A7000000
DA72FEA400
9634556E40
635FAA42D0
35D16AB870
1D7A550A28
0B46AAE28C
01E50028C9
001BFF5C9A
000001CD96
000001CDA6
002FAB4C96
01815428C9
04BAAAE28C
1E45A90A28
92F955B8B0
791ABA92D0
0BA4006E00
006FFFA400
ENDCHAR
STARTCHAR sacute
ENCODING 347
SWIDTH 683 0
DWIDTH 22 0
BBX 20 33 1 -1
BITMAP
00000000B4
0000001B82
000001B82E
00001B86E0
0001B86E00
000046E000
00001E0000
0000000000
0000000000
001BFFE500
01E5005B90
0A46AA9478
287A556E4A
72916941E0
972EAABD10
D970000640
C9A0000000
DA75000000
971BFFE900
72D0001B80
286FEAA4B0
0B41556E28
01BAAA528D
0005AAB8DA
0000000DA6
0040000DA6
01E50168D6
1D1BFF9289
4794001A2C
B46FFFE4B4
1E40550790
01BEAAF900
0005654000
ENDCHAR
STARTCHAR Scircumflex
ENCODING 348
SWIDTH 682 0
DWIDTH 22 0
BBX 20 37 1 -1
BITMAP
0000960000
0001E34000
0002768000
000729C000
000A1CD000
000D9D6000
0018D63000
0025832400
0000000000
000AFFA400
00B9516B90
0781AA9078
1D2E95AE4A
38E05541E0
728BAAB910
A728150640
DA72FFF400
C9A3001000
C9A7000000
DA72FEA400
9634556E40
635FAA42D0
35D16AB870
1D7A550A28
0B46AAE28C
01E50028C9
001BFF5C9A
000001CD96
000001CDA6
002FAB4C96
01815428C9
04BAAAE28C
1E45A90A28
92F955B8B0
791ABA92D0
0BA4006E00
006FFFA400
ENDCHAR
STARTCHAR scircumflex
ENCODING 349
SWIDTH 683 0
DWIDTH 22 0
BBX 20 34 1 -1
BITMAP
0000960000
0001E34000
0002768000
000729C000
000A1C9000
000D996000
0018D63400
0025832400
0000000000
0000000000
001BFFE500
01E5005B90
0A46AA9478
287A556E4A
72916941E0
972EAABD10
D970000640
C9A0000000
DA75000000
971BFFE900
72D0001B80
286FEAA4B0
0B41556E28
01BAAA528D
0005AAB8DA
0000000DA6
0040000DA6
01E50168D6
1D1BFF9289
4794001A2C
B46FFFE4B4
1E40550790
01BEAAF900
0005654000
ENDCHAR
STARTCHAR Scedilla
ENCODING 350
SWIDTH 682 0
DWIDTH 22 0
BBX 20 38 1 -11
BITMAP
000AFFA400
00B9516B90
0781AA9078
1D2E95AE4A
38E05541E0
728BAAB910
A728150640
DA72FFF400
C9A3001000
C9A7000000
DA72FEA400
9634556E40
635FAA42D0
35D16AB870
1D7A550A28
0B46AAE28C
01E50028C9
001BFF5C9A
000001CD96
000001CDA6
002FAB4C96
01815428C9
04BAAAE28C
1E45A90A28
92F955B8B0
791ABA92D0
0BA4006E00
006FFFA400
0000DA0000
001F9A0000
00340A0000
0062FE0000
0097000000
0096000000
0097550000
0061A90000
0039400000
000BFE0000
ENDCHAR
STARTCHAR scedilla
ENCODING 351
SWIDTH 683 0
DWIDTH 22 0
BBX 20 33 1 -10
BITMAP
001BFFE500
01E5005B90
0A46AA9478
287A556E4A
72916941E0
972EAABD10
D970000640
C9A0000000
DA75000000
971BFFE900
72D0001B80
286FEAA4B0
0B41556E28
01BAAA528D
0005AAB8DA
0000000DA6
0040000DA6
01E50168D6
1D1BFF9289
4794001A2C
B46FFFE4B4
1E40550790
01BEEBF900
0005FF4000
001F9A0000
00340A0000
0062FE0000
00A7000000
0096000000
00A7550000
0061A90000
0039400000
000BFE0000
ENDCHAR
STARTCHAR Scaron
ENCODING 352
SWIDTH 682 0
DWIDTH 22 0
BBX 20 38 1 -1
BITMAP
0014825800
001CD32400
000D6A3000
00061DA000
00031CD000
0002A5C000
0001F24000
0000A30000
0000000000
0000000000
000AFFA400
00B9516B90
0781AA9078
1D2E95AE4A
38E05541E0
728BAAB910
A728150640
DA72FFF400
C9A3001000
C9A7000000
DA72FEA400
9634556E40
635FAA42D0
35D16AB870
1D7A550A28
0B46AAE28C
01E50028C9
001BFF5C9A
000001CD96
000001CDA6
002FAB4C96
01815428C9
04BAAAE28C
1E45A90A28
92F955B8B0
791ABA92D0
0BA4006E00
006FFFA400
ENDCHAR
STARTCHAR scaron
ENCODING 353
SWIDTH 683 0
DWIDTH 22 0
BBX 20 34 1 -1
BITMAP
0014825800
001CD32400
000D6A3000
00061DA000
00031CD000
0002A5C000
0001F24000
0000A30000
0000000000
0000000000
001BFFE500
01E5005B90
0A46AA9478
287A556E4A
72916941E0
972EAABD10
D970000640
C9A0000000
DA75000000
971BFFE900
72D0001B80
286FEAA4B0
0B41556E28
01BAAA528D
0005AAB8DA
0000000DA6
0040000DA6
01E50168D6
1D1BFF9289
4794001A2C
B46FFFE4B4
1E40550790
01BEAAF900
0005654000
ENDCHAR
STARTCHAR Tcommaaccent
ENCODING 354
SWIDTH 591 0
DWIDTH 19 0
BBX 17 36 1 -10
BITMAP
FFFFFFFF80
5555555540
AAAAAAAA80
AAAAAAAA40
5555555540
AAFBBBEA80
00A6324000
00A6324000
00A6324000
00A6324000
00A6324000
00A6324000
00A6324000
00A6324000
00A6324000
00A6324000
00A6324000
00A6324000
00A6324000
00A6324000
00A6324000
00A6324000
00A6324000
00A6324000
00A6324000
00A7324000
0007300000
00BE300000
0280300000
035FF00000
0328000000
0334000000
0329500000
034AA00000
01D4000000
006FF00000
ENDCHAR
STARTCHAR tcommaaccent
ENCODING 355
SWIDTH 588 0
DWIDTH 19 0
BBX 17 33 1 -10
BITMAP
AAAAAAAA40
AAAAAAAA80
5555555540
FFFFFFFF80
0000000000
FFFFFFFF80
0055114000
00A6324000
00A6324000
00A6324000
00A6324000
00A6324000
00A6324000
00A6324000
00A6324000
00A6324000
00A6324000
00A6324000
00A6324000
00A6324000
00A6324000
00A6324000
00A7324000
0006300000
00BE300000
0280300000
035FF00000
0334000000
0734000000
0329500000
034AA00000
01D4000000
006FF00000
ENDCHAR
STARTCHAR Tcaron
ENCODING 356
SWIDTH 591 0
DWIDTH 19 0
BBX 17 37 1 0
BITMAP
0189148000
00DA358000
00A7734000
0071A70000
0024CA0000
00198C0000
000F580000
000B240000
0000000000
0000000000
0000000000
FFFFFFFF80
5555555540
AAAAAAAA80
AAAAAAAA40
5555555540
AAFBBBEA80
00A6324000
00A6324000
00A6324000
00A6324000
00A6324000
00A6324000
00A6324000
00A6324000
00A6324000
00A6324000
00A6324000
00A6324000
00A6324000
00A6324000
00A6324000
00A6324000
00A6324000
00A6324000
00A6324000
00A6324000
ENDCHAR
STARTCHAR tcaron
ENCODING 357
SWIDTH 842 0
DWIDTH 27 0
BBX 25 24 1 0
BITMAP
00000000025580
AAAAAAAA4269C0
AAAAAAAA8269C0
555555554269C0
FFFFFFFF8269C0
00000000002980
FFFFFFFF803580
0055114002E280
00A63240000700
00A6324002BD00
00A63240015000
00A63240000000
00A63240000000
00A63240000000
00A63240000000
00A63240000000
00A63240000000
00A63240000000
00A63240000000
00A63240000000
00A63240000000
00A63240000000
00A63240000000
00A63240000000
ENDCHAR
STARTCHAR Tbar
ENCODING 358
SWIDTH 591 0
DWIDTH 19 0
BBX 17 26 1 0
BITMAP
FFFFFFFF80
5555555540
AAAAAAAA80
AAAAAAAA40
5555555540
AAFBBBEA80
00A6324000
00A6324000
00A6324000
00A6324000
BEA6327F80
55A6325540
A9A6326A40
A9A6326A40
55A6325540
AAA6326A80
00A6324000
00A6324000
00A6324000
00A6324000
00A6324000
00A6324000
00A6324000
00A6324000
00A6324000
00A6324000
ENDCHAR
STARTCHAR tbar
ENCODING 359
SWIDTH 588 0
DWIDTH 19 0
BBX 17 23 1 0
BITMAP
AAAAAAAA40
AAAAAAAA80
5555555540
FFFFFFFF80
0000000000
FFFFFFFF80
0055114000
00A6324000
00A6324000
00A6324000
00A6324000
A9A6326A40
A9A6326A40
55A6325540
AAA6326A80
00A6324000
FEA6327F80
00A6324000
00A6324000
00A6324000
00A6324000
00A6324000
00A6324000
ENDCHAR
STARTCHAR Utilde
ENCODING 360
SWIDTH 905 0
DWIDTH 29 0
BBX 27 36 1 -1
BITMAP
0005AAAA914800
002EAAAA929C00
007055555B5800
0097EAAAA92400
00CA000001A000
00CD2FFFFF8000
00000000000000
00000000000000
00000000000000
96630000063264
96734000063268
96734000063268
96734000063268
96734000063268
96734000063268
96734000063268
96734000063268
96734000063268
96734000063268
96734000063268
96734000063268
96734000063268
96734000063268
96734000063368
A6334000063364
A7368000096324
7368D0002C9634
368D7800B1C970
28D74BEF875C90
0D71E0542D75C0
0B2D6EAAE1D340
028781A90B4E00
00B1B955B87800
002E06BA42D000
0006E5016E0000
00006BFF900000
ENDCHAR
STARTCHAR utilde
ENCODING 361
SWIDTH 795 0
DWIDTH 25 0
BBX 23 32 1 -1
BITMAP
001AAAA90880
01EAAAA91CC0
0345555574C0
0A2EAAAA9280
097000001B00
09A1FFFFF800
000000000000
000000000000
551100015448
9673000269CC
9673000269CC
9673000269CC
9673000269CC
9673000269CC
9673000269CC
9673000269CC
9673000269CC
9673000269CC
9673000269CC
9673000269CC
9673000269CC
96734003698C
A6328007258C
6328E01D7258
329D7EF4A724
29D745478A30
1D75FAAE28A0
0B1D1A91E2C0
0287E55B8B00
00B46BA46800
001F9016E000
0001BFF90000
ENDCHAR
STARTCHAR Umacron
ENCODING 362
SWIDTH 905 0
DWIDTH 29 0
BBX 27 27 1 -1
BITMAP
96630000063264
96734000063268
96734000063268
96734000063268
96734000063268
96734000063268
96734000063268
96734000063268
96734000063268
96734000063268
96734000063268
96734000063268
96734000063268
96734000063268
96734000063368
A6334000063364
A7368000096324
7368D0002C9634
368D7800B1C970
28D74BEF875C90
0D71E0542D75C0
0B2D6EAAE1D340
028781A90B4E00
00B1B955B87800
002E06BA42D000
0006E5016E0000
00006BFF900000
ENDCHAR
STARTCHAR umacron
ENCODING 363
SWIDTH 795 0
DWIDTH 25 0
BBX 23 24 1 -1
BITMAP
551100015448
9673000269CC
9673000269CC
9673000269CC
9673000269CC
9673000269CC
9673000269CC
9673000269CC
9673000269CC
9673000269CC
9673000269CC
9673000269CC
9673000269CC
96734003698C
A6328007258C
6328E01D7258
329D7EF4A724
29D745478A30
1D75FAAE28A0
0B1D1A91E2C0
0287E55B8B00
00B46BA46800
001F9016E000
0001BFF90000
ENDCHAR
STARTCHAR Ubreve
ENCODING 364
SWIDTH 905 0
DWIDTH 29 0
BBX 27 34 1 -1
BITMAP
00006602600000
000036AA600000
00001D11C00000
000002FA000000
00000000000000
00000000000000
00000000000000
96630000063264
96734000063268
96734000063268
96734000063268
96734000063268
96734000063268
96734000063268
96734000063268
96734000063268
96734000063268
96734000063268
96734000063268
96734000063268
96734000063268
96734000063368
A6334000063364
A7368000096324
7368D0002C9634
368D7800B1C970
28D74BEF875C90
0D71E0542D75C0
0B2D6EAAE1D340
028781A90B4E00
00B1B955B87800
002E06BA42D000
0006E5016E0000
00006BFF900000
ENDCHAR
STARTCHAR ubreve
ENCODING 365
SWIDTH 795 0
DWIDTH 25 0
BBX 23 30 1 -1
BITMAP
0003601A4000
00025EA30000
0000E11D0000
00001BE40000
000000000000
000000000000
551100015448
9673000269CC
9673000269CC
9673000269CC
9673000269CC
9673000269CC
9673000269CC
9673000269CC
9673000269CC
9673000269CC
9673000269CC
9673000269CC
9673000269CC
96734003698C
A6328007258C
6328E01D7258
329D7EF4A724
29D745478A30
1D75FAAE28A0
0B1D1A91E2C0
0287E55B8B00
00B46BA46800
001F9016E000
0001BFF90000
ENDCHAR
STARTCHAR Uring
ENCODING 366
SWIDTH 905 0
DWIDTH 29 0
BBX 27 38 1 -1
BITMAP
000002EE000000
00000D52800000
000029A9900000
00002703600000
00002703600000
00002699900000
00000D55800000
000002AE000000
00000010000000
00000000000000
00000000000000
96630000063264
96734000063268
96734000063268
96734000063268
96734000063268
96734000063268
96734000063268
96734000063268
96734000063268
96734000063268
96734000063268
96734000063268
96734000063268
96734000063268
96734000063368
A6334000063364
A7368000096324
7368D0002C9634
368D7800B1C970
28D74BEF875C90
0D71E0542D75C0
0B2D6EAAE1D340
028781A90B4E00
00B1B955B87800
002E06BA42D000
0006E5016E0000
00006BFF900000
ENDCHAR
STARTCHAR uring
ENCODING 367
SWIDTH 795 0
DWIDTH 25 0
BBX 23 34 1 -1
BITMAP
00002EE00000
0000A15C0000
00019EA60000
000264370000
000264270000
000199A60000
0000A55C0000
00002EA40000
000001000000
000000000000
551100015448
9673000269CC
9673000269CC
9673000269CC
9673000269CC
9673000269CC
9673000269CC
9673000269CC
9673000269CC
9673000269CC
9673000269CC
9673000269CC
9673000269CC
96734003698C
A6328007258C
6328E01D7258
329D7EF4A724
29D745478A30
1D75FAAE28A0
0B1D1A91E2C0
0287E55B8B00
00B46BA46800
001F9016E000
0001BFF90000
ENDCHAR
STARTCHAR Uhungarumlaut
ENCODING 368
SWIDTH 905 0
DWIDTH 29 0
BBX 30 37 1 -1
BITMAP
0000001E00002E00
000001F45002E480
00001E47D02E4B90
0001E47D02E0B900
001E47902E0B9000
0014790010B90000
0003900007800000
0000000000000000
0000000000000000
0000000000000000
9663000006326400
9673400006326800
9673400006326800
9673400006326800
9673400006326800
9673400006326800
9673400006326800
9673400006326800
9673400006326800
9673400006326800
9673400006326800
9673400006326800
9673400006326800
9673400006326800
9673400006336800
A633400006336400
A736800009632400
7368D0002C963400
368D7800B1C97000
28D74BEF875C9000
0D71E0542D75C000
0B2D6EAAE1D34000
028781A90B4E0000
00B1B955B8780000
002E06BA42D00000
0006E5016E000000
00006BFF90000000
ENDCHAR
STARTCHAR uhungarumlaut
ENCODING 369
SWIDTH 795 0
DWIDTH 25 0
BBX 28 33 1 -1
BITMAP
000001B00001E0
00001B45001E45
0001B46E01E47D
001B46E01E47D0
01F46D02E47900
0046D001479000
002D0000390000
00000000000000
00000000000000
55110001544800
9673000269CC00
9673000269CC00
9673000269CC00
9673000269CC00
9673000269CC00
9673000269CC00
9673000269CC00
9673000269CC00
9673000269CC00
9673000269CC00
9673000269CC00
9673000269CC00
96734003698C00
A6328007258C00
6328E01D725800
329D7EF4A72400
29D745478A3000
1D75FAAE28A000
0B1D1A91E2C000
0287E55B8B0000
00B46BA4680000
001F9016E00000
0001BFF9000000
ENDCHAR
STARTCHAR Uogonek
ENCODING 370
SWIDTH 905 0
DWIDTH 29 0
BBX 27 36 1 -10
BITMAP
96630000063264
96734000063268
96734000063268
96734000063268
96734000063268
96734000063268
96734000063268
96734000063268
96734000063268
96734000063268
96734000063268
96734000063268
96734000063268
96734000063268
96734000063368
A6334000063364
A7368000096324
7368D0002C9634
368D7800B1C970
28D74BEF875C90
0D71E0542D75C0
0B2D6EAAE1D340
028781A90B4E00
00B1B955B87800
002E06BA42D000
0006E5016E0000
00006FFF900000
00001E50000000
000034A4000000
00003290000000
00007340000000
00006310000000
00006324000000
00006324000000
00006324000000
00006324000000
ENDCHAR
STARTCHAR uogonek
ENCODING 371
SWIDTH 794 0
DWIDTH 25 0
BBX 23 33 1 -10
BITMAP
551100011448
96730002698C
96730002698C
96730002698C
96730002698C
96730002698C
96730002698C
96730002698C
96730002698C
96730002698C
96730002698C
96730002698C
96730002698C
96734003698C
A6328007259C
6329D01D7258
329D7EF4A724
25D745478A70
1D75FAAD28A0
0B1D1A91E2C0
0287E55B4B00
00B46BA46800
001F5016E000
0001FFF90000
0001E4000000
00034A400000
000329000000
000734000000
000631000000
000632400000
000632400000
000632400000
000632400000
ENDCHAR
STARTCHAR Ycircumflex
ENCODING 374
SWIDTH 789 0
DWIDTH 25 0
BBX 25 36 0 0
BITMAP
00000614000000
00000B9C000000
00000DCD000000
000018D6000000
000034A3000000
00007272800000
0000A729C00000
0000CA18900000
00000000000000
00000000000000
62258000622640
269CC0009A6300
18C9A0018C9A00
0DA6300269CC00
06336807326800
03698C09673000
018CDA1CD96000
00D963259CD000
00673673658000
003258A6334000
0029CDCDA60000
000C9698C90000
000A7326980000
00032A73240000
00024C96700000
0000E9CC900000
0000B659C00000
00006326800000
00006326800000
00006326800000
00006326800000
00006326800000
00006326800000
00006326800000
00006326800000
00006326800000
ENDCHAR
STARTCHAR ycircumflex
ENCODING 375
SWIDTH 733 0
DWIDTH 23 0
BBX 23 33 0 0
BITMAP
000009600000
00002E300000
000037240000
0000725C0000
000091CD0000
0000C9DA0000
00028CA70000
000258724000
000000000000
000000000000
511140011544
3258C0063368
19CDA009A630
0C963418C9A0
067358269CC0
0329CD732680
018C96967300
00DA71CD9600
00632659CD00
003697365800
0018CA633400
000D9CDA6000
0006298C9000
000372698000
0001E7324000
0000D9630000
0000D9670000
0000D9670000
0000D9670000
0000D9670000
0000D9670000
0000D9670000
0000D9670000
ENDCHAR
STARTCHAR Ydieresis
ENCODING 376
SWIDTH 789 0
DWIDTH 25 0
BBX 25 32 0 0
BITMAP
00326806334000
00326806334000
00326806334000
00111401110000
00000000000000
00000000000000
62258000622640
269CC0009A6300
18C9A0018C9A00
0DA6300269CC00
06336807326800
03698C09673000
018CDA1CD96000
00D963259CD000
00673673658000
003258A6334000
0029CDCDA60000
000C9698C90000
000A7326980000
00032A73240000
00024C96700000
0000E9CC900000
0000B659C00000
00006326800000
00006326800000
00006326800000
00006326800000
00006326800000
00006326800000
00006326800000
00006326800000
00006326800000
ENDCHAR
STARTCHAR Zacute
ENCODING 377
SWIDTH 854 0
DWIDTH 27 0
BBX 25 36 1 0
BITMAP
00000000078000
000000007D1400
00000007D1F400
000000791F4000
00000791F40000
0000051E400000
000000E4000000
00000000000000
00000000000000
00000000000000
BFFFFFFFFFFFC0
55555555555780
6AAAAAAAA92D00
6AAAAAAAA5A5C0
55555555074B40
AAAAAAA8697840
00000001E2D2C0
BFFFFE0A5A1E00
00000078B4B480
00000296878780
00001E1D2D2D00
0000B5A5E1E000
0007874B4B4000
002D2969780000
01E1E2D2D00000
0B4A5A5E000000
787874B4000000
92D69780000000
1E1E2D1BFFFFC0
B5A5E015555540
478B46AAAAAA80
2D681AAAAAAA80
A2D15555555540
1A0AAAAAAAAA80
78000000000000
BFFFFFFFFFFFC0
ENDCHAR
STARTCHAR zacute
ENCODING 378
SWIDTH 714 0
DWIDTH 23 0
BBX 21 32 1 0
BITMAP
000000007800
000000079140
000000791F40
00000791F400
0000791E4000
000051E40000
00000E400000
000000000000
000000000000
555555514400
6AAAA9D72880
1555528D3580
BFFFE728A340
00000D75CA00
BFFFA8A35C00
000075CA3400
0000A35CA000
0001CA34C000
00035CA24000
000A34D70000
001CA28D0000
0035D7280000
00A28D700000
01D728D00000
028D72800000
0728D3400000
0D72CA6AAA40
28D35C6AAA40
728A35555540
D75CA2AAAA80
8A35C0000000
5CA39FFFFF80
ENDCHAR
STARTCHAR Zdotaccent
ENCODING 379
SWIDTH 854 0
DWIDTH 27 0
BBX 25 34 1 0
BITMAP
00000FFD000000
00000554000000
00000AA9000000
00000AA9000000
00000554000000
00000AA9000000
00000000000000
00000000000000
BFFFFFFFFFFFC0
55555555555780
6AAAAAAAA92D00
6AAAAAAAA5A5C0
55555555074B40
AAAAAAA8697840
00000001E2D2C0
BFFFFE0A5A1E00
00000078B4B480
00000296878780
00001E1D2D2D00
0000B5A5E1E000
0007874B4B4000
002D2969780000
01E1E2D2D00000
0B4A5A5E000000
787874B4000000
92D69780000000
1E1E2D1BFFFFC0
B5A5E015555540
478B46AAAAAA80
2D681AAAAAAA80
A2D15555555540
1A0AAAAAAAAA80
78000000000000
BFFFFFFFFFFFC0
ENDCHAR
STARTCHAR zdotaccent
ENCODING 380
SWIDTH 714 0
DWIDTH 23 0
BBX 21 31 1 0
BITMAP
0001FFD00000
000055400000
0000AA900000
0000AA900000
000055400000
0001AA900000
000000000000
000000000000
555555514400
6AAAA9D72880
1555528D3580
BFFFE728A340
00000D75CA00
BFFFA8A35C00
000075CA3400
0000A35CA000
0001CA34C000
00035CA24000
000A34D70000
001CA28D0000
0035D7280000
00A28D700000
01D728D00000
028D72800000
0728D3400000
0D72CA6AAA40
28D35C6AAA40
728A35555540
D75CA2AAAA80
8A35C0000000
5CA39FFFFF80
ENDCHAR
STARTCHAR Zcaron
ENCODING 381
SWIDTH 854 0
DWIDTH 27 0
BBX 25 37 1 0
BITMAP
00008518900000
00009729C00000
00007336800000
00003563400000
00002896000000
00000DC9000000
00000B9C000000
00000768000000
00000000000000
00000000000000
00000000000000
BFFFFFFFFFFFC0
55555555555780
6AAAAAAAA92D00
6AAAAAAAA5A5C0
55555555074B40
AAAAAAA8697840
00000001E2D2C0
BFFFFE0A5A1E00
00000078B4B480
00000296878780
00001E1D2D2D00
0000B5A5E1E000
0007874B4B4000
002D2969780000
01E1E2D2D00000
0B4A5A5E000000
787874B4000000
92D69780000000
1E1E2D1BFFFFC0
B5A5E015555540
478B46AAAAAA80
2D681AAAAAAA80
A2D15555555540
1A0AAAAAAAAA80
78000000000000
BFFFFFFFFFFFC0
ENDCHAR
STARTCHAR zcaron
ENCODING 382
SWIDTH 714 0
DWIDTH 23 0
BBX 21 33 1 0
BITMAP
000851890000
0009629C0000
000633280000
000356300000
00028D600000
0001DCD00000
0000B9C00000
000072800000
000000000000
000000000000
555555514400
6AAAA9D72880
1555528D3580
BFFFE728A340
00000D75CA00
BFFFA8A35C00
000075CA3400
0000A35CA000
0001CA34C000
00035CA24000
000A34D70000
001CA28D0000
0035D7280000
00A28D700000
01D728D00000
028D72800000
0728D3400000
0D72CA6AAA40
28D35C6AAA40
728A35555540
D75CA2AAAA80
8A35C0000000
5CA39FFFFF80
ENDCHAR
STARTCHAR florin
ENCODING 402
SWIDTH 388 0
DWIDTH 12 0
BBX 11 30 1 -3
BITMAP
000BF4
007900
01D2A4
035E50
073460
0A73A0
096300
096300
096300
E96374
096300
A96364
596350
596360
996360
096300
096300
096300
096300
096300
096300
096300
096300
5DA700
A4D600
068D00
FE2800
01B000
BF8000
500000
ENDCHAR
STARTCHAR uni01C4
ENCODING 452
SWIDTH 1740 0
DWIDTH 56 0
BBX 54 37 1 0
BITMAP
0000000000000000005209600000
000000000000000000735C900000
0000000000000000003669C00000
0000000000000000002876800000
0000000000000000000C63400000
0000000000000000000996000000
00000000000000000007C9000000
000000000000000000038C000000
0000000000000000000000000000
0000000000000000000000000000
0000000000000000000000000000
7FFFFFFEA400007FFFFFFFFFFFD0
A55555556E4000155555555556D0
A6AAAAAA42D0006AAAAAAAA91E00
A7AAAAAAB878006AAAAAAAA4B490
A61555550B5D0015555555078780
A63AAAABE1D7006AAAAAA92D2D10
A63000002C728000000001E1E1D0
A632FFFF8B28C07FFFFE4B4B4B40
A6324000A28CA000000068787850
A632400029C970000002D2D2D2D0
A63240001CD63000001A5E1E1E00
A63240000DA734000074B4B4B400
A63240000DA73400069787878000
A6324000096334001D2D2D2D0000
A63240000DA73400A5A1E1E00000
A63240001C9630078B4B4B400000
A632400028CA7029687878000000
A6324000B28CA061D2D2D0000000
A632FFFF8728D01A5E1E0BFFFFD0
A63155541D728074B4B415555540
A63AAAAAE5D740568782AAAAAA90
A62AAAA5474D002D2D06AAAAAA90
A7555555BD380065E15555555540
A6AAAAAA91E0000B46AAAAAAAA90
A00000016E40003D000000000000
BFFFFFFFE400007FFFFFFFFFFFD0
ENDCHAR
STARTCHAR uni01C5
ENCODING 453
SWIDTH 1601 0
DWIDTH 51 0
BBX 50 33 1 0
BITMAP
00000000000000000560950000
00000000000000000635CD0000
000000000000000003669C0000
00000000000000000283280000
000000000000000001C6300000
0000000000000000009D600000
0000000000000000007CD00000
7FFFFFFEA40000000039C00000
A55555556E4000000000000000
A6AAAAAA42D000000000000000
A7AAAAAAB87800155555114500
A61555550B5D006AAAA9A34D50
A63AAAABE1D700155551CB28C0
A63000002C72807FFFF75D7280
A632FFFF8B28C000000A28D700
A6324000A28CA07FFFDD728D00
A632400029C970000028D71800
A63240001CD6300000728A3000
A63240000DA7340000D71CA000
A63240000DA73400028D35C000
A632400009633400072CA34000
A63240000DA734000D35CA0000
A63240001C9630002CA35C0000
A632400028CA700075CA240000
A6324000B28CA000A35D600000
A632FFFF8728D001CA28D00000
A63155541D7280035C72800000
A63AAAAAE5D7400A38D72AAA80
A62AAAA5474D001C728D6AAA80
A7555555BD380034D728555540
A6AAAAAA91E000B28D76AAAA80
A00000016E40009728A0000000
BFFFFFFFE400004D75CFFFFFC0
ENDCHAR
STARTCHAR Scommaaccent
ENCODING 536
SWIDTH 682 0
DWIDTH 22 0
BBX 20 40 1 -13
BITMAP
000AFFA400
00B9516B90
0781AA9078
1D2E95AE4A
38E05541E0
728BAAB910
A728150640
DA72FFF400
C9A3001000
C9A7000000
DA72FEA400
9634556E40
635FAA42D0
35D16AB870
1D7A550A28
0B46AAE28C
01E50028C9
001BFF5C9A
000001CD96
000001CDA6
002FAB4C96
01815428C9
04BAAAE28C
1E45A90A28
92F955B8B0
791ABA92D0
0BA4006E00
006FFFA400
0000000000
0002214000
0003364000
0003364000
0003364000
0002364000
0000364000
0000724000
0003D30000
00001A0000
0002F80000
0001400000
ENDCHAR
STARTCHAR scommaaccent
ENCODING 537
SWIDTH 683 0
DWIDTH 22 0
BBX 20 36 1 -13
BITMAP
001BFFE500
01E5005B90
0A46AA9478
287A556E4A
72916941E0
972EAABD10
D970000640
C9A0000000
DA75000000
971BFFE900
72D0001B80
286FEAA4B0
0B41556E28
01BAAA528D
0005AAB8DA
0000000DA6
0040000DA6
01E50168D6
1D1BFF9289
4794001A2C
B46FFFE4B4
1E40550790
01BEAAF900
0005654000
0000000000
0002254000
0003368000
0003368000
0003368000
0002368000
0000368000
0000724000
0003D34000
00000A0000
0002F80000
0001400000
ENDCHAR
STARTCHAR uni021A
ENCODING 538
SWIDTH 591 0
DWIDTH 19 0
BBX 17 38 1 -12
BITMAP
FFFFFFFF80
5555555540
AAAAAAAA80
AAAAAAAA40
5555555540
AAFBBBEA80
00A6324000
00A6324000
00A6324000
00A6324000
00A6324000
00A6324000
00A6324000
00A6324000
00A6324000
00A6324000
00A6324000
00A6324000
00A6324000
00A6324000
00A6324000
00A6324000
00A6324000
00A6324000
00A6324000
00A6324000
0000000000
0018880000
0018CD0000
0018CD0000
0018CD0000
0018CD0000
0001CD0000
00028C0000
001E1C0000
0000740000
001BD00000
0005000000
ENDCHAR
STARTCHAR uni021B
ENCODING 539
SWIDTH 588 0
DWIDTH 19 0
BBX 17 35 1 -12
BITMAP
AAAAAAAA40
AAAAAAAA80
5555555540
FFFFFFFF80
0000000000
FFFFFFFF80
0055114000
00A6324000
00A6324000
00A6324000
00A6324000
00A6324000
00A6324000
00A6324000
00A6324000
00A6324000
00A6324000
00A6324000
00A6324000
00A6324000
00A6324000
00A6324000
00A6324000
0000000000
0018880000
0019CD0000
0019CD0000
0019CD0000
0019CD0000
0001CD0000
00028C0000
001E1C0000
0000740000
001BD00000
0005000000
ENDCHAR
STARTCHAR uni0237
ENCODING 567
SWIDTH 393 0
DWIDTH 13 0
BBX 12 27 0 -4
BITMAP
015444
0259CD
0259CD
0259CD
0259CD
0259CD
0259CD
0259CD
0259CD
0259CD
0259CD
0259CD
0259CD
0259CD
0259CD
0259CD
0259CC
07298C
2D369C
14E368
1B8A34
6928A0
06E280
7E4B00
01B800
7F9000
140000
ENDCHAR
STARTCHAR circumflex
ENCODING 710
SWIDTH 376 0
DWIDTH 12 0
BBX 10 8 1 24
BITMAP
024800
07CD00
0AD600
0C6300
187280
3569C0
735CD0
A70960
ENDCHAR
STARTCHAR caron
ENCODING 711
SWIDTH 362 0
DWIDTH 12 0
BBX 10 8 1 24
BITMAP
950850
A318C0
727580
257340
18A700
0DCA00
0B8D00
075800
ENDCHAR
STARTCHAR breve
ENCODING 728
SWIDTH 360 0
DWIDTH 12 0
BBX 10 4 1 25
BITMAP
880650
97A8C0
294740
06F900
ENDCHAR
STARTCHAR dotaccent
ENCODING 729
SWIDTH 255 0
DWIDTH 8 0
BBX 6 6 1 20
BITMAP
BFE0
5550
6AA0
6A90
5550
AAA0
ENDCHAR
STARTCHAR ring
ENCODING 730
SWIDTH 330 0
DWIDTH 11 0
BBX 9 9 1 24
BITMAP
0BB400
354A00
9AB640
DC1940
D81980
9A6640
755A00
1AB800
004000
ENDCHAR
STARTCHAR ogonek
ENCODING 731
SWIDTH 250 0
DWIDTH 8 0
BBX 6 10 1 -9
BITMAP
0BE0
2900
61A0
9750
DA00
DA50
DA60
DA60
DA60
DA60
ENDCHAR
STARTCHAR tilde
ENCODING 732
SWIDTH 665 0
DWIDTH 21 0
BBX 19 6 1 18
BITMAP
01AAAA9088
1EAAAA91CC
345555574C
A2EAAAA928
97000001B0
9A1FFFFF80
ENDCHAR
STARTCHAR hungarumlaut
ENCODING 733
SWIDTH 837 0
DWIDTH 27 0
BBX 25 7 1 23
BITMAP
00006C00007800
0006D140079140
007D1B40B91E40
07D1B40B91E400
7D1F40B92E4000
51F40052E40000
0B40000E400000
ENDCHAR
STARTCHAR uni0307
ENCODING 775
SWIDTH 260 0
DWIDTH 8 0
BBX 6 6 1 12
BITMAP
BFF0
0000
6AA0
5550
6A90
6AA0
ENDCHAR
STARTCHAR uni030F
ENCODING 783
SWIDTH 554 0
DWIDTH 18 0
BBX 16 12 1 23
BITMAP
45004400
9700DA00
7340A300
36803240
28C025C0
0C901CD0
09700DA0
07340A30
03680724
028C025C
01C9018D
00450045
ENDCHAR
STARTCHAR uni0311
ENCODING 785
SWIDTH 375 0
DWIDTH 12 0
BBX 10 4 1 25
BITMAP
06F900
290680
66A990
980260
ENDCHAR
STARTCHAR uni0326
ENCODING 806
SWIDTH 274 0
DWIDTH 9 0
BBX 7 11 1 -13
BITMAP
5220
6734
6734
6734
6734
0730
0A30
7870
01D0
6F40
5400
ENDCHAR
STARTCHAR Omega
ENCODING 937
SWIDTH 92 0
DWIDTH 3 0
BBX 1 1 0 0
BITMAP
00
ENDCHAR
STARTCHAR uni00B5.dup2
ENCODING 956
SWIDTH 802 0
DWIDTH 26 0
BBX 24 27 1 -4
BITMAP
512140014485
A73240029CC9
A73240029CC9
A73240029CC9
A73240029CC9
A73240029CC9
A73240029CC9
A73240029CC9
A73240029CC9
A73240029CC9
A73240029CC9
A73240029CC9
A73240029CC9
A732400298C9
A732400358CD
A732400A358C
A7327AF8A358
A7324542CA34
A7326AAE1CA0
A7325A90B5D0
A732555B8740
A7326BE92D00
A7325006E000
A7327FFA4000
A73240000000
A73240000000
511100000000
ENDCHAR
STARTCHAR pi
ENCODING 960
SWIDTH 92 0
DWIDTH 3 0
BBX 1 1 0 0
BITMAP
00
ENDCHAR
STARTCHAR endash
ENCODING 8211
SWIDTH 473 0
DWIDTH 15 0
BBX 13 6 1 10
BITMAP
6AAAAA80
55555540
6AAAAA40
6AAAAA40
15555540
BFFFFF80
ENDCHAR
STARTCHAR emdash
ENCODING 8212
SWIDTH 615 0
DWIDTH 20 0
BBX 18 6 1 10
BITMAP
6AAAAAAA90
5555555540
6AAAAAAA80
6AAAAAAA90
1555555540
BFFFFFFFD0
ENDCHAR
STARTCHAR quoteleft
ENCODING 8216
SWIDTH 254 0
DWIDTH 8 0
BBX 6 11 1 15
BITMAP
06A0
2E50
7050
A390
9600
9A10
9A70
9A70
9A70
9A70
4010
ENDCHAR
STARTCHAR quoteright
ENCODING 8217
SWIDTH 251 0
DWIDTH 8 0
BBX 6 10 1 16
BITMAP
9660
9670
9670
9670
5670
0A70
1D60
B4A0
02C0
BE00
ENDCHAR
STARTCHAR quotesinglbase
ENCODING 8218
SWIDTH 252 0
DWIDTH 8 0
BBX 6 11 1 -5
BITMAP
5560
9A70
9A70
9A70
9A70
0A70
0D60
B8A0
01C0
AF40
5400
ENDCHAR
STARTCHAR quotedblleft
ENCODING 8220
SWIDTH 535 0
DWIDTH 17 0
BBX 15 11 1 15
BITMAP
06A001A8
2E500B94
70501C14
A39028E4
96002580
9A102684
9A70269C
9A70269C
9A70269C
9A70269C
40101004
ENDCHAR
STARTCHAR quotedblright
ENCODING 8221
SWIDTH 532 0
DWIDTH 17 0
BBX 15 10 1 16
BITMAP
96602598
9670259C
9670259C
9670259C
5670159C
0A70029C
1D600758
B4A02D28
02C000B0
BE002F80
ENDCHAR
STARTCHAR quotedblbase
ENCODING 8222
SWIDTH 533 0
DWIDTH 17 0
BBX 15 11 1 -5
BITMAP
55602558
9A70269C
9A70269C
9A70269C
9A70269C
0A700298
0D600358
B8A02E28
01C00070
AF402BD0
54001500
ENDCHAR
STARTCHAR dagger
ENCODING 8224
SWIDTH 636 0
DWIDTH 20 0
BBX 19 26 1 0
BITMAP
00258C9000
00298CD000
00298CD000
00298CD000
00298CD000
AAB98CEAA4
AAA98CEAA4
55698CE550
AAB98CEAA4
00298CD000
FFF98CFFF4
00298CD000
00298CD000
00298CD000
00298CD000
00298CD000
00298CD000
00298CD000
00298CD000
00298CD000
00298CD000
00298CD000
00298CD000
00298CD000
00298CD000
00298CD000
ENDCHAR
STARTCHAR daggerdbl
ENCODING 8225
SWIDTH 648 0
DWIDTH 21 0
BBX 19 26 1 0
BITMAP
0018C99000
0018CDA000
0018CDA000
0018CDA000
0018CDA000
BFF8CDBFF8
1558CDA550
AAA8CDBAA4
5568CDA554
5568CDA554
AAA8CDBAA4
0018CDA000
0018CDA000
0018CDA000
0018CDA000
5568CDA554
AAA8CDBAA4
1558CDA550
BFF8CDBFF8
0018CDA000
BFF8CDBFF8
1558CDA550
0018CDA000
0018CDA000
0018CDA000
0018CDA000
ENDCHAR
STARTCHAR bullet
ENCODING 8226
SWIDTH 501 0
DWIDTH 16 0
BBX 14 14 1 4
BITMAP
01BFE400
0B401E00
1C6F9280
35E578D0
A3401DA0
96000A70
DA000630
9A000A70
A7000960
72802C90
28BAE1C0
0E154740
02E5B900
006A9000
ENDCHAR
STARTCHAR ellipsis
ENCODING 8230
SWIDTH 676 0
DWIDTH 22 0
BBX 20 6 1 0
BITMAP
6AA2AA4AA9
6A92AA4AA9
5551554554
AAA2AA5AA9
0000000000
BFF3FF9FFD
ENDCHAR
STARTCHAR perthousand
ENCODING 8240
SWIDTH 447 0
DWIDTH 14 0
BBX 14 29 0 -3
BITMAP
00018990
00029C90
000258C0
00032980
00073680
000A7340
00096300
000C9600
001CDA00
0029CD00
00258C00
00325800
00736800
00A73400
00963000
00C96000
01CDA000
029CD000
0258C000
03258000
07368000
0A734000
09630000
0C960000
1CDA0000
29CD0000
258C0000
32580000
73680000
ENDCHAR
STARTCHAR guilsinglleft
ENCODING 8249
SWIDTH 465 0
DWIDTH 15 0
BBX 13 16 1 4
BITMAP
00000140
00001B40
0006E400
006E4680
1B91B900
B91B9140
46E46F40
6E46E400
91B94000
1B90B900
B4390B80
6E46E400
06E46F40
001B9140
0001B900
00000680
ENDCHAR
STARTCHAR guilsinglright
ENCODING 8250
SWIDTH 465 0
DWIDTH 15 0
BBX 13 16 1 4
BITMAP
50000000
79000000
06E40000
A46E4000
1F81B900
51B91B80
7E07E440
06E46E40
005F9180
1B81B900
B81E0780
06E46E40
7E07E400
51B90000
1F800000
A4000000
ENDCHAR
STARTCHAR fraction
ENCODING 8260
SWIDTH 447 0
DWIDTH 14 0
BBX 14 29 0 -3
BITMAP
00018990
00029C90
000258C0
00032980
00073680
000A7340
00096300
000C9600
001CDA00
0029CD00
00258C00
00325800
00736800
00A73400
00963000
00C96000
01CDA000
029CD000
0258C000
03258000
07368000
0A734000
09630000
0C960000
1CDA0000
29CD0000
258C0000
32580000
73680000
ENDCHAR
STARTCHAR uni2074
ENCODING 8308
SWIDTH 528 0
DWIDTH 17 0
BBX 15 21 1 5
BITMAP
00258900
00729C00
00A72800
01CA3000
029CA000
0728D000
0A368000
0CA34000
28D60CD0
368D0CD0
A35C0CD0
55140450
FFFFFFFC
00000000
AAAAAAA8
55555554
AAAAAAA8
AAAAAAA8
00000C90
00000CD0
00000C90
ENDCHAR
STARTCHAR Euro
ENCODING 8364
SWIDTH 781 0
DWIDTH 25 0
BBX 24 28 0 -1
BITMAP
0000005BFFA4
000006E5056F
00002E06AA51
0001E1BA56BD
00078B415504
000E386EAAF4
0028A2D01014
00728A1BFFE0
00A728B40050
00C972C00000
018C97000000
1258CA555400
7A69CDFFF800
03658C000000
03658C000000
3B69CDFFF800
1658C9555400
018C97000000
01C972800000
009728B40010
00728E1BABE0
0028D2D05514
000D787EAAF8
00074B45A940
0001E1F955AD
00002D1ABA90
000007E4006B
0000006FFFE4
ENDCHAR
STARTCHAR trademark
ENCODING 8482
SWIDTH 1503 0
DWIDTH 48 0
BBX 46 20 1 6
BITMAP
FFFFFFFF828D6000000258A0
5555555542DA3400000735E0
AAAAAAAA82E35800000D73E0
AAAAAAAA42768D000018D760
555555554268D60000358D60
AABEEEAA824D634000A35C60
0018CD00025635C000D63560
0018CD0002675CD0028D6560
0018CD000269CD700368D960
0018CD000268D7240A368960
0018CD000268725C1CA34960
0018CD00026965CA28CA9960
0018CD0002699CA7328DD960
0018CD00026989729728D960
0018CD0002698729CA70D960
0018CD000269829CA4A0D960
0018CD00026981CA31C0D960
0018CD00026980A32A80D960
0018CD00026980328F00D960
000444000100401044004410
ENDCHAR
STARTCHAR partialdiff
ENCODING 8706
SWIDTH 108 0
DWIDTH 3 0
BBX 1 1 0 0
BITMAP
00
ENDCHAR
STARTCHAR uni2206
ENCODING 8710
SWIDTH 108 0
DWIDTH 3 0
BBX 1 1 0 0
BITMAP
00
ENDCHAR
STARTCHAR product
ENCODING 8719
SWIDTH 521 0
DWIDTH 17 0
BBX 15 23 1 0
BITMAP
00511400
00F35800
01B58D00
0358CA00
070CA700
0A5A7340
0CA73580
18D358C0
35898CA0
7258CA70
A724A734
DA707358
D6346328
6368D630
329CCD60
29C95CD0
1C9629C0
0D637280
06369340
0329C600
029C9900
01CD7C00
00D63800
ENDCHAR
STARTCHAR summation
ENCODING 8721
SWIDTH 108 0
DWIDTH 3 0
BBX 1 1 0 0
BITMAP
00
ENDCHAR
STARTCHAR minus
ENCODING 8722
SWIDTH 555 0
DWIDTH 18 0
BBX 16 6 1 11
BITMAP
BFFFFFFD
15555554
6AAAAAA9
6AAAAAA9
55555554
6AAAAAA9
ENDCHAR
STARTCHAR radical
ENCODING 8730
SWIDTH 108 0
DWIDTH 3 0
BBX 1 1 0 0
BITMAP
00
ENDCHAR
STARTCHAR infinity
ENCODING 8734
SWIDTH 108 0
DWIDTH 3 0
BBX 1 1 0 0
BITMAP
00
ENDCHAR
STARTCHAR integral
ENCODING 8747
SWIDTH 362 0
DWIDTH 12 0
BBX 11 30 0 -3
BITMAP
0006FC
002D40
00A1A8
01CB94
025C54
0369E8
032680
032680
032680
032680
032680
032680
032680
032680
032680
032680
032680
032680
032680
032680
032680
032680
032680
1B3640
697240
05D700
7E4D00
007800
7F9000
140000
ENDCHAR
STARTCHAR approxequal
ENCODING 8776
SWIDTH 665 0
DWIDTH 21 0
BBX 19 14 1 10
BITMAP
01AAAA9088
1EAAAA91CC
345555574C
A2EAAAA928
97000001B0
9A1FFFFF80
0000000000
0000000000
01AAAA9088
1EAAAA91CC
345555574C
A2EAAAA928
97000001B0
9A1FFFFF80
ENDCHAR
STARTCHAR notequal
ENCODING 8800
SWIDTH 473 0
DWIDTH 15 0
BBX 14 29 0 -3
BITMAP
00018990
00029C90
000258C0
00032980
00073680
000A7340
000EB740
2FFFFFE0
001CDA00
2FFFFFE0
057ADD50
1ABBFEA0
15B7BD50
00A73400
00963000
01DA7000
2FFFFFE0
029CD000
2FFFFFE0
077AD550
1FBFEAA0
1FBB9550
09630000
0C960000
1CDA0000
29CD0000
258C0000
32580000
73680000
ENDCHAR
STARTCHAR lessequal
ENCODING 8804
SWIDTH 108 0
DWIDTH 3 0
BBX 1 1 0 0
BITMAP
00
ENDCHAR
STARTCHAR greaterequal
ENCODING 8805
SWIDTH 108 0
DWIDTH 3 0
BBX 1 1 0 0
BITMAP
00
ENDCHAR
STARTCHAR lozenge
ENCODING 9674
SWIDTH 521 0
DWIDTH 17 0
BBX 15 23 1 0
BITMAP
00511400
00F35800
01B58D00
0358CA00
070CA700
0A5A7340
0CA73580
18D358C0
35898CA0
7258CA70
A724A734
DA707358
D6346328
6368D630
329CCD60
29C95CD0
1C9629C0
0D637280
06369340
0329C600
029C9900
01CD7C00
00D63800
ENDCHAR
STARTCHAR uniF8FF
ENCODING 63743
SWIDTH 108 0
DWIDTH 3 0
BBX 1 1 0 0
BITMAP
00
ENDCHAR
STARTCHAR uniFB01
ENCODING 64257
SWIDTH 962 0
DWIDTH 31 0
BBX 29 23 1 0
BITMAP
5121AAAA90512140
A732AAAAA0A73240
A732955550A73240
A732FFFFF0A73240
A732400000A73240
A732FFFFF0A73240
A732400000A73240
A732400000A73240
A732400000A73240
A732955540A73240
A732AAAA80A73240
A732555540A73240
A732FFFFD0A73240
A732400000A73240
A732FFFFD0A73240
A732555540A73240
A732400000A73240
A732400000A73240
A732400000A73240
A732400000A73240
A732400000A73240
A732400000A73240
A732400000A73240
ENDCHAR
STARTCHAR uniFB02
ENCODING 64258
SWIDTH 1208 0
DWIDTH 39 0
BBX 37 23 1 0
BITMAP
5121AAAA905121400000
A732AAAAA0A732400000
A732955550A732400000
A732FFFFF0A732400000
A732400000A732400000
A732FFFFF0A732400000
A732400000A732400000
A732400000A732400000
A732400000A732400000
A732955540A732400000
A732AAAA80A732400000
A732555540A732400000
A732FFFFD0A732400000
A732400000A732400000
A732FFFFD0A732400000
A732555540A732400000
A732400000A732400000
A732400000A732AAAA40
A732400000A732AAAA40
A732400000A732955540
A732400000A732EAAA40
A732400000A732400000
A732400000A732FFFF80
ENDCHAR
STARTCHAR .notdef
ENCODING -1
SWIDTH 108 0
DWIDTH 3 0
BBX 1 1 0 0
BITMAP
00
ENDCHAR
ENDFONT
